<?xml version="1.0" encoding="UTF-8" standalone="no"?>
<svg
   version="1.2"
   viewBox="0 0 105.87754 31.532198"
   width="158.02618"
   height="46.904144"
   id="svg1"
   xmlns="http://www.w3.org/2000/svg"
   xmlns:svg="http://www.w3.org/2000/svg">
  <defs
     id="defs1" />
  <style
     id="style1">
		.s0 { fill: #4b88fa;stroke: #4b88fa;stroke-width: 1.9 } 
	</style>
  <path
     id="{der;}"
     class="s0"
     d="m 11.911679,28.212311 -0.01194,2.686667 q -2.4677534,-0.01194 -4.1235364,-0.195032 -1.655783,-0.206973 -2.646865,-0.796049 -0.9672,-0.604998 -1.381146,-1.803053 -0.402005,-1.182133 -0.390065,-3.172257 l 0.0199,-6.388297 q 0,-0.804011 -0.187071,-1.146312 -0.16717,-0.334341 -0.851773,-0.382104 -0.664701,-0.06767 -2.17719594,-0.07961 l 0.01194,-2.674726 q 1.50851494,0.01194 2.17321594,-0.0597 0.688583,-0.06766 0.855753,-0.382104 0.183092,-0.330361 0.195033,-1.134371 l 0.0199,-6.3882968 q 0,-1.998085 0.409965,-3.184198 0.421906,-1.186115 1.393087,-1.763251 0.987101,-0.60897693 2.642884,-0.78410793 1.655783,-0.195032 4.1354774,-0.187071 l -0.008,2.67472593 q -1.910518,0 -3.0090664,0.0597 -1.086609,0.06766 -1.615981,0.382103 -0.501511,0.31444 -0.63684,1.066707 -0.139308,0.736345 -0.139308,2.077689 l -0.0199,6.1056998 q 0,1.186114 -0.370163,2.037887 -0.374143,0.831872 -1.743348,0.831872 1.369205,0 1.731408,0.863713 0.374142,0.831873 0.362202,2.017986 l -0.0199,6.11366 q 0,1.329404 0.127367,2.085651 0.139309,0.736346 0.63684,1.058746 0.521412,0.3224 1.608021,0.390063 1.0985474,0.06767 3.0090664,0.06767 z m 15.546848,-0.780128 q -3.231962,-0.01194 -5.484782,-0.334341 -2.264761,-0.342301 -3.645907,-1.353285 -1.389107,-1.026903 -2.017985,-3.044889 -0.624899,-2.029926 -0.616939,-5.409157 0.008,-3.283704 0.656741,-5.253927 0.63684,-1.966243 2.025946,-2.9652848 1.393087,-1.010982 3.657848,-1.333382 2.25282,-0.322401 5.484781,-0.31444 3.096633,0.01194 5.222086,0.48161 2.137393,0.47763 3.351368,2.1055508 l 0.02786,-8.6212158 3.21604,0.008 -0.0796,25.7004588 -3.212059,-0.01194 0.008,-2.201077 q -1.233877,1.635882 -3.37127,2.09361 -2.125453,0.461709 -5.222086,0.453749 z m 8.613256,-10.081968 q 0.008,-2.392129 -0.3224,-3.832979 -0.334341,-1.440849 -1.233877,-2.165255 -0.903516,-0.732365 -2.587161,-0.987101 -1.695585,-0.254736 -4.418075,-0.266676 -2.981206,-0.008 -4.712613,0.234834 -1.747329,0.246776 -2.56726,0.979141 -0.823911,0.716444 -1.078648,2.157294 -0.234834,1.44085 -0.246775,3.828998 -0.008,2.479695 0.226874,3.968308 0.246776,1.488612 1.058746,2.244859 0.823911,0.736346 2.555319,0.991082 1.743349,0.242795 4.724555,0.254736 2.722489,0.008 4.406134,-0.226874 1.695585,-0.246776 2.599102,-0.979141 0.911476,-0.744306 1.253777,-2.232919 0.334342,-1.492593 0.342302,-3.968307 z m 26.619896,4.095675 2.997127,0.008 q -0.008,2.165254 -0.664702,3.399131 -0.636839,1.233877 -1.958282,1.795092 -1.325422,0.565195 -3.38321,0.732366 -2.045847,0.139309 -4.867844,0.127368 -3.23196,-0.008 -5.48876,-0.330361 -2.24088,-0.346281 -3.622025,-1.345324 -1.373186,-1.026903 -1.998085,-3.05683 -0.620918,-2.025946 -0.608978,-5.405177 0.008,-3.275744 0.616938,-5.253927 0.62888,-1.970222 1.998085,-2.9692638 1.381146,-0.999042 3.606105,-1.321443 2.244859,-0.33434 5.468859,-0.3224 3.70163,0.008 6.121621,0.537334 2.427951,0.529373 3.606105,1.9901238 1.206014,1.44881 1.194074,4.262845 l -0.008,4.131497 -19.379826,-0.05573 q 0.008,2.145354 0.294539,3.426993 0.282597,1.293581 1.134371,1.950322 0.843812,0.65674 2.539397,0.871674 1.703546,0.206973 4.533502,0.214933 2.539397,0.01194 4.095674,-0.08756 1.580159,-0.09951 2.380188,-0.421907 0.815951,-0.350261 1.11049,-1.038844 0.282597,-0.684603 0.282597,-1.838875 z M 54.786907,10.177809 q -2.734429,-0.01194 -4.410114,0.187071 -1.655783,0.195032 -2.527457,0.780129 -0.871674,0.569175 -1.186114,1.707526 -0.31444,1.13437 -0.334341,2.989166 l 16.295134,0.04776 0.008,-1.608019 q 0,-1.206016 -0.274637,-1.990124 -0.274637,-0.80003 -1.066707,-1.253779 -0.804009,-0.469668 -2.380188,-0.664701 -1.548317,-0.187071 -4.123537,-0.195032 z m 18.583777,17.027499 -3.21206,-0.01194 0.05573,-19.2803198 3.21604,0.01194 -0.01194,2.6627858 q 0.541313,-0.8517728 1.078647,-1.4209488 0.549274,-0.569175 1.420948,-0.899535 0.891576,-0.334342 2.392129,-0.461709 1.508516,-0.147269 3.968308,-0.135329 l -0.01195,2.6946278 q -3.311567,-0.01194 -5.13452,0.214934 -1.811013,0.234834 -2.595122,0.804009 -0.784109,0.545294 -0.95924,1.528416 -0.16717,0.987101 -0.179111,2.507556 z m 16.207572,-12.796496 -3.216042,-0.01194 0.01195,-3.21206 3.212052,0.01194 z m -2.173217,10.698906 h -2.145352 l 1.094565,-6.428101 3.216044,0.008 z m 6.396257,6.045996 0.0119,-2.674726 q 1.91052,0 2.99712,-0.0597 1.10652,-0.06766 1.60803,-0.382104 0.51743,-0.31444 0.65674,-1.046806 0.13532,-0.756246 0.13532,-2.09759 l 0.0199,-6.101719 q 0,-1.186115 0.37017,-2.021966 0.37414,-0.851773 1.747334,-0.851773 -1.373194,0 -1.735394,-0.839833 -0.36221,-0.855753 -0.36221,-2.037886 l 0.0199,-6.1136608 q 0,-1.333383 -0.12737,-2.069729 -0.1393,-0.752267 -0.64878,-1.078647 -0.50946,-0.3224 -1.60403,-0.390065 -1.09059,-0.06766 -3.00111,-0.06766 l 0.0119,-2.68666593 q 2.48766,0.01194 4.13548,0.214933 1.65578,0.18707193 2.615024,0.79604893 0.9871,0.589077 1.38911,1.783152 0.41394,1.186113 0.402,3.172257 l -0.0199,6.3882968 q 0,0.804011 0.16717,1.146312 0.18708,0.314439 0.85177,0.382104 0.68859,0.07164 2.1971,0.07961 l -0.0119,2.674726 q -1.50852,-0.008 -2.19312,0.0597 -0.6647,0.04776 -0.85177,0.382104 -0.16718,0.330361 -0.16718,1.13437 l -0.0199,6.388298 q -0.008,1.998084 -0.42986,3.184198 -0.40201,1.186114 -1.39309,1.783152 -0.979144,0.589076 -2.634924,0.784108 -1.63589,0.175131 -4.13548,0.16717 z"
     style="fill:#4b88fa;stroke:#4b88fa;stroke-width:0.756247" />
</svg>
