<?xml version="1.0" encoding="UTF-8"?>
<!DOCTYPE svg PUBLIC "-//W3C//DTD SVG 1.1//EN" "http://www.w3.org/Graphics/SVG/1.1/DTD/svg11.dtd">
<svg xmlns="http://www.w3.org/2000/svg" version="1.1" width="1024px" height="1024px" style="shape-rendering:geometricPrecision; text-rendering:geometricPrecision; image-rendering:optimizeQuality; fill-rule:evenodd; clip-rule:evenodd" xmlns:xlink="http://www.w3.org/1999/xlink">
<g><path style="opacity:1" fill="#f9faf9" d="M -0.5,-0.5 C 23.5,-0.5 47.5,-0.5 71.5,-0.5C 71.5,26.8333 71.5,54.1667 71.5,81.5C 47.0915,81.4813 23.0915,81.148 -0.5,80.5C -0.5,53.5 -0.5,26.5 -0.5,-0.5 Z"/></g>
<g><path style="opacity:1" fill="#f2f3f2" d="M 71.5,-0.5 C 95.8333,-0.5 120.167,-0.5 144.5,-0.5C 144.5,26.8333 144.5,54.1667 144.5,81.5C 120.167,81.5 95.8333,81.5 71.5,81.5C 71.5,54.1667 71.5,26.8333 71.5,-0.5 Z"/></g>
<g><path style="opacity:1" fill="#f2f3f2" d="M 218.5,-0.5 C 242.833,-0.5 267.167,-0.5 291.5,-0.5C 291.5,26.8333 291.5,54.1667 291.5,81.5C 267.167,81.5 242.833,81.5 218.5,81.5C 218.5,54.1667 218.5,26.8333 218.5,-0.5 Z"/></g>
<g><path style="opacity:1" fill="#f2f3f2" d="M 365.5,-0.5 C 389.833,-0.5 414.167,-0.5 438.5,-0.5C 438.5,26.8333 438.5,54.1667 438.5,81.5C 414.167,81.5 389.833,81.5 365.5,81.5C 365.5,54.1667 365.5,26.8333 365.5,-0.5 Z"/></g>
<g><path style="opacity:1" fill="#f9faf9" d="M 438.5,-0.5 C 463.167,-0.5 487.833,-0.5 512.5,-0.5C 511.413,27.4633 511.413,54.7967 512.5,81.5C 536.833,81.5 561.167,81.5 585.5,81.5C 585.5,107.833 585.5,134.167 585.5,160.5C 560.833,160.5 536.167,160.5 511.5,160.5C 511.5,134.167 511.5,107.833 511.5,81.5C 487.034,80.5229 462.701,80.5229 438.5,81.5C 438.5,54.1667 438.5,26.8333 438.5,-0.5 Z"/></g>
<g><path style="opacity:1" fill="#f3f3f3" d="M 512.5,-0.5 C 536.833,-0.5 561.167,-0.5 585.5,-0.5C 585.5,26.8333 585.5,54.1667 585.5,81.5C 561.167,81.5 536.833,81.5 512.5,81.5C 511.413,54.7967 511.413,27.4633 512.5,-0.5 Z"/></g>
<g><path style="opacity:1" fill="#f9f9f9" d="M 585.5,-0.5 C 610.167,-0.5 634.833,-0.5 659.5,-0.5C 658.218,27.4488 658.218,54.7822 659.5,81.5C 683.5,81.5 707.5,81.5 731.5,81.5C 732.383,54.5318 732.716,27.1984 732.5,-0.5C 756.833,-0.5 781.167,-0.5 805.5,-0.5C 805.333,26.5021 805.5,53.5021 806,80.5C 829.711,81.3787 853.877,81.7121 878.5,81.5C 879.038,53.7581 879.038,26.4248 878.5,-0.5C 903.167,-0.5 927.833,-0.5 952.5,-0.5C 952.594,26.2917 952.761,53.2917 953,80.5C 976.425,81.4942 999.925,81.8275 1023.5,81.5C 1023.5,107.833 1023.5,134.167 1023.5,160.5C 999.833,160.5 976.167,160.5 952.5,160.5C 953.501,186.161 953.834,212.161 953.5,238.5C 976.825,239.175 1000.16,239.508 1023.5,239.5C 1023.5,265.5 1023.5,291.5 1023.5,317.5C 999.833,317.5 976.167,317.5 952.5,317.5C 953.088,344.484 953.088,371.151 952.5,397.5C 927.829,397.188 903.496,397.188 879.5,397.5C 879.5,424.167 879.5,450.833 879.5,477.5C 877.167,477.5 874.833,477.5 872.5,477.5C 872.666,482.511 872.499,487.511 872,492.5C 872.137,484.765 871.304,477.432 869.5,470.5C 856.591,471.639 847.758,466.306 843,454.5C 841.641,450.595 840.808,446.595 840.5,442.5C 840.167,424.821 840.5,407.154 841.5,389.5C 841.548,391.596 841.548,393.762 841.5,396C 842.416,396.374 843.25,396.874 844,397.5C 855.31,397.785 866.81,397.452 878.5,396.5C 878.709,395.914 879.043,395.414 879.5,395C 879.19,370.107 879.024,344.941 879,319.5C 854.729,317.515 830.229,316.849 805.5,317.5C 806.132,325.573 805.465,333.24 803.5,340.5C 794.5,340.5 785.5,340.5 776.5,340.5C 775.507,349.318 775.173,358.318 775.5,367.5C 779.5,367.5 783.5,367.5 787.5,367.5C 799.488,368.825 805.488,375.491 805.5,387.5C 805.5,390.833 805.5,394.167 805.5,397.5C 780.815,397.395 756.482,397.395 732.5,397.5C 732.19,371.942 732.023,345.609 732,318.5C 707.908,317.506 683.741,317.172 659.5,317.5C 658.993,291.618 658.993,265.618 659.5,239.5C 634.27,239.254 609.604,239.254 585.5,239.5C 585.5,213.167 585.5,186.833 585.5,160.5C 609.833,160.5 634.167,160.5 658.5,160.5C 658.5,134.167 658.5,107.833 658.5,81.5C 634.167,81.5 609.833,81.5 585.5,81.5C 585.5,54.1667 585.5,26.8333 585.5,-0.5 Z"/></g>
<g><path style="opacity:1" fill="#f3f3f3" d="M 659.5,-0.5 C 683.833,-0.5 708.167,-0.5 732.5,-0.5C 732.716,27.1984 732.383,54.5318 731.5,81.5C 707.5,81.5 683.5,81.5 659.5,81.5C 658.218,54.7822 658.218,27.4488 659.5,-0.5 Z"/></g>
<g><path style="opacity:1" fill="#f3f3f3" d="M 805.5,-0.5 C 829.833,-0.5 854.167,-0.5 878.5,-0.5C 879.038,26.4248 879.038,53.7581 878.5,81.5C 853.877,81.7121 829.711,81.3787 806,80.5C 805.5,53.5021 805.333,26.5021 805.5,-0.5 Z"/></g>
<g><path style="opacity:1" fill="#f3f3f3" d="M 952.5,-0.5 C 976.167,-0.5 999.833,-0.5 1023.5,-0.5C 1023.5,26.8333 1023.5,54.1667 1023.5,81.5C 999.925,81.8275 976.425,81.4942 953,80.5C 952.761,53.2917 952.594,26.2917 952.5,-0.5 Z"/></g>
<g><path style="opacity:1" fill="#f3f2f3" d="M -0.5,80.5 C 23.0915,81.148 47.0915,81.4813 71.5,81.5C 71.5,107.833 71.5,134.167 71.5,160.5C 47.5,160.5 23.5,160.5 -0.5,160.5C -0.5,133.833 -0.5,107.167 -0.5,80.5 Z"/></g>
<g><path style="opacity:1" fill="#f3f2f3" d="M 511.5,160.5 C 487.167,160.5 462.833,160.5 438.5,160.5C 438.5,134.167 438.5,107.833 438.5,81.5C 462.701,80.5229 487.034,80.5229 511.5,81.5C 511.5,107.833 511.5,134.167 511.5,160.5 Z"/></g>
<g><path style="opacity:1" fill="#f9faf9" d="M 144.5,-0.5 C 169.167,-0.5 193.833,-0.5 218.5,-0.5C 218.5,26.8333 218.5,54.1667 218.5,81.5C 200.038,81.5652 182.205,81.2318 165,80.5C 158.555,81.149 152.055,81.8157 145.5,82.5C 145.167,83.1667 144.833,83.8333 144.5,84.5C 145.335,109.086 145.668,134.086 145.5,159.5C 169.824,160.5 194.158,160.833 218.5,160.5C 218.5,186.833 218.5,213.167 218.5,239.5C 193.64,238.36 168.973,238.36 144.5,239.5C 144.5,213.167 144.5,186.833 144.5,160.5C 120.167,160.5 95.8333,160.5 71.5,160.5C 71.5,134.167 71.5,107.833 71.5,81.5C 95.8333,81.5 120.167,81.5 144.5,81.5C 144.5,54.1667 144.5,26.8333 144.5,-0.5 Z"/></g>
<g><path style="opacity:1" fill="#f3f3f3" d="M 218.5,81.5 C 218.5,107.833 218.5,134.167 218.5,160.5C 194.158,160.833 169.824,160.5 145.5,159.5C 145.668,134.086 145.335,109.086 144.5,84.5C 144.833,83.8333 145.167,83.1667 145.5,82.5C 152.055,81.8157 158.555,81.149 165,80.5C 182.205,81.2318 200.038,81.5652 218.5,81.5 Z"/></g>
<g><path style="opacity:1" fill="#f9faf9" d="M 218.5,81.5 C 242.833,81.5 267.167,81.5 291.5,81.5C 291.5,107.833 291.5,134.167 291.5,160.5C 267.167,160.5 242.833,160.5 218.5,160.5C 218.5,134.167 218.5,107.833 218.5,81.5 Z"/></g>
<g><path style="opacity:1" fill="#f3f3f3" d="M 291.5,160.5 C 291.5,134.167 291.5,107.833 291.5,81.5C 315.728,81.2725 340.061,81.2725 364.5,81.5C 364.875,107.646 364.875,133.979 364.5,160.5C 340.167,160.5 315.833,160.5 291.5,160.5 Z"/></g>
<g><path style="opacity:1" fill="#f9faf9" d="M 291.5,-0.5 C 316.167,-0.5 340.833,-0.5 365.5,-0.5C 365.5,26.8333 365.5,54.1667 365.5,81.5C 389.833,81.5 414.167,81.5 438.5,81.5C 438.5,107.833 438.5,134.167 438.5,160.5C 462.833,160.5 487.167,160.5 511.5,160.5C 512.402,186.687 512.735,212.687 512.5,238.5C 536.649,239.378 560.983,239.712 585.5,239.5C 585.5,265.5 585.5,291.5 585.5,317.5C 560.833,317.5 536.167,317.5 511.5,317.5C 511.5,291.5 511.5,265.5 511.5,239.5C 487.335,238.208 463.001,238.208 438.5,239.5C 438.5,265.5 438.5,291.5 438.5,317.5C 414.167,317.5 389.833,317.5 365.5,317.5C 364.51,291.574 364.176,265.574 364.5,239.5C 339.859,238.192 315.525,238.192 291.5,239.5C 291.5,265.5 291.5,291.5 291.5,317.5C 267.167,317.5 242.833,317.5 218.5,317.5C 218.5,291.5 218.5,265.5 218.5,239.5C 242.001,239.583 266.167,239.25 291,238.5C 291.5,212.502 291.667,186.502 291.5,160.5C 315.833,160.5 340.167,160.5 364.5,160.5C 364.875,133.979 364.875,107.646 364.5,81.5C 340.061,81.2725 315.728,81.2725 291.5,81.5C 291.5,54.1667 291.5,26.8333 291.5,-0.5 Z"/></g>
<g><path style="opacity:1" fill="#f2f3f2" d="M 585.5,81.5 C 609.833,81.5 634.167,81.5 658.5,81.5C 658.5,107.833 658.5,134.167 658.5,160.5C 634.167,160.5 609.833,160.5 585.5,160.5C 585.5,134.167 585.5,107.833 585.5,81.5 Z"/></g>
<g><path style="opacity:1" fill="#f3f3f3" d="M 805.5,160.5 C 781.167,160.5 756.833,160.5 732.5,160.5C 732.5,134.167 732.5,107.833 732.5,81.5C 757.017,81.3068 781.35,81.3068 805.5,81.5C 805.5,107.833 805.5,134.167 805.5,160.5 Z"/></g>
<g><path style="opacity:1" fill="#f3f3f3" d="M 952.5,160.5 C 928.167,160.5 903.833,160.5 879.5,160.5C 879.5,134.167 879.5,107.833 879.5,81.5C 903.265,80.8896 927.598,80.8896 952.5,81.5C 952.5,107.833 952.5,134.167 952.5,160.5 Z"/></g>
<g><path style="opacity:1" fill="#f3f3f3" d="M 71.5,160.5 C 95.8333,160.5 120.167,160.5 144.5,160.5C 144.5,186.833 144.5,213.167 144.5,239.5C 120.111,239.632 95.9446,239.299 72,238.5C 71.5,212.502 71.3334,186.502 71.5,160.5 Z"/></g>
<g><path style="opacity:1" fill="#f3f3f3" d="M 218.5,160.5 C 242.833,160.5 267.167,160.5 291.5,160.5C 291.667,186.502 291.5,212.502 291,238.5C 266.167,239.25 242.001,239.583 218.5,239.5C 218.5,213.167 218.5,186.833 218.5,160.5 Z"/></g>
<g><path style="opacity:1" fill="#f3f3f2" d="M 365.5,160.5 C 389.502,160.333 413.502,160.5 437.5,161C 438.16,170.425 438.494,179.925 438.5,189.5C 438.241,206.215 437.907,222.715 437.5,239C 413.451,239.374 389.451,239.541 365.5,239.5C 365.5,213.167 365.5,186.833 365.5,160.5 Z"/></g>
<g><path style="opacity:1" fill="#f3f2f3" d="M 511.5,160.5 C 536.167,160.5 560.833,160.5 585.5,160.5C 585.5,186.833 585.5,213.167 585.5,239.5C 560.983,239.712 536.649,239.378 512.5,238.5C 512.735,212.687 512.402,186.687 511.5,160.5 Z"/></g>
<g><path style="opacity:1" fill="#f3f3f3" d="M 659.5,160.5 C 683.741,160.172 707.908,160.506 732,161.5C 731.898,186.968 731.731,212.801 731.5,239C 707.433,239.738 683.6,239.571 660,238.5C 659.5,212.502 659.333,186.502 659.5,160.5 Z"/></g>
<g><path style="opacity:1" fill="#f3f2f3" d="M 805.5,160.5 C 830.075,160.172 854.575,160.506 879,161.5C 879.175,186.58 879.342,210.58 879.5,233.5C 879.514,235.593 878.848,237.426 877.5,239C 853.447,239.673 829.78,239.507 806.5,238.5C 805.5,212.509 805.167,186.509 805.5,160.5 Z"/></g>
<g><path style="opacity:1" fill="#f3f3f3" d="M 952.5,160.5 C 976.167,160.5 999.833,160.5 1023.5,160.5C 1023.5,186.833 1023.5,213.167 1023.5,239.5C 1000.16,239.508 976.825,239.175 953.5,238.5C 953.834,212.161 953.501,186.161 952.5,160.5 Z"/></g>
<g><path style="opacity:1" fill="#f3f3f3" d="M 71.5,317.5 C 47.8253,317.718 23.8253,317.718 -0.5,317.5C -0.5,291.5 -0.5,265.5 -0.5,239.5C 23.3612,238.896 47.3612,238.896 71.5,239.5C 71.5,265.5 71.5,291.5 71.5,317.5 Z"/></g>
<g><path style="opacity:1" fill="#f9faf9" d="M -0.5,160.5 C 23.5,160.5 47.5,160.5 71.5,160.5C 71.3334,186.502 71.5,212.502 72,238.5C 95.9446,239.299 120.111,239.632 144.5,239.5C 144.977,265.025 144.977,291.025 144.5,317.5C 120.167,317.5 95.8333,317.5 71.5,317.5C 71.5,291.5 71.5,265.5 71.5,239.5C 47.3612,238.896 23.3612,238.896 -0.5,239.5C -0.5,213.167 -0.5,186.833 -0.5,160.5 Z"/></g>
<g><path style="opacity:1" fill="#f3f3f3" d="M 218.5,239.5 C 218.5,265.5 218.5,291.5 218.5,317.5C 193.833,317.5 169.167,317.5 144.5,317.5C 144.977,291.025 144.977,265.025 144.5,239.5C 168.973,238.36 193.64,238.36 218.5,239.5 Z"/></g>
<g><path style="opacity:1" fill="#f3f3f3" d="M 365.5,317.5 C 340.833,317.5 316.167,317.5 291.5,317.5C 291.5,291.5 291.5,265.5 291.5,239.5C 315.525,238.192 339.859,238.192 364.5,239.5C 364.176,265.574 364.51,291.574 365.5,317.5 Z"/></g>
<g><path style="opacity:1" fill="#f3f3f3" d="M 511.5,317.5 C 487.167,317.5 462.833,317.5 438.5,317.5C 438.5,291.5 438.5,265.5 438.5,239.5C 463.001,238.208 487.335,238.208 511.5,239.5C 511.5,265.5 511.5,291.5 511.5,317.5 Z"/></g>
<g><path style="opacity:1" fill="#f3f3f3" d="M 659.5,317.5 C 634.833,317.5 610.167,317.5 585.5,317.5C 585.5,291.5 585.5,265.5 585.5,239.5C 609.604,239.254 634.27,239.254 659.5,239.5C 658.993,265.618 658.993,291.618 659.5,317.5 Z"/></g>
<g><path style="opacity:1" fill="#f3f3f3" d="M 805.5,317.5 C 781.167,317.5 756.833,317.5 732.5,317.5C 732.5,291.5 732.5,265.5 732.5,239.5C 756.958,239.109 781.292,239.109 805.5,239.5C 805.5,265.5 805.5,291.5 805.5,317.5 Z"/></g>
<g><path style="opacity:1" fill="#f3f3f3" d="M 952.5,317.5 C 928.167,317.5 903.833,317.5 879.5,317.5C 879.5,291.5 879.5,265.5 879.5,239.5C 903.527,239.296 927.861,239.296 952.5,239.5C 952.5,265.5 952.5,291.5 952.5,317.5 Z"/></g>
<g><path style="opacity:1" fill="#f9faf9" d="M -0.5,317.5 C 23.8253,317.718 47.8253,317.718 71.5,317.5C 71.5,344.167 71.5,370.833 71.5,397.5C 47.1195,396.642 23.1195,396.642 -0.5,397.5C -0.5,370.833 -0.5,344.167 -0.5,317.5 Z"/></g>
<g><path style="opacity:1" fill="#f3f2f3" d="M 71.5,317.5 C 95.8333,317.5 120.167,317.5 144.5,317.5C 144.667,343.835 144.5,370.169 144,396.5C 120.663,397.147 96.4961,397.48 71.5,397.5C 71.5,370.833 71.5,344.167 71.5,317.5 Z"/></g>
<g><path style="opacity:1" fill="#f1f2f2" d="M 218.5,317.5 C 242.833,317.5 267.167,317.5 291.5,317.5C 291.361,344.473 291.361,371.14 291.5,397.5C 267.167,397.5 242.833,397.5 218.5,397.5C 218.5,424.167 218.5,450.833 218.5,477.5C 210.833,477.5 203.167,477.5 195.5,477.5C 203.44,469.59 208.274,459.923 210,448.5C 210.333,429.167 210.667,409.833 211,390.5C 212.652,371.693 222.818,364.026 241.5,367.5C 241.5,358.5 241.5,349.5 241.5,340.5C 233.833,340.5 226.167,340.5 218.5,340.5C 218.5,332.833 218.5,325.167 218.5,317.5 Z"/></g>
<g><path style="opacity:1" fill="#f9f9f9" d="M 291.5,317.5 C 316.167,317.5 340.833,317.5 365.5,317.5C 365.492,332.173 365.159,346.673 364.5,361C 365.125,375.318 365.792,389.485 366.5,403.5C 366.5,413.5 366.5,423.5 366.5,433.5C 365.691,435.292 365.191,437.292 365,439.5C 364.667,425.167 364.333,410.833 364,396.5C 339.352,397.22 315.185,397.554 291.5,397.5C 291.361,371.14 291.361,344.473 291.5,317.5 Z"/></g>
<g><path style="opacity:1" fill="#f2f2f3" d="M 365.5,317.5 C 389.833,317.5 414.167,317.5 438.5,317.5C 438.396,344.459 438.396,371.126 438.5,397.5C 426.586,397.821 414.753,397.488 403,396.5C 402.83,406.342 402.33,416.009 401.5,425.5C 401.5,405.167 401.5,384.833 401.5,364.5C 389.833,364.5 378.167,364.5 366.5,364.5C 366.5,377.5 366.5,390.5 366.5,403.5C 365.792,389.485 365.125,375.318 364.5,361C 365.159,346.673 365.492,332.173 365.5,317.5 Z"/></g>
<g><path style="opacity:1" fill="#f9faf9" d="M 438.5,317.5 C 462.833,317.5 487.167,317.5 511.5,317.5C 512.447,344.974 512.447,371.64 511.5,397.5C 487.087,396.915 462.754,396.915 438.5,397.5C 438.396,371.126 438.396,344.459 438.5,317.5 Z"/></g>
<g><path style="opacity:1" fill="#f3f3f3" d="M 511.5,317.5 C 536.167,317.5 560.833,317.5 585.5,317.5C 585.5,344.167 585.5,370.833 585.5,397.5C 560.917,397.233 536.25,397.233 511.5,397.5C 512.447,371.64 512.447,344.974 511.5,317.5 Z"/></g>
<g><path style="opacity:1" fill="#f9faf9" d="M 585.5,317.5 C 610.167,317.5 634.833,317.5 659.5,317.5C 659.378,344.02 659.378,370.687 659.5,397.5C 634.498,397.223 609.831,397.223 585.5,397.5C 585.5,370.833 585.5,344.167 585.5,317.5 Z"/></g>
<g><path style="opacity:1" fill="#f3f2f3" d="M 659.5,317.5 C 683.741,317.172 707.908,317.506 732,318.5C 732.023,345.609 732.19,371.942 732.5,397.5C 708.282,396.985 683.948,396.985 659.5,397.5C 659.378,370.687 659.378,344.02 659.5,317.5 Z"/></g>
<g><path style="opacity:1" fill="#f2f2f3" d="M 805.5,317.5 C 830.229,316.849 854.729,317.515 879,319.5C 879.024,344.941 879.19,370.107 879.5,395C 879.043,395.414 878.709,395.914 878.5,396.5C 866.81,397.452 855.31,397.785 844,397.5C 843.25,396.874 842.416,396.374 841.5,396C 841.548,393.762 841.548,391.596 841.5,389.5C 840.5,407.154 840.167,424.821 840.5,442.5C 839.668,422.671 839.168,402.671 839,382.5C 838.814,379.964 838.314,377.631 837.5,375.5C 834.876,355.211 823.543,343.544 803.5,340.5C 805.465,333.24 806.132,325.573 805.5,317.5 Z"/></g>
<g><path style="opacity:1" fill="#f3f3f3" d="M 952.5,317.5 C 976.167,317.5 999.833,317.5 1023.5,317.5C 1023.5,344.167 1023.5,370.833 1023.5,397.5C 999.833,397.5 976.167,397.5 952.5,397.5C 953.088,371.151 953.088,344.484 952.5,317.5 Z"/></g>
<g><path style="opacity:1" fill="#068ed7" d="M 776.5,340.5 C 785.5,340.5 794.5,340.5 803.5,340.5C 823.543,343.544 834.876,355.211 837.5,375.5C 837.657,376.873 837.49,378.207 837,379.5C 836.692,378.692 836.192,378.025 835.5,377.5C 834.5,379.167 833.167,380.5 831.5,381.5C 830.742,380.189 829.742,379.689 828.5,380C 829.458,381.147 829.125,382.147 827.5,383C 828.167,383.333 828.833,383.667 829.5,384C 828.167,384.667 828.167,385.333 829.5,386C 826.054,386.704 826.054,388.037 829.5,390C 827.744,390.202 826.078,390.702 824.5,391.5C 826.073,393.836 827.406,393.836 828.5,391.5C 829.086,391.709 829.586,392.043 830,392.5C 831.637,388.598 833.47,384.765 835.5,381C 835.833,380.833 836.167,380.667 836.5,380.5C 837.281,381.729 837.781,383.062 838,384.5C 838.667,390.167 838.667,395.833 838,401.5C 836.981,402.687 835.814,403.687 834.5,404.5C 833.494,404.062 833.494,403.396 834.5,402.5C 833.264,401.643 831.931,400.977 830.5,400.5C 828.457,402.208 826.79,404.208 825.5,406.5C 825.667,407.167 825.833,407.833 826,408.5C 826.149,405.721 826.983,405.221 828.5,407C 828.152,409.055 828.819,411.055 830.5,413C 829.128,414.242 828.128,415.742 827.5,417.5C 826.998,418.521 826.332,418.688 825.5,418C 824,416.167 822.5,414.333 821,412.5C 819.414,414.67 818.08,417.004 817,419.5C 816,419.833 815,420.167 814,420.5C 813.5,420 813,419.5 812.5,419C 811.475,416.271 811.475,413.271 812.5,410C 811.929,408.795 811.262,407.628 810.5,406.5C 809.46,413.227 809.46,419.727 810.5,426C 813.167,426.667 813.167,427.333 810.5,428C 811.833,429.333 811.833,430.667 810.5,432C 811.167,432.333 811.833,432.667 812.5,433C 810.246,434.054 809.913,435.554 811.5,437.5C 810.833,438.833 810.167,440.167 809.5,441.5C 810.326,442.451 810.492,443.451 810,444.5C 808.849,429.147 808.016,413.813 807.5,398.5C 807.354,394.613 806.687,390.946 805.5,387.5C 805.488,375.491 799.488,368.825 787.5,367.5C 784.038,366.518 780.371,366.185 776.5,366.5C 776.5,357.833 776.5,349.167 776.5,340.5 Z"/></g>
<g><path style="opacity:1" fill="#99cce9" d="M 776.5,340.5 C 776.5,349.167 776.5,357.833 776.5,366.5C 780.371,366.185 784.038,366.518 787.5,367.5C 783.5,367.5 779.5,367.5 775.5,367.5C 775.173,358.318 775.507,349.318 776.5,340.5 Z"/></g>
<g><path style="opacity:1" fill="#058bd5" d="M 400.5,578.5 C 389.833,578.5 379.167,578.5 368.5,578.5C 368.666,571.492 368.5,564.492 368,557.5C 366.961,558.244 366.461,559.244 366.5,560.5C 352.55,579.216 333.883,586.716 310.5,583C 305.332,581.959 300.332,580.459 295.5,578.5C 285.091,574.101 276.758,567.101 270.5,557.5C 272.582,554.194 275.082,551.194 278,548.5C 278.333,548.833 278.667,549.167 279,549.5C 279.492,548.451 279.326,547.451 278.5,546.5C 279.727,545.41 280.56,544.076 281,542.5C 283.308,542.793 285.474,541.959 287.5,540C 283.898,539.365 283.232,538.032 285.5,536C 286.449,535.383 287.282,535.549 288,536.5C 289.394,534.598 291.227,534.265 293.5,535.5C 293.216,533.585 293.549,531.919 294.5,530.5C 306.498,552.224 324.165,558.391 347.5,549C 352.738,545.264 357.071,540.764 360.5,535.5C 361.847,536.171 363.014,536.171 364,535.5C 364.5,536.667 365.333,537.5 366.5,538C 366.167,538.333 365.833,538.667 365.5,539C 367.274,539.881 367.94,541.047 367.5,542.5C 369.382,541.907 371.215,541.24 373,540.5C 373.333,540.833 373.667,541.167 374,541.5C 373.513,539.956 373.013,538.29 372.5,536.5C 375.718,536.349 376.051,535.516 373.5,534C 375.129,533.415 376.629,532.581 378,531.5C 380.5,532.333 381,533.833 379.5,536C 383.831,537.668 384.498,536.502 381.5,532.5C 385.939,531.33 386.272,529.83 382.5,528C 384.481,527.395 384.815,526.395 383.5,525C 384.406,521.038 386.24,520.871 389,524.5C 389.465,523.069 390.299,521.903 391.5,521C 389.236,521.698 387.403,521.198 386,519.5C 384.984,520.634 384.317,520.301 384,518.5C 383.751,519.624 383.251,520.624 382.5,521.5C 381.264,520.754 379.93,520.421 378.5,520.5C 378.343,519.127 378.51,517.793 379,516.5C 379.667,517.833 380.333,517.833 381,516.5C 381.451,518.929 382.285,519.096 383.5,517C 382.167,516.333 382.167,515.667 383.5,515C 382.5,514 381.5,513 380.5,512C 376.225,511.774 371.892,511.607 367.5,511.5C 368.459,499.826 367.126,488.493 363.5,477.5C 354.527,458.534 339.527,451.034 318.5,455C 307.104,458.896 299.104,466.396 294.5,477.5C 293.596,478.209 293.263,479.209 293.5,480.5C 291.974,479.895 290.974,478.729 290.5,477C 289.552,476.517 288.552,476.351 287.5,476.5C 287.649,477.552 287.483,478.552 287,479.5C 286.333,480.833 285.667,480.833 285,479.5C 284.08,476.692 284.913,474.525 287.5,473C 286.382,471.926 285.382,470.76 284.5,469.5C 283.494,469.938 283.494,470.604 284.5,471.5C 283.311,472.429 281.978,472.762 280.5,472.5C 281.46,467.573 279.46,465.073 274.5,465C 275.357,464.311 276.023,463.478 276.5,462.5C 275.011,462.467 273.678,461.967 272.5,461C 273.126,460.25 273.626,459.416 274,458.5C 274.914,459.654 275.747,459.487 276.5,458C 274.863,456.049 273.363,456.216 272,458.5C 270.69,456.868 270.19,455.201 270.5,453.5C 269.201,454.09 268.368,455.09 268,456.5C 267.536,455.906 267.369,455.239 267.5,454.5C 273.591,443.078 282.591,434.744 294.5,429.5C 310.622,423.457 326.955,422.957 343.5,428C 352.832,431.835 360.165,438.002 365.5,446.5C 365.369,447.376 365.702,448.043 366.5,448.5C 367.5,420.841 367.833,393.175 367.5,365.5C 378.5,365.5 389.5,365.5 400.5,365.5C 400.5,436.5 400.5,507.5 400.5,578.5 Z"/></g>
<g><path style="opacity:1" fill="#f2f3f3" d="M 659.5,397.5 C 659.53,407.743 659.363,418.076 659,428.5C 658.433,431.168 657.933,433.834 657.5,436.5C 652.74,440.923 648.74,445.923 645.5,451.5C 644.833,443.833 644.167,436.167 643.5,428.5C 632.833,428.5 622.167,428.5 611.5,428.5C 611.5,444.833 611.5,461.167 611.5,477.5C 602.833,477.5 594.167,477.5 585.5,477.5C 585.727,450.976 585.727,424.31 585.5,397.5C 609.831,397.223 634.498,397.223 659.5,397.5 Z"/></g>
<g><path style="opacity:1" fill="#f3f3f3" d="M 71.5,397.5 C 71.5,424.167 71.5,450.833 71.5,477.5C 47.5,477.5 23.5,477.5 -0.5,477.5C -0.5,450.833 -0.5,424.167 -0.5,397.5C 23.1195,396.642 47.1195,396.642 71.5,397.5 Z"/></g>
<g><path style="opacity:1" fill="#f9f9f9" d="M 144.5,317.5 C 169.167,317.5 193.833,317.5 218.5,317.5C 218.5,325.167 218.5,332.833 218.5,340.5C 196.803,341.692 183.97,353.026 180,374.5C 179.502,377.817 179.335,381.15 179.5,384.5C 178.549,385.919 178.216,387.585 178.5,389.5C 177.527,391.948 177.194,394.615 177.5,397.5C 166.938,396.639 156.272,396.972 145.5,398.5C 145.291,399.086 144.957,399.586 144.5,400C 145.758,425.271 145.758,450.771 144.5,476.5C 145.5,476.5 146.5,476.5 147.5,476.5C 147.5,483.167 147.5,489.833 147.5,496.5C 149.833,496.5 152.167,496.5 154.5,496.5C 168.725,498.727 176.392,507.061 177.5,521.5C 177.5,533.5 177.5,545.5 177.5,557.5C 166.539,557.422 155.872,557.422 145.5,557.5C 145.601,583.793 145.268,609.793 144.5,635.5C 120.311,635.708 95.9772,635.708 71.5,635.5C 71.5,609.5 71.5,583.5 71.5,557.5C 95.8333,557.5 120.167,557.5 144.5,557.5C 144.173,536.924 144.507,516.424 145.5,496C 144.69,490.249 144.19,484.416 144,478.5C 119.908,477.506 95.7414,477.172 71.5,477.5C 71.5,450.833 71.5,424.167 71.5,397.5C 96.4961,397.48 120.663,397.147 144,396.5C 144.5,370.169 144.667,343.835 144.5,317.5 Z"/></g>
<g><path style="opacity:1" fill="#f1f2f2" d="M 178.5,389.5 C 178.756,408.853 178.423,428.187 177.5,447.5C 175.706,462.294 167.373,470.294 152.5,471.5C 150.833,471.5 149.167,471.5 147.5,471.5C 147.5,473.167 147.5,474.833 147.5,476.5C 146.5,476.5 145.5,476.5 144.5,476.5C 145.758,450.771 145.758,425.271 144.5,400C 144.957,399.586 145.291,399.086 145.5,398.5C 156.272,396.972 166.938,396.639 177.5,397.5C 177.194,394.615 177.527,391.948 178.5,389.5 Z"/></g>
<g><path style="opacity:1" fill="#f9f9f9" d="M 291.5,397.5 C 291.5,407.5 291.5,417.5 291.5,427.5C 293.179,427.285 294.179,427.952 294.5,429.5C 282.591,434.744 273.591,443.078 267.5,454.5C 262.481,461.538 258.814,469.205 256.5,477.5C 243.833,477.5 231.167,477.5 218.5,477.5C 218.5,450.833 218.5,424.167 218.5,397.5C 242.833,397.5 267.167,397.5 291.5,397.5 Z"/></g>
<g><path style="opacity:1" fill="#f2f3f3" d="M 366.5,433.5 C 366.818,438.032 366.485,442.366 365.5,446.5C 360.165,438.002 352.832,431.835 343.5,428C 326.955,422.957 310.622,423.457 294.5,429.5C 294.179,427.952 293.179,427.285 291.5,427.5C 291.5,417.5 291.5,407.5 291.5,397.5C 315.185,397.554 339.352,397.22 364,396.5C 364.333,410.833 364.667,425.167 365,439.5C 365.191,437.292 365.691,435.292 366.5,433.5 Z"/></g>
<g><path style="opacity:1" fill="#f9f9f9" d="M 438.5,397.5 C 438.793,421.976 438.793,446.309 438.5,470.5C 437.172,474.818 435.839,479.151 434.5,483.5C 433.265,481.983 433.265,480.316 434.5,478.5C 423.854,477.501 413.187,477.168 402.5,477.5C 402.83,460.325 402.497,443.325 401.5,426.5C 401.5,426.167 401.5,425.833 401.5,425.5C 402.33,416.009 402.83,406.342 403,396.5C 414.753,397.488 426.586,397.821 438.5,397.5 Z"/></g>
<g><path style="opacity:1" fill="#f2f2f2" d="M 511.5,397.5 C 511.817,406.085 511.483,414.585 510.5,423C 512.708,423.191 514.708,423.691 516.5,424.5C 489.882,422.089 467.716,430.756 450,450.5C 447.642,453.222 445.809,456.222 444.5,459.5C 442.126,462.949 440.126,466.616 438.5,470.5C 438.793,446.309 438.793,421.976 438.5,397.5C 462.754,396.915 487.087,396.915 511.5,397.5 Z"/></g>
<g><path style="opacity:1" fill="#f9f9f9" d="M 585.5,397.5 C 585.727,424.31 585.727,450.976 585.5,477.5C 583.83,477.751 582.33,478.418 581,479.5C 580.617,478.944 580.117,478.611 579.5,478.5C 577.236,472.053 574.569,465.719 571.5,459.5C 562.438,442.946 548.771,432.113 530.5,427C 525.787,426.163 521.12,425.33 516.5,424.5C 514.708,423.691 512.708,423.191 510.5,423C 511.483,414.585 511.817,406.085 511.5,397.5C 536.25,397.233 560.917,397.233 585.5,397.5 Z"/></g>
<g><path style="opacity:1" fill="#f9f9f9" d="M 732.5,397.5 C 732.5,411.167 732.5,424.833 732.5,438.5C 717.522,446.304 714.022,457.638 722,472.5C 723.371,474.041 724.871,475.375 726.5,476.5C 704.34,477.497 682.006,477.831 659.5,477.5C 659.667,503.835 659.5,530.169 659,556.5C 655.27,557.46 651.437,557.793 647.5,557.5C 647.5,535.167 647.5,512.833 647.5,490.5C 648.504,484.154 650.504,478.154 653.5,472.5C 664.608,459.016 678.941,454.016 696.5,457.5C 697.568,458.434 698.901,458.768 700.5,458.5C 700.828,447.654 700.494,436.987 699.5,426.5C 683.768,422.58 669.768,425.913 657.5,436.5C 657.933,433.834 658.433,431.168 659,428.5C 659.363,418.076 659.53,407.743 659.5,397.5C 683.948,396.985 708.282,396.985 732.5,397.5 Z"/></g>
<g><path style="opacity:1" fill="#f2f2f3" d="M 805.5,387.5 C 806.687,390.946 807.354,394.613 807.5,398.5C 807.333,414.503 807.5,430.503 808,446.5C 809.305,462.127 816.472,474.127 829.5,482.5C 826.239,484.949 823.239,487.616 820.5,490.5C 818.016,492.8 816.016,495.467 814.5,498.5C 810.167,506.517 807.834,515.184 807.5,524.5C 807.167,524.5 806.833,524.5 806.5,524.5C 807.213,519.652 807.047,514.985 806,510.5C 805.5,499.505 805.333,488.505 805.5,477.5C 787.423,477.819 769.423,477.486 751.5,476.5C 762.088,464.969 762.088,453.469 751.5,442C 745.529,439.015 739.196,437.849 732.5,438.5C 732.5,424.833 732.5,411.167 732.5,397.5C 756.482,397.395 780.815,397.395 805.5,397.5C 805.5,394.167 805.5,390.833 805.5,387.5 Z"/></g>
<g><path style="opacity:1" fill="#f3f2f3" d="M 952.5,397.5 C 952.5,424.167 952.5,450.833 952.5,477.5C 928.167,477.5 903.833,477.5 879.5,477.5C 879.5,450.833 879.5,424.167 879.5,397.5C 903.496,397.188 927.829,397.188 952.5,397.5 Z"/></g>
<g><path style="opacity:1" fill="#f9faf9" d="M 952.5,397.5 C 976.167,397.5 999.833,397.5 1023.5,397.5C 1023.5,424.167 1023.5,450.833 1023.5,477.5C 999.833,477.5 976.167,477.5 952.5,477.5C 952.5,450.833 952.5,424.167 952.5,397.5 Z"/></g>
<g><path style="opacity:1" fill="#1694d5" d="M 179.5,384.5 C 180.472,396.152 180.472,407.819 179.5,419.5C 179.55,425.01 180.217,430.343 181.5,435.5C 181.652,437.682 181.319,440.016 180.5,442.5C 180.667,443.5 180.833,444.5 181,445.5C 181.78,444.179 182.28,442.679 182.5,441C 182.85,439.743 183.517,439.409 184.5,440C 184.097,443.737 182.597,446.904 180,449.5C 179.583,448.244 178.75,447.577 177.5,447.5C 178.423,428.187 178.756,408.853 178.5,389.5C 178.216,387.585 178.549,385.919 179.5,384.5 Z"/></g>
<g><path style="opacity:1" fill="#068bd3" d="M 699.5,426.5 C 699.5,436.833 699.5,447.167 699.5,457.5C 698.5,457.5 697.5,457.5 696.5,457.5C 678.941,454.016 664.608,459.016 653.5,472.5C 652.886,470.717 651.72,469.384 650,468.5C 650.188,464.768 648.688,461.934 645.5,460C 646.517,458.951 646.684,457.784 646,456.5C 644.951,457.517 643.784,457.684 642.5,457C 642.912,455.436 643.245,453.936 643.5,452.5C 644.492,452.672 645.158,452.338 645.5,451.5C 648.74,445.923 652.74,440.923 657.5,436.5C 669.768,425.913 683.768,422.58 699.5,426.5 Z"/></g>
<g><path style="opacity:1" fill="#0b8ad4" d="M 643.5,428.5 C 643.5,436.5 643.5,444.5 643.5,452.5C 643.245,453.936 642.912,455.436 642.5,457C 643.784,457.684 644.951,457.517 646,456.5C 646.684,457.784 646.517,458.951 645.5,460C 648.688,461.934 650.188,464.768 650,468.5C 651.72,469.384 652.886,470.717 653.5,472.5C 650.504,478.154 648.504,484.154 647.5,490.5C 646.502,519.662 646.169,548.995 646.5,578.5C 634.833,578.5 623.167,578.5 611.5,578.5C 611.5,576.5 611.5,574.5 611.5,572.5C 611.5,540.833 611.5,509.167 611.5,477.5C 611.5,461.167 611.5,444.833 611.5,428.5C 622.167,428.5 632.833,428.5 643.5,428.5 Z"/></g>
<g><path style="opacity:1" fill="#0b8dd4" d="M 516.5,424.5 C 521.12,425.33 525.787,426.163 530.5,427C 548.771,432.113 562.438,442.946 571.5,459.5C 568.592,460.159 568.258,460.993 570.5,462C 569.584,462.374 568.75,462.874 568,463.5C 567.282,462.549 566.449,462.383 565.5,463C 564.37,465.428 562.87,467.595 561,469.5C 560.667,468.833 560.333,468.167 560,467.5C 558.601,467.501 557.101,467.835 555.5,468.5C 554.479,469.002 554.312,469.668 555,470.5C 555.893,469.289 556.726,469.289 557.5,470.5C 556.271,471.281 554.938,471.781 553.5,472C 553.5,473.333 553.5,474.667 553.5,476C 551.36,476.973 549.693,478.473 548.5,480.5C 546.786,479.391 546.119,480.058 546.5,482.5C 546.167,482.5 545.833,482.5 545.5,482.5C 543.789,467.591 535.789,457.758 521.5,453C 494.925,446.483 477.258,455.983 468.5,481.5C 466.682,480.751 465.349,478.918 464.5,476C 462.973,474.632 461.473,474.132 460,474.5C 458.632,473.007 458.465,471.507 459.5,470C 455.183,468.523 452.517,465.689 451.5,461.5C 449.019,461.677 447.186,460.677 446,458.5C 445.617,459.056 445.117,459.389 444.5,459.5C 445.809,456.222 447.642,453.222 450,450.5C 467.716,430.756 489.882,422.089 516.5,424.5 Z"/></g>
<g><path style="opacity:1" fill="#0e8dd5" d="M 732.5,438.5 C 739.196,437.849 745.529,439.015 751.5,442C 762.088,453.469 762.088,464.969 751.5,476.5C 745.16,479.196 738.493,480.196 731.5,479.5C 730.035,478.263 728.368,477.263 726.5,476.5C 724.871,475.375 723.371,474.041 722,472.5C 714.022,457.638 717.522,446.304 732.5,438.5 Z"/></g>
<g><path style="opacity:1" fill="#6cb9e0" d="M 643.5,428.5 C 644.167,436.167 644.833,443.833 645.5,451.5C 645.158,452.338 644.492,452.672 643.5,452.5C 643.5,444.5 643.5,436.5 643.5,428.5 Z"/></g>
<g><path style="opacity:1" fill="#97cfe9" d="M 699.5,426.5 C 700.494,436.987 700.828,447.654 700.5,458.5C 698.901,458.768 697.568,458.434 696.5,457.5C 697.5,457.5 698.5,457.5 699.5,457.5C 699.5,447.167 699.5,436.833 699.5,426.5 Z"/></g>
<g><path style="opacity:1" fill="#f5f6f6" d="M 545.5,482.5 C 545.5,484.5 545.5,486.5 545.5,488.5C 519.833,488.5 494.167,488.5 468.5,488.5C 468.5,486.833 468.5,485.167 468.5,483.5C 468.5,482.833 468.5,482.167 468.5,481.5C 477.258,455.983 494.925,446.483 521.5,453C 535.789,457.758 543.789,467.591 545.5,482.5 Z"/></g>
<g><path style="opacity:1" fill="#0c90d7" d="M 293.5,480.5 C 291.078,487.413 290.078,494.579 290.5,502C 290.203,511.757 291.537,521.257 294.5,530.5C 293.549,531.919 293.216,533.585 293.5,535.5C 291.227,534.265 289.394,534.598 288,536.5C 287.282,535.549 286.449,535.383 285.5,536C 283.232,538.032 283.898,539.365 287.5,540C 285.474,541.959 283.308,542.793 281,542.5C 280.56,544.076 279.727,545.41 278.5,546.5C 279.326,547.451 279.492,548.451 279,549.5C 278.667,549.167 278.333,548.833 278,548.5C 275.082,551.194 272.582,554.194 270.5,557.5C 269.833,557.167 269.167,556.833 268.5,556.5C 264.966,550.096 261.966,543.43 259.5,536.5C 261.379,536.607 261.712,536.107 260.5,535C 262.353,533.269 263.019,531.436 262.5,529.5C 264.149,530.648 265.649,531.981 267,533.5C 268.609,532.853 270.109,532.02 271.5,531C 271.307,529.355 271.14,527.521 271,525.5C 269.982,526.706 269.482,526.373 269.5,524.5C 271.195,521.965 272.695,519.298 274,516.5C 273.976,520.585 273.976,524.919 274,529.5C 274.691,527.109 275.691,527.109 277,529.5C 277.993,526.692 278.827,523.859 279.5,521C 278.692,520.692 278.025,520.192 277.5,519.5C 279.197,518.636 280.363,517.303 281,515.5C 282.635,516.849 284.135,516.682 285.5,515C 284.672,514.085 283.672,513.419 282.5,513C 284.09,511.954 285.59,510.787 287,509.5C 287.667,510.167 288.333,510.833 289,511.5C 289.667,504.833 289.667,498.167 289,491.5C 288.612,492.428 287.945,493.095 287,493.5C 285.51,492.683 284.01,491.85 282.5,491C 284.259,490.02 285.926,489.353 287.5,489C 286.809,487.933 286.309,486.766 286,485.5C 284.984,486.634 284.317,486.301 284,484.5C 282.951,485.517 281.784,485.684 280.5,485C 280.616,483.732 280.949,482.398 281.5,481C 279.91,479.954 278.41,478.787 277,477.5C 276.555,479.594 277.388,481.094 279.5,482C 274.898,483.538 274.565,485.538 278.5,488C 275.43,488.992 272.43,488.659 269.5,487C 271.125,487.853 271.458,488.853 270.5,490C 271.623,491.044 272.956,491.71 274.5,492C 273.975,492.692 273.308,493.192 272.5,493.5C 271.284,492.998 270.117,492.665 269,492.5C 268.217,494.433 268.717,495.933 270.5,497C 269.08,498.53 268.08,500.363 267.5,502.5C 266.184,499.972 265.017,499.972 264,502.5C 263.549,500.071 262.715,499.904 261.5,502C 263.957,503.512 263.957,504.846 261.5,506C 262.451,506.718 262.617,507.551 262,508.5C 260.989,507.663 259.822,507.33 258.5,507.5C 256.804,506.575 257.471,508.241 260.5,512.5C 259.081,514.127 259.414,514.627 261.5,514C 263.274,510.985 263.774,511.485 263,515.5C 261.333,516.167 259.667,516.833 258,517.5C 257.28,515.888 257.446,514.388 258.5,513C 257.552,512.517 256.552,512.351 255.5,512.5C 254.122,500.837 254.456,489.17 256.5,477.5C 258.814,469.205 262.481,461.538 267.5,454.5C 267.369,455.239 267.536,455.906 268,456.5C 268.368,455.09 269.201,454.09 270.5,453.5C 270.19,455.201 270.69,456.868 272,458.5C 273.363,456.216 274.863,456.049 276.5,458C 275.747,459.487 274.914,459.654 274,458.5C 273.626,459.416 273.126,460.25 272.5,461C 273.678,461.967 275.011,462.467 276.5,462.5C 276.023,463.478 275.357,464.311 274.5,465C 279.46,465.073 281.46,467.573 280.5,472.5C 281.978,472.762 283.311,472.429 284.5,471.5C 283.494,470.604 283.494,469.938 284.5,469.5C 285.382,470.76 286.382,471.926 287.5,473C 284.913,474.525 284.08,476.692 285,479.5C 285.667,480.833 286.333,480.833 287,479.5C 287.483,478.552 287.649,477.552 287.5,476.5C 288.552,476.351 289.552,476.517 290.5,477C 290.974,478.729 291.974,479.895 293.5,480.5 Z"/></g>
<g><path style="opacity:1" fill="#f1f2f2" d="M 363.5,477.5 C 340.34,477.557 317.34,477.557 294.5,477.5C 299.104,466.396 307.104,458.896 318.5,455C 339.527,451.034 354.527,458.534 363.5,477.5 Z"/></g>
<g><path style="opacity:1" fill="#058bd4" d="M 468.5,481.5 C 468.5,482.167 468.5,482.833 468.5,483.5C 467.539,485.265 467.205,487.265 467.5,489.5C 493.661,490.498 519.995,490.831 546.5,490.5C 546.5,487.833 546.5,485.167 546.5,482.5C 546.119,480.058 546.786,479.391 548.5,480.5C 549.693,478.473 551.36,476.973 553.5,476C 553.5,474.667 553.5,473.333 553.5,472C 554.938,471.781 556.271,471.281 557.5,470.5C 556.726,469.289 555.893,469.289 555,470.5C 554.312,469.668 554.479,469.002 555.5,468.5C 557.101,467.835 558.601,467.501 560,467.5C 560.333,468.167 560.667,468.833 561,469.5C 562.87,467.595 564.37,465.428 565.5,463C 566.449,462.383 567.282,462.549 568,463.5C 568.75,462.874 569.584,462.374 570.5,462C 568.258,460.993 568.592,460.159 571.5,459.5C 574.569,465.719 577.236,472.053 579.5,478.5C 581.219,489.747 581.886,501.08 581.5,512.5C 543.167,512.5 504.833,512.5 466.5,512.5C 466.232,514.099 466.566,515.432 467.5,516.5C 468.372,534.013 476.706,546.346 492.5,553.5C 510.711,560.159 526.544,556.492 540,542.5C 541.753,539.995 543.253,537.329 544.5,534.5C 555.833,533.167 567.167,533.167 578.5,534.5C 575.622,542.589 571.955,550.255 567.5,557.5C 552.986,573.804 534.653,582.471 512.5,583.5C 469.272,583.773 443.105,562.773 434,520.5C 433.296,508.148 433.463,495.815 434.5,483.5C 435.839,479.151 437.172,474.818 438.5,470.5C 440.126,466.616 442.126,462.949 444.5,459.5C 445.117,459.389 445.617,459.056 446,458.5C 447.186,460.677 449.019,461.677 451.5,461.5C 452.517,465.689 455.183,468.523 459.5,470C 458.465,471.507 458.632,473.007 460,474.5C 461.473,474.132 462.973,474.632 464.5,476C 465.349,478.918 466.682,480.751 468.5,481.5 Z"/></g>
<g><path style="opacity:1" fill="#f9f9f9" d="M 751.5,476.5 C 769.423,477.486 787.423,477.819 805.5,477.5C 805.333,488.505 805.5,499.505 806,510.5C 807.047,514.985 807.213,519.652 806.5,524.5C 806.5,525.833 806.5,527.167 806.5,528.5C 805.506,537.986 805.173,547.652 805.5,557.5C 789.937,556.949 774.27,556.949 758.5,557.5C 758.5,556.833 758.5,556.167 758.5,555.5C 758.5,546.167 758.5,536.833 758.5,527.5C 749.342,526.67 740.009,526.17 730.5,526C 731.302,518.9 731.968,511.734 732.5,504.5C 731.681,496.151 731.348,487.817 731.5,479.5C 738.493,480.196 745.16,479.196 751.5,476.5 Z"/></g>
<g><path style="opacity:1" fill="#0a8ed6" d="M 837.5,375.5 C 838.314,377.631 838.814,379.964 839,382.5C 839.168,402.671 839.668,422.671 840.5,442.5C 840.808,446.595 841.641,450.595 843,454.5C 847.758,466.306 856.591,471.639 869.5,470.5C 870.469,478.748 870.802,487.082 870.5,495.5C 859.485,494.731 850.819,498.731 844.5,507.5C 843.791,506.596 842.791,506.263 841.5,506.5C 841.649,507.552 841.483,508.552 841,509.5C 838.966,507.968 836.799,506.635 834.5,505.5C 833.914,505.709 833.414,506.043 833,506.5C 832.333,504.833 832.333,503.167 833,501.5C 833.333,501.833 833.667,502.167 834,502.5C 834.374,501.584 834.874,500.75 835.5,500C 833.5,500 831.5,500 829.5,500C 828.051,496.727 826.051,493.894 823.5,491.5C 822.675,490.614 821.675,490.281 820.5,490.5C 823.239,487.616 826.239,484.949 829.5,482.5C 816.472,474.127 809.305,462.127 808,446.5C 807.5,430.503 807.333,414.503 807.5,398.5C 808.016,413.813 808.849,429.147 810,444.5C 810.492,443.451 810.326,442.451 809.5,441.5C 810.167,440.167 810.833,438.833 811.5,437.5C 809.913,435.554 810.246,434.054 812.5,433C 811.833,432.667 811.167,432.333 810.5,432C 811.833,430.667 811.833,429.333 810.5,428C 813.167,427.333 813.167,426.667 810.5,426C 809.46,419.727 809.46,413.227 810.5,406.5C 811.262,407.628 811.929,408.795 812.5,410C 811.475,413.271 811.475,416.271 812.5,419C 813,419.5 813.5,420 814,420.5C 815,420.167 816,419.833 817,419.5C 818.08,417.004 819.414,414.67 821,412.5C 822.5,414.333 824,416.167 825.5,418C 826.332,418.688 826.998,418.521 827.5,417.5C 828.128,415.742 829.128,414.242 830.5,413C 828.819,411.055 828.152,409.055 828.5,407C 826.983,405.221 826.149,405.721 826,408.5C 825.833,407.833 825.667,407.167 825.5,406.5C 826.79,404.208 828.457,402.208 830.5,400.5C 831.931,400.977 833.264,401.643 834.5,402.5C 833.494,403.396 833.494,404.062 834.5,404.5C 835.814,403.687 836.981,402.687 838,401.5C 838.667,395.833 838.667,390.167 838,384.5C 837.781,383.062 837.281,381.729 836.5,380.5C 836.167,380.667 835.833,380.833 835.5,381C 833.47,384.765 831.637,388.598 830,392.5C 829.586,392.043 829.086,391.709 828.5,391.5C 827.406,393.836 826.073,393.836 824.5,391.5C 826.078,390.702 827.744,390.202 829.5,390C 826.054,388.037 826.054,386.704 829.5,386C 828.167,385.333 828.167,384.667 829.5,384C 828.833,383.667 828.167,383.333 827.5,383C 829.125,382.147 829.458,381.147 828.5,380C 829.742,379.689 830.742,380.189 831.5,381.5C 833.167,380.5 834.5,379.167 835.5,377.5C 836.192,378.025 836.692,378.692 837,379.5C 837.49,378.207 837.657,376.873 837.5,375.5 Z"/></g>
<g><path style="opacity:1" fill="#f9faf9" d="M -0.5,477.5 C 23.5,477.5 47.5,477.5 71.5,477.5C 71.5,504.167 71.5,530.833 71.5,557.5C 47.0198,556.46 23.0198,556.46 -0.5,557.5C -0.5,530.833 -0.5,504.167 -0.5,477.5 Z"/></g>
<g><path style="opacity:1" fill="#f3f2f3" d="M 71.5,477.5 C 95.7414,477.172 119.908,477.506 144,478.5C 144.19,484.416 144.69,490.249 145.5,496C 144.507,516.424 144.173,536.924 144.5,557.5C 120.167,557.5 95.8333,557.5 71.5,557.5C 71.5,530.833 71.5,504.167 71.5,477.5 Z"/></g>
<g><path style="opacity:1" fill="#f2f2f3" d="M 218.5,477.5 C 231.167,477.5 243.833,477.5 256.5,477.5C 254.456,489.17 254.122,500.837 255.5,512.5C 255.377,520.897 256.71,528.897 259.5,536.5C 261.966,543.43 264.966,550.096 268.5,556.5C 267.213,557.768 266.213,557.435 265.5,555.5C 264.692,555.808 264.025,556.308 263.5,557C 247.969,557.341 233.135,557.508 219,557.5C 218.5,530.835 218.333,504.169 218.5,477.5 Z"/></g>
<g><path style="opacity:1" fill="#f8f9f9" d="M 294.5,477.5 C 317.34,477.557 340.34,477.557 363.5,477.5C 367.126,488.493 368.459,499.826 367.5,511.5C 366.409,519.863 364.076,527.863 360.5,535.5C 357.071,540.764 352.738,545.264 347.5,549C 324.165,558.391 306.498,552.224 294.5,530.5C 291.537,521.257 290.203,511.757 290.5,502C 290.078,494.579 291.078,487.413 293.5,480.5C 293.263,479.209 293.596,478.209 294.5,477.5 Z"/></g>
<g><path style="opacity:1" fill="#f9faf9" d="M 585.5,477.5 C 594.167,477.5 602.833,477.5 611.5,477.5C 611.5,509.167 611.5,540.833 611.5,572.5C 610.715,569.17 609.715,565.837 608.5,562.5C 608.79,560.956 609.456,559.623 610.5,558.5C 602.193,557.502 593.86,557.169 585.5,557.5C 585.158,530.711 585.158,504.044 585.5,477.5 Z"/></g>
<g><path style="opacity:1" fill="#f1f2f2" d="M 869.5,470.5 C 871.304,477.432 872.137,484.765 872,492.5C 872.499,487.511 872.666,482.511 872.5,477.5C 874.833,477.5 877.167,477.5 879.5,477.5C 878.9,503.914 878.733,530.247 879,556.5C 866.246,557.489 853.413,557.822 840.5,557.5C 840.823,563.69 840.49,569.69 839.5,575.5C 839.333,558.497 839.5,541.497 840,524.5C 840.557,518.536 842.057,512.869 844.5,507.5C 850.819,498.731 859.485,494.731 870.5,495.5C 870.802,487.082 870.469,478.748 869.5,470.5 Z"/></g>
<g><path style="opacity:1" fill="#f3f3f3" d="M 952.5,477.5 C 976.167,477.5 999.833,477.5 1023.5,477.5C 1023.5,504.167 1023.5,530.833 1023.5,557.5C 999.833,557.5 976.167,557.5 952.5,557.5C 953.08,530.972 953.08,504.306 952.5,477.5 Z"/></g>
<g><path style="opacity:1" fill="#0389d4" d="M 259.5,536.5 C 256.71,528.897 255.377,520.897 255.5,512.5C 256.552,512.351 257.552,512.517 258.5,513C 257.446,514.388 257.28,515.888 258,517.5C 259.667,516.833 261.333,516.167 263,515.5C 263.774,511.485 263.274,510.985 261.5,514C 259.414,514.627 259.081,514.127 260.5,512.5C 257.471,508.241 256.804,506.575 258.5,507.5C 259.822,507.33 260.989,507.663 262,508.5C 262.617,507.551 262.451,506.718 261.5,506C 263.957,504.846 263.957,503.512 261.5,502C 262.715,499.904 263.549,500.071 264,502.5C 265.017,499.972 266.184,499.972 267.5,502.5C 268.08,500.363 269.08,498.53 270.5,497C 268.717,495.933 268.217,494.433 269,492.5C 270.117,492.665 271.284,492.998 272.5,493.5C 273.308,493.192 273.975,492.692 274.5,492C 272.956,491.71 271.623,491.044 270.5,490C 271.458,488.853 271.125,487.853 269.5,487C 272.43,488.659 275.43,488.992 278.5,488C 274.565,485.538 274.898,483.538 279.5,482C 277.388,481.094 276.555,479.594 277,477.5C 278.41,478.787 279.91,479.954 281.5,481C 280.949,482.398 280.616,483.732 280.5,485C 281.784,485.684 282.951,485.517 284,484.5C 284.317,486.301 284.984,486.634 286,485.5C 286.309,486.766 286.809,487.933 287.5,489C 285.926,489.353 284.259,490.02 282.5,491C 284.01,491.85 285.51,492.683 287,493.5C 287.945,493.095 288.612,492.428 289,491.5C 289.667,498.167 289.667,504.833 289,511.5C 288.333,510.833 287.667,510.167 287,509.5C 285.59,510.787 284.09,511.954 282.5,513C 283.672,513.419 284.672,514.085 285.5,515C 284.135,516.682 282.635,516.849 281,515.5C 280.363,517.303 279.197,518.636 277.5,519.5C 278.025,520.192 278.692,520.692 279.5,521C 278.827,523.859 277.993,526.692 277,529.5C 275.691,527.109 274.691,527.109 274,529.5C 273.976,524.919 273.976,520.585 274,516.5C 272.695,519.298 271.195,521.965 269.5,524.5C 269.482,526.373 269.982,526.706 271,525.5C 271.14,527.521 271.307,529.355 271.5,531C 270.109,532.02 268.609,532.853 267,533.5C 265.649,531.981 264.149,530.648 262.5,529.5C 263.019,531.436 262.353,533.269 260.5,535C 261.712,536.107 261.379,536.607 259.5,536.5 Z"/></g>
<g><path style="opacity:1" fill="#57afdf" d="M 152.5,471.5 C 151.432,472.434 150.099,472.768 148.5,472.5C 148.5,480.167 148.5,487.833 148.5,495.5C 150.735,495.205 152.735,495.539 154.5,496.5C 152.167,496.5 149.833,496.5 147.5,496.5C 147.5,489.833 147.5,483.167 147.5,476.5C 147.5,474.833 147.5,473.167 147.5,471.5C 149.167,471.5 150.833,471.5 152.5,471.5 Z"/></g>
<g><path style="opacity:1" fill="#d0e0ea" d="M 468.5,483.5 C 468.5,485.167 468.5,486.833 468.5,488.5C 494.167,488.5 519.833,488.5 545.5,488.5C 519.672,489.498 493.672,489.831 467.5,489.5C 467.205,487.265 467.539,485.265 468.5,483.5 Z"/></g>
<g><path style="opacity:1" fill="#55aee0" d="M 545.5,482.5 C 545.833,482.5 546.167,482.5 546.5,482.5C 546.5,485.167 546.5,487.833 546.5,490.5C 519.995,490.831 493.661,490.498 467.5,489.5C 493.672,489.831 519.672,489.498 545.5,488.5C 545.5,486.5 545.5,484.5 545.5,482.5 Z"/></g>
<g><path style="opacity:1" fill="#058bd4" d="M 218.5,340.5 C 226.167,340.5 233.833,340.5 241.5,340.5C 241.5,349.5 241.5,358.5 241.5,367.5C 222.818,364.026 212.652,371.693 211,390.5C 210.667,409.833 210.333,429.167 210,448.5C 208.274,459.923 203.44,469.59 195.5,477.5C 193.372,479.403 191.039,481.069 188.5,482.5C 198.993,489.507 205.827,499.173 209,511.5C 210.257,531.129 210.924,550.796 211,570.5C 211.746,577.724 213.413,584.724 216,591.5C 219.34,596.087 223.84,598.42 229.5,598.5C 232.962,599.482 236.629,599.815 240.5,599.5C 240.5,608.167 240.5,616.833 240.5,625.5C 233.167,625.5 225.833,625.5 218.5,625.5C 201.267,624.648 189.433,616.315 183,600.5C 181.04,594.291 179.707,587.957 179,581.5C 178.832,561.329 178.332,541.329 177.5,521.5C 176.392,507.061 168.725,498.727 154.5,496.5C 152.735,495.539 150.735,495.205 148.5,495.5C 148.5,487.833 148.5,480.167 148.5,472.5C 150.099,472.768 151.432,472.434 152.5,471.5C 167.373,470.294 175.706,462.294 177.5,447.5C 178.75,447.577 179.583,448.244 180,449.5C 182.597,446.904 184.097,443.737 184.5,440C 183.517,439.409 182.85,439.743 182.5,441C 182.28,442.679 181.78,444.179 181,445.5C 180.833,444.5 180.667,443.5 180.5,442.5C 181.319,440.016 181.652,437.682 181.5,435.5C 180.217,430.343 179.55,425.01 179.5,419.5C 180.472,407.819 180.472,396.152 179.5,384.5C 179.335,381.15 179.502,377.817 180,374.5C 183.97,353.026 196.803,341.692 218.5,340.5 Z"/></g>
<g><path style="opacity:1" fill="#068fd4" d="M 814.5,498.5 C 815.445,501.14 815.612,503.806 815,506.5C 815.833,505 817,503.833 818.5,503C 817.483,501.951 817.316,500.784 818,499.5C 818.69,501.673 820.524,503.34 823.5,504.5C 825.473,507.173 826.639,509.84 827,512.5C 827.333,511.833 827.667,511.167 828,510.5C 829.113,511.711 830.28,511.711 831.5,510.5C 832.646,511.145 833.646,511.978 834.5,513C 832.792,514.51 831.126,516.01 829.5,517.5C 830.874,521.313 831.707,520.98 832,516.5C 832.36,518.421 833.194,520.088 834.5,521.5C 831.985,522.2 831.318,523.533 832.5,525.5C 831.959,527.535 831.292,529.535 830.5,531.5C 829.808,530.975 829.308,530.308 829,529.5C 828.555,531.594 829.388,533.094 831.5,534C 830.376,534.249 829.376,534.749 828.5,535.5C 829.952,537.979 829.452,539.979 827,541.5C 826.228,541.355 825.561,541.022 825,540.5C 824.797,543.661 826.297,545.828 829.5,547C 827.293,548.632 824.96,548.632 822.5,547C 823.246,544.907 823.579,542.907 823.5,541C 823,540.5 822.5,540 822,539.5C 821.333,540.833 820.667,542.167 820,543.5C 818.883,543.335 817.716,543.002 816.5,542.5C 815.808,543.025 815.308,543.692 815,544.5C 814.282,543.549 813.449,543.383 812.5,544C 814.348,545.493 815.181,547.326 815,549.5C 814.667,548.833 814.333,548.167 814,547.5C 812.434,546.939 811.101,547.606 810,549.5C 808.524,546.848 809.024,544.348 811.5,542C 810.212,542.027 809.212,541.027 808.5,539C 809.218,536.539 809.885,534.039 810.5,531.5C 810.37,529.577 810.036,527.744 809.5,526C 811.225,523.494 813.225,522.161 815.5,522C 813.979,519.088 811.813,518.254 809,519.5C 808.828,525.681 808.328,531.681 807.5,537.5C 807.5,533.167 807.5,528.833 807.5,524.5C 807.834,515.184 810.167,506.517 814.5,498.5 Z"/></g>
<g><path style="opacity:1" fill="#68b4df" d="M 401.5,425.5 C 401.5,425.833 401.5,426.167 401.5,426.5C 401.5,477.167 401.5,527.833 401.5,578.5C 401.167,578.5 400.833,578.5 400.5,578.5C 400.5,507.5 400.5,436.5 400.5,365.5C 389.5,365.5 378.5,365.5 367.5,365.5C 367.833,393.175 367.5,420.841 366.5,448.5C 365.702,448.043 365.369,447.376 365.5,446.5C 366.485,442.366 366.818,438.032 366.5,433.5C 366.5,423.5 366.5,413.5 366.5,403.5C 366.5,390.5 366.5,377.5 366.5,364.5C 378.167,364.5 389.833,364.5 401.5,364.5C 401.5,384.833 401.5,405.167 401.5,425.5 Z"/></g>
<g><path style="opacity:1" fill="#078fd5" d="M 367.5,511.5 C 371.892,511.607 376.225,511.774 380.5,512C 381.5,513 382.5,514 383.5,515C 382.167,515.667 382.167,516.333 383.5,517C 382.285,519.096 381.451,518.929 381,516.5C 380.333,517.833 379.667,517.833 379,516.5C 378.51,517.793 378.343,519.127 378.5,520.5C 379.93,520.421 381.264,520.754 382.5,521.5C 383.251,520.624 383.751,519.624 384,518.5C 384.317,520.301 384.984,520.634 386,519.5C 387.403,521.198 389.236,521.698 391.5,521C 390.299,521.903 389.465,523.069 389,524.5C 386.24,520.871 384.406,521.038 383.5,525C 384.815,526.395 384.481,527.395 382.5,528C 386.272,529.83 385.939,531.33 381.5,532.5C 384.498,536.502 383.831,537.668 379.5,536C 381,533.833 380.5,532.333 378,531.5C 376.629,532.581 375.129,533.415 373.5,534C 376.051,535.516 375.718,536.349 372.5,536.5C 373.013,538.29 373.513,539.956 374,541.5C 373.667,541.167 373.333,540.833 373,540.5C 371.215,541.24 369.382,541.907 367.5,542.5C 367.94,541.047 367.274,539.881 365.5,539C 365.833,538.667 366.167,538.333 366.5,538C 365.333,537.5 364.5,536.667 364,535.5C 363.014,536.171 361.847,536.171 360.5,535.5C 364.076,527.863 366.409,519.863 367.5,511.5 Z"/></g>
<g><path style="opacity:1" fill="#89bfe1" d="M 581.5,512.5 C 561.674,513.497 541.674,513.83 521.5,513.5C 503.5,513.5 485.5,513.5 467.5,513.5C 467.5,514.5 467.5,515.5 467.5,516.5C 466.566,515.432 466.232,514.099 466.5,512.5C 504.833,512.5 543.167,512.5 581.5,512.5 Z"/></g>
<g><path style="opacity:1" fill="#f9f9f9" d="M 521.5,513.5 C 518.834,513.98 516.334,514.98 514,516.5C 513.667,516.167 513.333,515.833 513,515.5C 511.761,528.374 511.594,541.374 512.5,554.5C 513.552,554.351 514.552,554.517 515.5,555C 507.756,555.648 500.09,555.148 492.5,553.5C 476.706,546.346 468.372,534.013 467.5,516.5C 467.5,515.5 467.5,514.5 467.5,513.5C 485.5,513.5 503.5,513.5 521.5,513.5 Z"/></g>
<g><path style="opacity:1" fill="#f1f2f2" d="M 585.5,477.5 C 585.158,504.044 585.158,530.711 585.5,557.5C 579.5,557.5 573.5,557.5 567.5,557.5C 571.955,550.255 575.622,542.589 578.5,534.5C 567.167,533.167 555.833,533.167 544.5,534.5C 543.253,537.329 541.753,539.995 540,542.5C 526.544,556.492 510.711,560.159 492.5,553.5C 500.09,555.148 507.756,555.648 515.5,555C 514.552,554.517 513.552,554.351 512.5,554.5C 511.594,541.374 511.761,528.374 513,515.5C 513.333,515.833 513.667,516.167 514,516.5C 516.334,514.98 518.834,513.98 521.5,513.5C 541.674,513.83 561.674,513.497 581.5,512.5C 581.886,501.08 581.219,489.747 579.5,478.5C 580.117,478.611 580.617,478.944 581,479.5C 582.33,478.418 583.83,477.751 585.5,477.5 Z"/></g>
<g><path style="opacity:1" fill="#0990d4" d="M 727.5,527.5 C 730.34,528.082 732.673,529.582 734.5,532C 733.833,532.667 733.167,533.333 732.5,534C 733.833,535 733.833,536 732.5,537C 736.578,539.459 736.245,541.292 731.5,542.5C 728.527,541.307 728.027,541.973 730,544.5C 732.292,543.399 733.792,544.232 734.5,547C 731.553,547.112 730.22,548.612 730.5,551.5C 727.477,551.412 724.81,550.412 722.5,548.5C 721.808,549.025 721.308,549.692 721,550.5C 721.502,547.807 721.335,545.14 720.5,542.5C 721.04,541.252 721.707,540.085 722.5,539C 722.43,537.376 721.93,535.543 721,533.5C 719.552,543.061 719.052,552.727 719.5,562.5C 724.363,562.181 729.03,562.514 733.5,563.5C 728.5,563.5 723.5,563.5 718.5,563.5C 718.5,551.5 718.5,539.5 718.5,527.5C 721.5,527.5 724.5,527.5 727.5,527.5 Z"/></g>
<g><path style="opacity:1" fill="#0089d4" d="M 727.5,527.5 C 737.833,527.5 748.167,527.5 758.5,527.5C 758.5,536.833 758.5,546.167 758.5,555.5C 757.71,556.609 757.21,557.942 757,559.5C 755.802,556.634 753.635,554.8 750.5,554C 752.158,553.275 752.658,552.108 752,550.5C 751.228,551.849 750.061,552.682 748.5,553C 749.081,555.664 750.747,557.998 753.5,560C 750.398,561.614 750.064,563.447 752.5,565.5C 751.833,565.833 751.167,566.167 750.5,566.5C 751.742,568.79 753.408,570.623 755.5,572C 754.667,572.833 753.833,573.667 753,574.5C 752.612,573.572 751.945,572.905 751,572.5C 749.838,573.187 748.672,573.353 747.5,573C 746.352,571.351 745.019,569.851 743.5,568.5C 742.725,570.475 741.391,571.309 739.5,571C 739.833,570.667 740.167,570.333 740.5,570C 738.871,565.871 736.537,565.038 733.5,567.5C 733.5,566.167 733.5,564.833 733.5,563.5C 729.03,562.514 724.363,562.181 719.5,562.5C 719.052,552.727 719.552,543.061 721,533.5C 721.93,535.543 722.43,537.376 722.5,539C 721.707,540.085 721.04,541.252 720.5,542.5C 721.335,545.14 721.502,547.807 721,550.5C 721.308,549.692 721.808,549.025 722.5,548.5C 724.81,550.412 727.477,551.412 730.5,551.5C 730.22,548.612 731.553,547.112 734.5,547C 733.792,544.232 732.292,543.399 730,544.5C 728.027,541.973 728.527,541.307 731.5,542.5C 736.245,541.292 736.578,539.459 732.5,537C 733.833,536 733.833,535 732.5,534C 733.167,533.333 733.833,532.667 734.5,532C 732.673,529.582 730.34,528.082 727.5,527.5 Z"/></g>
<g><path style="opacity:1" fill="#058bd5" d="M 820.5,490.5 C 821.675,490.281 822.675,490.614 823.5,491.5C 826.051,493.894 828.051,496.727 829.5,500C 831.5,500 833.5,500 835.5,500C 834.874,500.75 834.374,501.584 834,502.5C 833.667,502.167 833.333,501.833 833,501.5C 832.333,503.167 832.333,504.833 833,506.5C 833.414,506.043 833.914,505.709 834.5,505.5C 836.799,506.635 838.966,507.968 841,509.5C 841.483,508.552 841.649,507.552 841.5,506.5C 842.791,506.263 843.791,506.596 844.5,507.5C 842.057,512.869 840.557,518.536 840,524.5C 839.5,541.497 839.333,558.497 839.5,575.5C 839.641,590.824 834.974,604.324 825.5,616C 819.399,620.552 812.732,623.719 805.5,625.5C 795.833,625.5 786.167,625.5 776.5,625.5C 776.5,616.833 776.5,608.167 776.5,599.5C 792.982,602.442 802.648,595.776 805.5,579.5C 806.309,577.708 806.809,575.708 807,573.5C 807.5,561.505 807.667,549.505 807.5,537.5C 808.328,531.681 808.828,525.681 809,519.5C 811.813,518.254 813.979,519.088 815.5,522C 813.225,522.161 811.225,523.494 809.5,526C 810.036,527.744 810.37,529.577 810.5,531.5C 809.885,534.039 809.218,536.539 808.5,539C 809.212,541.027 810.212,542.027 811.5,542C 809.024,544.348 808.524,546.848 810,549.5C 811.101,547.606 812.434,546.939 814,547.5C 814.333,548.167 814.667,548.833 815,549.5C 815.181,547.326 814.348,545.493 812.5,544C 813.449,543.383 814.282,543.549 815,544.5C 815.308,543.692 815.808,543.025 816.5,542.5C 817.716,543.002 818.883,543.335 820,543.5C 820.667,542.167 821.333,540.833 822,539.5C 822.5,540 823,540.5 823.5,541C 823.579,542.907 823.246,544.907 822.5,547C 824.96,548.632 827.293,548.632 829.5,547C 826.297,545.828 824.797,543.661 825,540.5C 825.561,541.022 826.228,541.355 827,541.5C 829.452,539.979 829.952,537.979 828.5,535.5C 829.376,534.749 830.376,534.249 831.5,534C 829.388,533.094 828.555,531.594 829,529.5C 829.308,530.308 829.808,530.975 830.5,531.5C 831.292,529.535 831.959,527.535 832.5,525.5C 831.318,523.533 831.985,522.2 834.5,521.5C 833.194,520.088 832.36,518.421 832,516.5C 831.707,520.98 830.874,521.313 829.5,517.5C 831.126,516.01 832.792,514.51 834.5,513C 833.646,511.978 832.646,511.145 831.5,510.5C 830.28,511.711 829.113,511.711 828,510.5C 827.667,511.167 827.333,511.833 827,512.5C 826.639,509.84 825.473,507.173 823.5,504.5C 820.524,503.34 818.69,501.673 818,499.5C 817.316,500.784 817.483,501.951 818.5,503C 817,503.833 815.833,505 815,506.5C 815.612,503.806 815.445,501.14 814.5,498.5C 816.016,495.467 818.016,492.8 820.5,490.5 Z"/></g>
<g><path style="opacity:1" fill="#99c8e3" d="M 806.5,524.5 C 806.833,524.5 807.167,524.5 807.5,524.5C 807.5,528.833 807.5,533.167 807.5,537.5C 807.667,549.505 807.5,561.505 807,573.5C 806.809,575.708 806.309,577.708 805.5,579.5C 806.393,562.519 806.727,545.519 806.5,528.5C 806.5,527.167 806.5,525.833 806.5,524.5 Z"/></g>
<g><path style="opacity:1" fill="#f8f9f9" d="M 195.5,477.5 C 203.167,477.5 210.833,477.5 218.5,477.5C 218.333,504.169 218.5,530.835 219,557.5C 233.135,557.508 247.969,557.341 263.5,557C 264.025,556.308 264.692,555.808 265.5,555.5C 266.213,557.435 267.213,557.768 268.5,556.5C 269.167,556.833 269.833,557.167 270.5,557.5C 276.758,567.101 285.091,574.101 295.5,578.5C 292.402,578.413 292.068,578.913 294.5,580C 293.584,580.374 292.75,580.874 292,581.5C 291.5,599.497 291.333,617.497 291.5,635.5C 315.801,636.471 340.134,636.804 364.5,636.5C 364.52,612.458 364.52,588.625 364.5,565C 366.037,563.89 366.703,562.39 366.5,560.5C 366.461,559.244 366.961,558.244 368,557.5C 368.5,564.492 368.666,571.492 368.5,578.5C 379.167,578.5 389.833,578.5 400.5,578.5C 400.833,578.5 401.167,578.5 401.5,578.5C 402.491,571.687 402.825,564.687 402.5,557.5C 414.5,557.5 426.5,557.5 438.5,557.5C 438.5,583.5 438.5,609.5 438.5,635.5C 444.508,636.774 450.508,636.774 456.5,635.5C 456.443,636.609 456.11,637.609 455.5,638.5C 372.833,638.667 290.166,638.5 207.5,638C 206.5,637.667 205.5,637.333 204.5,637C 206.101,636.727 207.601,636.227 209,635.5C 212.047,635.929 215.214,635.929 218.5,635.5C 218.5,632.167 218.5,628.833 218.5,625.5C 225.833,625.5 233.167,625.5 240.5,625.5C 241.493,616.682 241.827,607.682 241.5,598.5C 237.5,598.5 233.5,598.5 229.5,598.5C 223.84,598.42 219.34,596.087 216,591.5C 213.413,584.724 211.746,577.724 211,570.5C 210.924,550.796 210.257,531.129 209,511.5C 205.827,499.173 198.993,489.507 188.5,482.5C 191.039,481.069 193.372,479.403 195.5,477.5 Z"/></g>
<g><path style="opacity:1" fill="#f3f3f3" d="M 71.5,557.5 C 71.5,583.5 71.5,609.5 71.5,635.5C 47.0032,636.296 23.0032,636.296 -0.5,635.5C -0.5,609.5 -0.5,583.5 -0.5,557.5C 23.0198,556.46 47.0198,556.46 71.5,557.5 Z"/></g>
<g><path style="opacity:1" fill="#f2ecef" d="M 177.5,521.5 C 178.332,541.329 178.832,561.329 179,581.5C 179.707,587.957 181.04,594.291 183,600.5C 189.433,616.315 201.267,624.648 218.5,625.5C 218.5,628.833 218.5,632.167 218.5,635.5C 215.214,635.929 212.047,635.929 209,635.5C 207.601,636.227 206.101,636.727 204.5,637C 205.5,637.333 206.5,637.667 207.5,638C 290.166,638.5 372.833,638.667 455.5,638.5C 365.002,639.499 274.335,639.833 183.5,639.5C 187.761,638.874 192.094,638.041 196.5,637C 191.535,634.642 186.702,634.475 182,636.5C 169.492,636.233 156.992,635.899 144.5,635.5C 145.268,609.793 145.601,583.793 145.5,557.5C 155.872,557.422 166.539,557.422 177.5,557.5C 177.5,545.5 177.5,533.5 177.5,521.5 Z"/></g>
<g><path style="opacity:1" fill="#f1f2f2" d="M 401.5,426.5 C 402.497,443.325 402.83,460.325 402.5,477.5C 413.187,477.168 423.854,477.501 434.5,478.5C 433.265,480.316 433.265,481.983 434.5,483.5C 433.463,495.815 433.296,508.148 434,520.5C 443.105,562.773 469.272,583.773 512.5,583.5C 511.722,584.156 511.056,584.989 510.5,586C 511.678,602.048 511.678,618.214 510.5,634.5C 504.108,624.06 497.941,613.393 492,602.5C 487.313,596.303 482.313,595.97 477,601.5C 470.392,613.063 463.559,624.396 456.5,635.5C 450.508,636.774 444.508,636.774 438.5,635.5C 438.5,609.5 438.5,583.5 438.5,557.5C 426.5,557.5 414.5,557.5 402.5,557.5C 402.825,564.687 402.491,571.687 401.5,578.5C 401.5,527.833 401.5,477.167 401.5,426.5 Z"/></g>
<g><path style="opacity:1" fill="#f8f8f8" d="M 718.5,563.5 C 723.5,563.5 728.5,563.5 733.5,563.5C 733.5,564.833 733.5,566.167 733.5,567.5C 732.13,571.907 730.297,576.24 728,580.5C 723.1,586.733 717.6,592.233 711.5,597C 714.961,601.964 718.627,606.798 722.5,611.5C 724.243,609.962 726.243,608.962 728.5,608.5C 729.496,608.586 730.329,608.252 731,607.5C 732.417,616.752 732.917,626.085 732.5,635.5C 755.705,636.462 778.538,636.462 801,635.5C 803.734,636.362 803.901,637.195 801.5,638C 731.167,638.5 660.834,638.667 590.5,638.5C 583.812,626.971 576.479,615.804 568.5,605C 565.084,604.107 561.917,604.607 559,606.5C 548.293,624.749 537.459,642.916 526.5,661C 524.887,661.089 523.72,660.255 523,658.5C 518.977,650.342 514.81,642.342 510.5,634.5C 511.678,618.214 511.678,602.048 510.5,586C 511.056,584.989 511.722,584.156 512.5,583.5C 534.653,582.471 552.986,573.804 567.5,557.5C 573.5,557.5 579.5,557.5 585.5,557.5C 585.333,580.502 585.5,603.502 586,626.5C 586.354,628.807 587.354,629.141 589,627.5C 590.225,627.862 591.391,628.362 592.5,629C 591.572,629.388 590.905,630.055 590.5,631C 591.029,632.559 591.696,634.059 592.5,635.5C 614.823,636.5 637.157,636.833 659.5,636.5C 658.743,610.805 658.743,584.472 659.5,557.5C 678.743,557.826 697.91,557.493 717,556.5C 717.186,559.036 717.686,561.369 718.5,563.5 Z"/></g>
<g><path style="opacity:1" fill="#f2f2f2" d="M 726.5,476.5 C 728.368,477.263 730.035,478.263 731.5,479.5C 731.348,487.817 731.681,496.151 732.5,504.5C 731.968,511.734 731.302,518.9 730.5,526C 740.009,526.17 749.342,526.67 758.5,527.5C 748.167,527.5 737.833,527.5 727.5,527.5C 724.5,527.5 721.5,527.5 718.5,527.5C 718.5,539.5 718.5,551.5 718.5,563.5C 717.686,561.369 717.186,559.036 717,556.5C 697.91,557.493 678.743,557.826 659.5,557.5C 658.743,584.472 658.743,610.805 659.5,636.5C 637.157,636.833 614.823,636.5 592.5,635.5C 591.696,634.059 591.029,632.559 590.5,631C 590.905,630.055 591.572,629.388 592.5,629C 591.391,628.362 590.225,627.862 589,627.5C 587.354,629.141 586.354,628.807 586,626.5C 585.5,603.502 585.333,580.502 585.5,557.5C 593.86,557.169 602.193,557.502 610.5,558.5C 609.456,559.623 608.79,560.956 608.5,562.5C 609.715,565.837 610.715,569.17 611.5,572.5C 611.5,574.5 611.5,576.5 611.5,578.5C 623.167,578.5 634.833,578.5 646.5,578.5C 646.169,548.995 646.502,519.662 647.5,490.5C 647.5,512.833 647.5,535.167 647.5,557.5C 651.437,557.793 655.27,557.46 659,556.5C 659.5,530.169 659.667,503.835 659.5,477.5C 682.006,477.831 704.34,477.497 726.5,476.5 Z"/></g>
<g><path style="opacity:1" fill="#f9f9f9" d="M 879.5,477.5 C 903.833,477.5 928.167,477.5 952.5,477.5C 953.08,504.306 953.08,530.972 952.5,557.5C 928.398,556.867 904.064,556.867 879.5,557.5C 879.5,583.833 879.5,610.167 879.5,636.5C 859.723,635.791 840.056,635.458 820.5,635.5C 815.256,635.96 810.09,636.626 805,637.5C 805.353,633.587 805.52,629.587 805.5,625.5C 812.732,623.719 819.399,620.552 825.5,616C 834.974,604.324 839.641,590.824 839.5,575.5C 840.49,569.69 840.823,563.69 840.5,557.5C 853.413,557.822 866.246,557.489 879,556.5C 878.733,530.247 878.9,503.914 879.5,477.5 Z"/></g>
<g><path style="opacity:1" fill="#f9faf9" d="M 952.5,557.5 C 976.167,557.5 999.833,557.5 1023.5,557.5C 1023.5,583.5 1023.5,609.5 1023.5,635.5C 999.833,635.5 976.167,635.5 952.5,635.5C 952.5,609.5 952.5,583.5 952.5,557.5 Z"/></g>
<g><path style="opacity:1" fill="#118dd2" d="M 758.5,555.5 C 758.5,556.167 758.5,556.833 758.5,557.5C 758.904,575.857 751.904,590.691 737.5,602C 734.079,603.699 731.079,605.865 728.5,608.5C 726.243,608.962 724.243,609.962 722.5,611.5C 718.627,606.798 714.961,601.964 711.5,597C 717.6,592.233 723.1,586.733 728,580.5C 730.297,576.24 732.13,571.907 733.5,567.5C 736.537,565.038 738.871,565.871 740.5,570C 740.167,570.333 739.833,570.667 739.5,571C 741.391,571.309 742.725,570.475 743.5,568.5C 745.019,569.851 746.352,571.351 747.5,573C 748.672,573.353 749.838,573.187 751,572.5C 751.945,572.905 752.612,573.572 753,574.5C 753.833,573.667 754.667,572.833 755.5,572C 753.408,570.623 751.742,568.79 750.5,566.5C 751.167,566.167 751.833,565.833 752.5,565.5C 750.064,563.447 750.398,561.614 753.5,560C 750.747,557.998 749.081,555.664 748.5,553C 750.061,552.682 751.228,551.849 752,550.5C 752.658,552.108 752.158,553.275 750.5,554C 753.635,554.8 755.802,556.634 757,559.5C 757.21,557.942 757.71,556.609 758.5,555.5 Z"/></g>
<g><path style="opacity:1" fill="#f2f2f2" d="M 366.5,560.5 C 366.703,562.39 366.037,563.89 364.5,565C 364.52,588.625 364.52,612.458 364.5,636.5C 340.134,636.804 315.801,636.471 291.5,635.5C 291.333,617.497 291.5,599.497 292,581.5C 292.75,580.874 293.584,580.374 294.5,580C 292.068,578.913 292.402,578.413 295.5,578.5C 300.332,580.459 305.332,581.959 310.5,583C 333.883,586.716 352.55,579.216 366.5,560.5 Z"/></g>
<g><path style="opacity:1" fill="#58b4e2" d="M 229.5,598.5 C 233.5,598.5 237.5,598.5 241.5,598.5C 241.827,607.682 241.493,616.682 240.5,625.5C 240.5,616.833 240.5,608.167 240.5,599.5C 236.629,599.815 232.962,599.482 229.5,598.5 Z"/></g>
<g><path style="opacity:1" fill="#f3f2f2" d="M 583.5,655.5 C 584.209,656.404 585.209,656.737 586.5,656.5C 585.802,660.621 585.136,664.788 584.5,669C 585.341,683.967 585.674,699.134 585.5,714.5C 561.164,714.667 536.831,714.5 512.5,714C 511.661,700.056 511.661,686.556 512.5,673.5C 515.267,677.517 517.934,681.684 520.5,686C 523.833,688 527.167,688 530.5,686C 542.628,667.584 554.128,648.75 565,629.5C 570.166,636.495 574.833,643.828 579,651.5C 580.049,653.384 581.549,654.718 583.5,655.5 Z"/></g>
<g><path style="opacity:1" fill="#f9faf9" d="M -0.5,635.5 C 23.0032,636.296 47.0032,636.296 71.5,635.5C 71.5,661.833 71.5,688.167 71.5,714.5C 47.5,714.5 23.5,714.5 -0.5,714.5C -0.5,688.167 -0.5,661.833 -0.5,635.5 Z"/></g>
<g><path style="opacity:1" fill="#f3f3f3" d="M 71.5,635.5 C 95.9772,635.708 120.311,635.708 144.5,635.5C 144.5,661.833 144.5,688.167 144.5,714.5C 120.167,714.5 95.8333,714.5 71.5,714.5C 71.5,688.167 71.5,661.833 71.5,635.5 Z"/></g>
<g><path style="opacity:1" fill="#f9f9f9" d="M 183.5,639.5 C 177.537,642.072 176.203,646.072 179.5,651.5C 180.585,653.587 182.251,654.92 184.5,655.5C 197.99,656.496 211.656,656.829 225.5,656.5C 223.393,657.468 221.059,657.802 218.5,657.5C 218.5,676.5 218.5,695.5 218.5,714.5C 193.833,714.5 169.167,714.5 144.5,714.5C 144.5,688.167 144.5,661.833 144.5,635.5C 156.992,635.899 169.492,636.233 182,636.5C 186.702,634.475 191.535,634.642 196.5,637C 192.094,638.041 187.761,638.874 183.5,639.5 Z"/></g>
<g><path style="opacity:1" fill="#f2eff0" d="M 806.5,528.5 C 806.727,545.519 806.393,562.519 805.5,579.5C 802.648,595.776 792.982,602.442 776.5,599.5C 776.5,608.167 776.5,616.833 776.5,625.5C 786.167,625.5 795.833,625.5 805.5,625.5C 805.52,629.587 805.353,633.587 805,637.5C 810.09,636.626 815.256,635.96 820.5,635.5C 840.056,635.458 859.723,635.791 879.5,636.5C 879.203,662.724 879.203,688.724 879.5,714.5C 854.833,714.5 830.167,714.5 805.5,714.5C 805.762,697.787 805.762,681.287 805.5,665C 806.12,662.527 806.786,660.027 807.5,657.5C 808.5,658.167 809.5,658.833 810.5,659.5C 811.192,658.975 811.692,658.308 812,657.5C 813.791,660.827 815.957,661.16 818.5,658.5C 819.842,659.902 820.676,659.569 821,657.5C 821.667,660.167 822.333,660.167 823,657.5C 823.333,657.833 823.667,658.167 824,658.5C 825.399,657.773 826.899,657.273 828.5,657C 796.502,656.5 764.502,656.333 732.5,656.5C 708.167,656.5 683.833,656.5 659.5,656.5C 635.167,656.5 610.833,656.5 586.5,656.5C 585.209,656.737 584.209,656.404 583.5,655.5C 667.834,655.667 752.167,655.5 836.5,655C 841.756,649.924 841.756,644.924 836.5,640C 754.332,639.833 672.332,639.333 590.5,638.5C 660.834,638.667 731.167,638.5 801.5,638C 803.901,637.195 803.734,636.362 801,635.5C 778.538,636.462 755.705,636.462 732.5,635.5C 732.917,626.085 732.417,616.752 731,607.5C 730.329,608.252 729.496,608.586 728.5,608.5C 731.079,605.865 734.079,603.699 737.5,602C 751.904,590.691 758.904,575.857 758.5,557.5C 774.27,556.949 789.937,556.949 805.5,557.5C 805.173,547.652 805.506,537.986 806.5,528.5 Z"/></g>
<g><path style="opacity:1" fill="#f9faf9" d="M 952.5,714.5 C 928.167,714.5 903.833,714.5 879.5,714.5C 879.203,688.724 879.203,662.724 879.5,636.5C 903.547,636.397 927.88,636.397 952.5,636.5C 952.705,662.356 952.705,688.356 952.5,714.5 Z"/></g>
<g><path style="opacity:1" fill="#f3f3f3" d="M 952.5,557.5 C 952.5,583.5 952.5,609.5 952.5,635.5C 976.167,635.5 999.833,635.5 1023.5,635.5C 1023.5,661.833 1023.5,688.167 1023.5,714.5C 999.833,714.5 976.167,714.5 952.5,714.5C 952.705,688.356 952.705,662.356 952.5,636.5C 927.88,636.397 903.547,636.397 879.5,636.5C 879.5,610.167 879.5,583.833 879.5,557.5C 904.064,556.867 928.398,556.867 952.5,557.5 Z"/></g>
<g><path style="opacity:1" fill="#e20c7f" d="M 463.5,654.5 C 463.5,655.167 463.167,655.5 462.5,655.5C 369.833,655.5 277.167,655.5 184.5,655.5C 182.251,654.92 180.585,653.587 179.5,651.5C 180.473,650.209 181.473,650.209 182.5,651.5C 183.354,650.478 184.354,649.645 185.5,649C 184.549,648.282 184.383,647.449 185,646.5C 187.798,643.155 190.798,642.821 194,645.5C 195.356,644.62 196.856,644.286 198.5,644.5C 198.5,643.5 198.5,642.5 198.5,641.5C 200.467,641.261 202.301,641.594 204,642.5C 204.667,641.833 205.333,641.167 206,640.5C 206.265,642.163 205.765,643.663 204.5,645C 206.709,645.957 206.543,647.124 204,648.5C 203.667,647.833 203.333,647.167 203,646.5C 201.879,650.509 199.379,651.509 195.5,649.5C 194.339,651.378 195.006,652.378 197.5,652.5C 202.25,651.445 207.083,651.445 212,652.5C 214.034,651.257 214.867,649.757 214.5,648C 216.536,647.546 218.37,646.713 220,645.5C 221.868,646.71 223.368,646.21 224.5,644C 229.295,642.544 234.128,642.711 239,644.5C 241.149,644.342 242.983,643.508 244.5,642C 253.818,641.613 262.985,641.446 272,641.5C 274.954,641.594 275.121,642.094 272.5,643C 273.108,643.87 273.941,644.37 275,644.5C 276.368,643.297 277.868,642.297 279.5,641.5C 280.696,641.846 280.696,642.346 279.5,643C 281.421,643.36 283.088,644.194 284.5,645.5C 285.696,645.154 285.696,644.654 284.5,644C 285.667,643.833 286.833,643.667 288,643.5C 292.812,643.059 297.645,643.725 302.5,645.5C 303.5,645.167 304.5,644.833 305.5,644.5C 304.391,643.035 304.891,642.035 307,641.5C 307.309,642.766 307.809,643.933 308.5,645C 312.61,646.455 316.61,647.288 320.5,647.5C 321.641,648.425 321.641,649.259 320.5,650C 321.025,650.692 321.692,651.192 322.5,651.5C 322.88,649.979 323.046,648.313 323,646.5C 324.747,647.33 326.413,648.33 328,649.5C 330.082,648.539 331.915,647.206 333.5,645.5C 334.842,646.902 335.676,646.569 336,644.5C 336.725,645.059 337.558,645.392 338.5,645.5C 340.915,643.784 343.582,643.284 346.5,644C 346.817,647.072 348.317,647.239 351,644.5C 352.398,645.051 353.732,645.384 355,645.5C 355.691,643.109 356.691,643.109 358,645.5C 361,644.167 364,644.167 367,645.5C 367.308,644.692 367.808,644.025 368.5,643.5C 372.5,644.167 376.5,644.833 380.5,645.5C 382.156,643.978 383.323,644.311 384,646.5C 384.333,645.833 384.667,645.167 385,644.5C 387.186,645.022 389.519,645.022 392,644.5C 394.734,645.362 394.901,646.195 392.5,647C 393.212,648.425 393.379,649.925 393,651.5C 393.333,651.833 393.667,652.167 394,652.5C 395.363,650.216 396.863,650.049 398.5,652C 398.043,652.414 397.709,652.914 397.5,653.5C 419.49,654.5 441.49,654.833 463.5,654.5 Z"/></g>
<g><path style="opacity:1" fill="#e60c7e" d="M 510.5,634.5 C 514.81,642.342 518.977,650.342 523,658.5C 523.72,660.255 524.887,661.089 526.5,661C 537.459,642.916 548.293,624.749 559,606.5C 561.917,604.607 565.084,604.107 568.5,605C 576.479,615.804 583.812,626.971 590.5,638.5C 672.332,639.333 754.332,639.833 836.5,640C 841.756,644.924 841.756,649.924 836.5,655C 752.167,655.5 667.834,655.667 583.5,655.5C 581.549,654.718 580.049,653.384 579,651.5C 574.833,643.828 570.166,636.495 565,629.5C 554.128,648.75 542.628,667.584 530.5,686C 527.167,688 523.833,688 520.5,686C 517.934,681.684 515.267,677.517 512.5,673.5C 503.256,656.406 493.756,639.406 484,622.5C 479,631.167 474,639.833 469,648.5C 467.618,651.043 465.785,653.043 463.5,654.5C 441.49,654.833 419.49,654.5 397.5,653.5C 397.709,652.914 398.043,652.414 398.5,652C 396.863,650.049 395.363,650.216 394,652.5C 393.667,652.167 393.333,651.833 393,651.5C 393.379,649.925 393.212,648.425 392.5,647C 394.901,646.195 394.734,645.362 392,644.5C 389.519,645.022 387.186,645.022 385,644.5C 384.667,645.167 384.333,645.833 384,646.5C 383.323,644.311 382.156,643.978 380.5,645.5C 376.5,644.833 372.5,644.167 368.5,643.5C 367.808,644.025 367.308,644.692 367,645.5C 364,644.167 361,644.167 358,645.5C 356.691,643.109 355.691,643.109 355,645.5C 353.732,645.384 352.398,645.051 351,644.5C 348.317,647.239 346.817,647.072 346.5,644C 343.582,643.284 340.915,643.784 338.5,645.5C 337.558,645.392 336.725,645.059 336,644.5C 335.676,646.569 334.842,646.902 333.5,645.5C 331.915,647.206 330.082,648.539 328,649.5C 326.413,648.33 324.747,647.33 323,646.5C 323.046,648.313 322.88,649.979 322.5,651.5C 321.692,651.192 321.025,650.692 320.5,650C 321.641,649.259 321.641,648.425 320.5,647.5C 316.61,647.288 312.61,646.455 308.5,645C 307.809,643.933 307.309,642.766 307,641.5C 304.891,642.035 304.391,643.035 305.5,644.5C 304.5,644.833 303.5,645.167 302.5,645.5C 297.645,643.725 292.812,643.059 288,643.5C 286.833,643.667 285.667,643.833 284.5,644C 285.696,644.654 285.696,645.154 284.5,645.5C 283.088,644.194 281.421,643.36 279.5,643C 280.696,642.346 280.696,641.846 279.5,641.5C 277.868,642.297 276.368,643.297 275,644.5C 273.941,644.37 273.108,643.87 272.5,643C 275.121,642.094 274.954,641.594 272,641.5C 262.985,641.446 253.818,641.613 244.5,642C 242.983,643.508 241.149,644.342 239,644.5C 234.128,642.711 229.295,642.544 224.5,644C 223.368,646.21 221.868,646.71 220,645.5C 218.37,646.713 216.536,647.546 214.5,648C 214.867,649.757 214.034,651.257 212,652.5C 207.083,651.445 202.25,651.445 197.5,652.5C 195.006,652.378 194.339,651.378 195.5,649.5C 199.379,651.509 201.879,650.509 203,646.5C 203.333,647.167 203.667,647.833 204,648.5C 206.543,647.124 206.709,645.957 204.5,645C 205.765,643.663 206.265,642.163 206,640.5C 205.333,641.167 204.667,641.833 204,642.5C 202.301,641.594 200.467,641.261 198.5,641.5C 198.5,642.5 198.5,643.5 198.5,644.5C 196.856,644.286 195.356,644.62 194,645.5C 190.798,642.821 187.798,643.155 185,646.5C 184.383,647.449 184.549,648.282 185.5,649C 184.354,649.645 183.354,650.478 182.5,651.5C 181.473,650.209 180.473,650.209 179.5,651.5C 176.203,646.072 177.537,642.072 183.5,639.5C 274.335,639.833 365.002,639.499 455.5,638.5C 456.11,637.609 456.443,636.609 456.5,635.5C 463.559,624.396 470.392,613.063 477,601.5C 482.313,595.97 487.313,596.303 492,602.5C 497.941,613.393 504.108,624.06 510.5,634.5 Z"/></g>
<g><path style="opacity:1" fill="#f3f3f3" d="M 225.5,656.5 C 247.5,656.5 269.5,656.5 291.5,656.5C 291.5,675.833 291.5,695.167 291.5,714.5C 267.167,714.5 242.833,714.5 218.5,714.5C 218.5,695.5 218.5,676.5 218.5,657.5C 221.059,657.802 223.393,657.468 225.5,656.5 Z"/></g>
<g><path style="opacity:1" fill="#f9faf9" d="M 291.5,656.5 C 316.836,656.333 342.169,656.5 367.5,657C 365.777,676.193 364.777,695.36 364.5,714.5C 340.167,714.5 315.833,714.5 291.5,714.5C 291.5,695.167 291.5,675.833 291.5,656.5 Z"/></g>
<g><path style="opacity:1" fill="#f2eff0" d="M 184.5,655.5 C 277.167,655.5 369.833,655.5 462.5,655.5C 454.684,656.492 446.684,656.826 438.5,656.5C 438.5,675.833 438.5,695.167 438.5,714.5C 413.833,714.5 389.167,714.5 364.5,714.5C 364.777,695.36 365.777,676.193 367.5,657C 342.169,656.5 316.836,656.333 291.5,656.5C 269.5,656.5 247.5,656.5 225.5,656.5C 211.656,656.829 197.99,656.496 184.5,655.5 Z"/></g>
<g><path style="opacity:1" fill="#f3f3f3" d="M 659.5,656.5 C 683.833,656.5 708.167,656.5 732.5,656.5C 731.5,675.5 731.5,694.833 732.5,714.5C 708.167,714.5 683.833,714.5 659.5,714.5C 659.387,695.318 659.387,675.984 659.5,656.5 Z"/></g>
<g><path style="opacity:1" fill="#f9faf9" d="M 732.5,656.5 C 764.502,656.333 796.502,656.5 828.5,657C 826.899,657.273 825.399,657.773 824,658.5C 823.667,658.167 823.333,657.833 823,657.5C 822.333,660.167 821.667,660.167 821,657.5C 820.676,659.569 819.842,659.902 818.5,658.5C 815.957,661.16 813.791,660.827 812,657.5C 811.692,658.308 811.192,658.975 810.5,659.5C 809.5,658.833 808.5,658.167 807.5,657.5C 806.786,660.027 806.12,662.527 805.5,665C 805.762,681.287 805.762,697.787 805.5,714.5C 781.167,714.5 756.833,714.5 732.5,714.5C 731.5,694.833 731.5,675.5 732.5,656.5 Z"/></g>
<g><path style="opacity:1" fill="#f3f2f3" d="M -0.5,714.5 C 23.5,714.5 47.5,714.5 71.5,714.5C 71.3334,740.502 71.5,766.502 72,792.5C 94.8005,793.136 118.634,793.469 143.5,793.5C 144.5,819.491 144.833,845.491 144.5,871.5C 120.167,871.5 95.8333,871.5 71.5,871.5C 71.5,845.5 71.5,819.5 71.5,793.5C 46.9238,793.256 22.9238,793.256 -0.5,793.5C -0.5,767.167 -0.5,740.833 -0.5,714.5 Z"/></g>
<g><path style="opacity:1" fill="#f3f3f3" d="M 144.5,714.5 C 169.167,714.5 193.833,714.5 218.5,714.5C 218.5,740.833 218.5,767.167 218.5,793.5C 193.19,793.306 168.69,792.972 145,792.5C 145.39,766.386 145.223,740.386 144.5,714.5 Z"/></g>
<g><path style="opacity:1" fill="#f3f3f2" d="M 438.5,714.5 C 462.833,714.5 487.167,714.5 511.5,714.5C 511.5,740.833 511.5,767.167 511.5,793.5C 487.167,793.5 462.833,793.5 438.5,793.5C 438.852,767.025 438.852,740.692 438.5,714.5 Z"/></g>
<g><path style="opacity:1" fill="#f9f9f9" d="M 512.5,673.5 C 511.661,686.556 511.661,700.056 512.5,714C 536.831,714.5 561.164,714.667 585.5,714.5C 585.5,740.833 585.5,767.167 585.5,793.5C 561.249,792.943 536.582,792.943 511.5,793.5C 511.5,767.167 511.5,740.833 511.5,714.5C 487.167,714.5 462.833,714.5 438.5,714.5C 438.5,695.167 438.5,675.833 438.5,656.5C 446.684,656.826 454.684,656.492 462.5,655.5C 463.167,655.5 463.5,655.167 463.5,654.5C 465.785,653.043 467.618,651.043 469,648.5C 474,639.833 479,631.167 484,622.5C 493.756,639.406 503.256,656.406 512.5,673.5 Z"/></g>
<g><path style="opacity:1" fill="#f3f3f3" d="M 585.5,714.5 C 609.833,714.5 634.167,714.5 658.5,714.5C 658.645,740.986 658.645,767.32 658.5,793.5C 634.167,793.5 609.833,793.5 585.5,793.5C 585.5,767.167 585.5,740.833 585.5,714.5 Z"/></g>
<g><path style="opacity:1" fill="#f3f3f2" d="M 732.5,714.5 C 756.833,714.5 781.167,714.5 805.5,714.5C 805.5,740.833 805.5,767.167 805.5,793.5C 781.167,793.5 756.833,793.5 732.5,793.5C 732.5,767.167 732.5,740.833 732.5,714.5 Z"/></g>
<g><path style="opacity:1" fill="#f9faf9" d="M 805.5,714.5 C 830.167,714.5 854.833,714.5 879.5,714.5C 879.5,740.833 879.5,767.167 879.5,793.5C 854.689,792.545 830.022,792.545 805.5,793.5C 805.5,767.167 805.5,740.833 805.5,714.5 Z"/></g>
<g><path style="opacity:1" fill="#f2f2f3" d="M 879.5,714.5 C 903.833,714.5 928.167,714.5 952.5,714.5C 952.5,740.833 952.5,767.167 952.5,793.5C 928.167,793.5 903.833,793.5 879.5,793.5C 879.5,767.167 879.5,740.833 879.5,714.5 Z"/></g>
<g><path style="opacity:1" fill="#f9faf9" d="M 952.5,714.5 C 976.167,714.5 999.833,714.5 1023.5,714.5C 1023.5,740.5 1023.5,766.5 1023.5,792.5C 999.62,792.752 975.953,793.086 952.5,793.5C 952.5,767.167 952.5,740.833 952.5,714.5 Z"/></g>
<g><path style="opacity:1" fill="#f9faf9" d="M 71.5,871.5 C 47.5,871.5 23.5,871.5 -0.5,871.5C -0.5,845.5 -0.5,819.5 -0.5,793.5C 22.9238,793.256 46.9238,793.256 71.5,793.5C 71.5,819.5 71.5,845.5 71.5,871.5 Z"/></g>
<g><path style="opacity:1" fill="#f3f3f3" d="M 291.5,871.5 C 267.167,871.5 242.833,871.5 218.5,871.5C 218.5,845.5 218.5,819.5 218.5,793.5C 242.64,793.365 266.973,793.365 291.5,793.5C 291.5,819.5 291.5,845.5 291.5,871.5 Z"/></g>
<g><path style="opacity:1" fill="#f3f2f3" d="M 438.5,793.5 C 438.5,819.5 438.5,845.5 438.5,871.5C 413.833,871.5 389.167,871.5 364.5,871.5C 365.421,845.664 365.755,819.664 365.5,793.5C 389.066,792.399 413.399,792.399 438.5,793.5 Z"/></g>
<g><path style="opacity:1" fill="#f3f3f3" d="M 1023.5,792.5 C 1023.5,818.833 1023.5,845.167 1023.5,871.5C 999.833,871.5 976.167,871.5 952.5,871.5C 952.626,845.354 952.626,819.354 952.5,793.5C 975.953,793.086 999.62,792.752 1023.5,792.5 Z"/></g>
<g><path style="opacity:1" fill="#f9faf9" d="M 71.5,714.5 C 95.8333,714.5 120.167,714.5 144.5,714.5C 145.223,740.386 145.39,766.386 145,792.5C 168.69,792.972 193.19,793.306 218.5,793.5C 218.5,819.5 218.5,845.5 218.5,871.5C 193.833,871.5 169.167,871.5 144.5,871.5C 144.833,845.491 144.5,819.491 143.5,793.5C 118.634,793.469 94.8005,793.136 72,792.5C 71.5,766.502 71.3334,740.502 71.5,714.5 Z"/></g>
<g><path style="opacity:1" fill="#f9faf9" d="M 218.5,714.5 C 242.833,714.5 267.167,714.5 291.5,714.5C 291.333,740.502 291.5,766.502 292,792.5C 294.075,793.134 296.241,793.468 298.5,793.5C 320.595,793.756 342.762,793.423 365,792.5C 364.664,766.697 364.497,740.697 364.5,714.5C 389.167,714.5 413.833,714.5 438.5,714.5C 438.852,740.692 438.852,767.025 438.5,793.5C 413.399,792.399 389.066,792.399 365.5,793.5C 365.755,819.664 365.421,845.664 364.5,871.5C 340.167,871.5 315.833,871.5 291.5,871.5C 291.5,845.5 291.5,819.5 291.5,793.5C 266.973,793.365 242.64,793.365 218.5,793.5C 218.5,767.167 218.5,740.833 218.5,714.5 Z"/></g>
<g><path style="opacity:1" fill="#f3f3f3" d="M 291.5,714.5 C 315.833,714.5 340.167,714.5 364.5,714.5C 364.497,740.697 364.664,766.697 365,792.5C 342.762,793.423 320.595,793.756 298.5,793.5C 296.241,793.468 294.075,793.134 292,792.5C 291.5,766.502 291.333,740.502 291.5,714.5 Z"/></g>
<g><path style="opacity:1" fill="#f3f2f3" d="M 585.5,793.5 C 585.5,819.5 585.5,845.5 585.5,871.5C 560.925,871.828 536.425,871.494 512,870.5C 512.656,844.919 512.489,819.253 511.5,793.5C 536.582,792.943 561.249,792.943 585.5,793.5 Z"/></g>
<g><path style="opacity:1" fill="#f3f3f3" d="M 732.5,793.5 C 732.34,819.538 732.34,845.538 732.5,871.5C 707.684,871.99 683.017,871.49 658.5,870C 659.307,844.565 659.64,819.065 659.5,793.5C 683.889,793.404 708.222,793.404 732.5,793.5 Z"/></g>
<g><path style="opacity:1" fill="#f9faf9" d="M 732.5,793.5 C 756.833,793.5 781.167,793.5 805.5,793.5C 805.5,819.5 805.5,845.5 805.5,871.5C 781.167,871.5 756.833,871.5 732.5,871.5C 732.34,845.538 732.34,819.538 732.5,793.5 Z"/></g>
<g><path style="opacity:1" fill="#f3f3f3" d="M 879.5,793.5 C 879.656,819.752 879.323,845.752 878.5,871.5C 854.167,871.5 829.833,871.5 805.5,871.5C 805.5,845.5 805.5,819.5 805.5,793.5C 830.022,792.545 854.689,792.545 879.5,793.5 Z"/></g>
<g><path style="opacity:1" fill="#f2f3f2" d="M -0.5,871.5 C 23.5,871.5 47.5,871.5 71.5,871.5C 71.5,897.833 71.5,924.167 71.5,950.5C 47.5,950.5 23.5,950.5 -0.5,950.5C -0.5,924.167 -0.5,897.833 -0.5,871.5 Z"/></g>
<g><path style="opacity:1" fill="#f3f3f3" d="M 144.5,871.5 C 169.167,871.5 193.833,871.5 218.5,871.5C 218.5,897.833 218.5,924.167 218.5,950.5C 193.925,950.828 169.425,950.494 145,949.5C 144.963,924.735 144.796,898.735 144.5,871.5 Z"/></g>
<g><path style="opacity:1" fill="#f9faf9" d="M 218.5,871.5 C 242.833,871.5 267.167,871.5 291.5,871.5C 291.5,897.833 291.5,924.167 291.5,950.5C 267.167,950.5 242.833,950.5 218.5,950.5C 218.5,924.167 218.5,897.833 218.5,871.5 Z"/></g>
<g><path style="opacity:1" fill="#f3f2f3" d="M 291.5,871.5 C 315.833,871.5 340.167,871.5 364.5,871.5C 364.519,897.554 364.852,923.387 365.5,949C 340.983,950.49 316.316,950.99 291.5,950.5C 291.5,924.167 291.5,897.833 291.5,871.5 Z"/></g>
<g><path style="opacity:1" fill="#f2f3f2" d="M 438.5,871.5 C 462.833,871.5 487.167,871.5 511.5,871.5C 511.5,897.833 511.5,924.167 511.5,950.5C 487.167,950.5 462.833,950.5 438.5,950.5C 438.5,924.167 438.5,897.833 438.5,871.5 Z"/></g>
<g><path style="opacity:1" fill="#f9faf9" d="M 438.5,793.5 C 462.833,793.5 487.167,793.5 511.5,793.5C 512.489,819.253 512.656,844.919 512,870.5C 536.425,871.494 560.925,871.828 585.5,871.5C 585.5,897.833 585.5,924.167 585.5,950.5C 560.833,950.5 536.167,950.5 511.5,950.5C 511.5,924.167 511.5,897.833 511.5,871.5C 487.167,871.5 462.833,871.5 438.5,871.5C 438.5,845.5 438.5,819.5 438.5,793.5 Z"/></g>
<g><path style="opacity:1" fill="#f3f3f3" d="M 585.5,871.5 C 609.833,871.5 634.167,871.5 658.5,871.5C 658.496,898.168 658.829,924.502 659.5,950.5C 634.833,950.5 610.167,950.5 585.5,950.5C 585.5,924.167 585.5,897.833 585.5,871.5 Z"/></g>
<g><path style="opacity:1" fill="#f9faf9" d="M 586.5,656.5 C 610.833,656.5 635.167,656.5 659.5,656.5C 659.387,675.984 659.387,695.318 659.5,714.5C 683.833,714.5 708.167,714.5 732.5,714.5C 732.5,740.833 732.5,767.167 732.5,793.5C 708.222,793.404 683.889,793.404 659.5,793.5C 659.64,819.065 659.307,844.565 658.5,870C 683.017,871.49 707.684,871.99 732.5,871.5C 732.5,897.833 732.5,924.167 732.5,950.5C 756.833,950.5 781.167,950.5 805.5,950.5C 805.5,974.833 805.5,999.167 805.5,1023.5C 780.833,1023.5 756.167,1023.5 731.5,1023.5C 732.012,998.509 732.178,974.509 732,951.5C 707.908,950.506 683.741,950.172 659.5,950.5C 658.829,924.502 658.496,898.168 658.5,871.5C 634.167,871.5 609.833,871.5 585.5,871.5C 585.5,845.5 585.5,819.5 585.5,793.5C 609.833,793.5 634.167,793.5 658.5,793.5C 658.645,767.32 658.645,740.986 658.5,714.5C 634.167,714.5 609.833,714.5 585.5,714.5C 585.674,699.134 585.341,683.967 584.5,669C 585.136,664.788 585.802,660.621 586.5,656.5 Z"/></g>
<g><path style="opacity:1" fill="#f2f3f2" d="M 732.5,871.5 C 756.833,871.5 781.167,871.5 805.5,871.5C 805.5,897.833 805.5,924.167 805.5,950.5C 781.167,950.5 756.833,950.5 732.5,950.5C 732.5,924.167 732.5,897.833 732.5,871.5 Z"/></g>
<g><path style="opacity:1" fill="#f9faf9" d="M 879.5,793.5 C 903.833,793.5 928.167,793.5 952.5,793.5C 952.626,819.354 952.626,845.354 952.5,871.5C 928.167,871.5 903.833,871.5 879.5,871.5C 879.5,897.833 879.5,924.167 879.5,950.5C 854.833,950.5 830.167,950.5 805.5,950.5C 805.5,924.167 805.5,897.833 805.5,871.5C 829.833,871.5 854.167,871.5 878.5,871.5C 879.323,845.752 879.656,819.752 879.5,793.5 Z"/></g>
<g><path style="opacity:1" fill="#f2f3f2" d="M 952.5,871.5 C 952.5,897.833 952.5,924.167 952.5,950.5C 928.167,950.5 903.833,950.5 879.5,950.5C 879.5,924.167 879.5,897.833 879.5,871.5C 903.833,871.5 928.167,871.5 952.5,871.5 Z"/></g>
<g><path style="opacity:1" fill="#f9f9f9" d="M 952.5,871.5 C 976.167,871.5 999.833,871.5 1023.5,871.5C 1023.5,897.833 1023.5,924.167 1023.5,950.5C 1005.83,950.333 988.164,950.5 970.5,951C 974.991,959.086 981.658,964.586 990.5,967.5C 979.185,971.481 971.519,979.148 967.5,990.5C 964.658,983.002 959.992,977.002 953.5,972.5C 952.501,989.487 952.167,1006.49 952.5,1023.5C 927.833,1023.5 903.167,1023.5 878.5,1023.5C 879.263,999.239 879.596,974.906 879.5,950.5C 903.833,950.5 928.167,950.5 952.5,950.5C 952.5,924.167 952.5,897.833 952.5,871.5 Z"/></g>
<g><path style="opacity:1" fill="#f9faf9" d="M -0.5,950.5 C 23.5,950.5 47.5,950.5 71.5,950.5C 71.5,974.833 71.5,999.167 71.5,1023.5C 47.5,1023.5 23.5,1023.5 -0.5,1023.5C -0.5,999.167 -0.5,974.833 -0.5,950.5 Z"/></g>
<g><path style="opacity:1" fill="#f2f3f2" d="M 71.5,950.5 C 95.8333,950.5 120.167,950.5 144.5,950.5C 144.5,974.833 144.5,999.167 144.5,1023.5C 120.167,1023.5 95.8333,1023.5 71.5,1023.5C 71.5,999.167 71.5,974.833 71.5,950.5 Z"/></g>
<g><path style="opacity:1" fill="#f9faf9" d="M 71.5,871.5 C 95.8333,871.5 120.167,871.5 144.5,871.5C 144.796,898.735 144.963,924.735 145,949.5C 169.425,950.494 193.925,950.828 218.5,950.5C 218.5,974.833 218.5,999.167 218.5,1023.5C 193.833,1023.5 169.167,1023.5 144.5,1023.5C 144.5,999.167 144.5,974.833 144.5,950.5C 120.167,950.5 95.8333,950.5 71.5,950.5C 71.5,924.167 71.5,897.833 71.5,871.5 Z"/></g>
<g><path style="opacity:1" fill="#f2f3f2" d="M 218.5,950.5 C 242.833,950.5 267.167,950.5 291.5,950.5C 291.5,974.833 291.5,999.167 291.5,1023.5C 267.167,1023.5 242.833,1023.5 218.5,1023.5C 218.5,999.167 218.5,974.833 218.5,950.5 Z"/></g>
<g><path style="opacity:1" fill="#f9faf9" d="M 364.5,871.5 C 389.167,871.5 413.833,871.5 438.5,871.5C 438.5,897.833 438.5,924.167 438.5,950.5C 414.167,950.5 389.833,950.5 365.5,950.5C 364.921,974.594 364.921,998.928 365.5,1023.5C 340.833,1023.5 316.167,1023.5 291.5,1023.5C 291.5,999.167 291.5,974.833 291.5,950.5C 316.316,950.99 340.983,950.49 365.5,949C 364.852,923.387 364.519,897.554 364.5,871.5 Z"/></g>
<g><path style="opacity:1" fill="#f3f3f3" d="M 438.5,950.5 C 438.823,974.908 438.49,999.241 437.5,1023.5C 413.5,1023.5 389.5,1023.5 365.5,1023.5C 364.921,998.928 364.921,974.594 365.5,950.5C 389.833,950.5 414.167,950.5 438.5,950.5 Z"/></g>
<g><path style="opacity:1" fill="#f9faf9" d="M 438.5,950.5 C 462.833,950.5 487.167,950.5 511.5,950.5C 511.565,974.602 511.899,998.935 512.5,1023.5C 487.5,1023.5 462.5,1023.5 437.5,1023.5C 438.49,999.241 438.823,974.908 438.5,950.5 Z"/></g>
<g><path style="opacity:1" fill="#f3f2f3" d="M 511.5,950.5 C 536.167,950.5 560.833,950.5 585.5,950.5C 585.5,974.833 585.5,999.167 585.5,1023.5C 561.167,1023.5 536.833,1023.5 512.5,1023.5C 511.899,998.935 511.565,974.602 511.5,950.5 Z"/></g>
<g><path style="opacity:1" fill="#f9faf9" d="M 585.5,950.5 C 610.167,950.5 634.833,950.5 659.5,950.5C 659.5,974.833 659.5,999.167 659.5,1023.5C 634.833,1023.5 610.167,1023.5 585.5,1023.5C 585.5,999.167 585.5,974.833 585.5,950.5 Z"/></g>
<g><path style="opacity:1" fill="#f2f2f3" d="M 659.5,950.5 C 683.741,950.172 707.908,950.506 732,951.5C 732.178,974.509 732.012,998.509 731.5,1023.5C 707.5,1023.5 683.5,1023.5 659.5,1023.5C 659.5,999.167 659.5,974.833 659.5,950.5 Z"/></g>
<g><path style="opacity:1" fill="#f3f3f3" d="M 805.5,950.5 C 830.167,950.5 854.833,950.5 879.5,950.5C 879.596,974.906 879.263,999.239 878.5,1023.5C 854.167,1023.5 829.833,1023.5 805.5,1023.5C 805.5,999.167 805.5,974.833 805.5,950.5 Z"/></g>
<g><path style="opacity:1" fill="#f3f3f3" d="M 1023.5,950.5 C 1023.5,974.833 1023.5,999.167 1023.5,1023.5C 999.833,1023.5 976.167,1023.5 952.5,1023.5C 952.167,1006.49 952.501,989.487 953.5,972.5C 959.992,977.002 964.658,983.002 967.5,990.5C 971.519,979.148 979.185,971.481 990.5,967.5C 981.658,964.586 974.991,959.086 970.5,951C 988.164,950.5 1005.83,950.333 1023.5,950.5 Z"/></g>
</svg>
