<svg version="1.2" xmlns="http://www.w3.org/2000/svg" viewBox="0 0 500 500" width="1000" height="1000">
	<style>
		.s0 { opacity: .99;fill: #0491d9 } 
		.s1 { opacity: .69;fill: #0990d0 } 
		.s2 { opacity: .34;fill: #217e93 } 
		.s3 { opacity: .99;fill: #e10b81 } 
		.s4 { opacity: .8;fill: #0591d6 } 
		.s5 { opacity: .73;fill: #df0d81 } 
		.s6 { opacity: .19;fill: #0b91bd } 
		.s7 { opacity: .42;fill: #a30d80 } 
		.s8 { opacity: .44;fill: #0a90bc } 
		.s9 { opacity: .19;fill: #0789a0 } 
		.s10 { opacity: .34;fill: #0c91cc } 
		.s11 { opacity: .57;fill: #0691cf } 
		.s12 { opacity: .2;fill: #0f7391 } 
	</style>
	<g id="Background">
		<path id="Path 0" class="s0" d="m425.07 153.93l-0.18 8.25c6.27 0 9.68 0.76 11.62 1.69 1.94 0.93 4.44 3.51 5.54 5.73 1.41 2.83 2.32 11.14 3.02 27.64 0.68 15.92 1.66 25.12 3.02 28.31 1.11 2.59 4.08 6.67 6.6 9.06l4.58 4.33c-9.57 10.02-11.44 13.42-12.59 18.63-0.86 3.89-1.58 13.6-1.58 21.57-0.01 7.97-0.46 17.79-1.01 21.82-0.73 5.31-2.02 8.37-4.71 11.12-2.84 2.91-4.96 3.8-9.1 3.8h-5.39v16.17c16.2-0.05 21.39-0.88 24.94-2.47 2.96-1.33 6.67-4.19 8.24-6.37 1.56-2.18 3.61-6.39 4.55-9.36 0.94-2.96 2.13-16.61 2.64-30.33 0.8-21.38 1.31-25.5 3.54-28.88 1.43-2.16 4.57-4.74 6.98-5.73 2.41-0.98 5.6-1.79 7.08-1.79 2.37 0 2.7-0.9 2.7-7.42v-7.41c-8.89-1.97-12.82-3.94-14.47-5.65-1.65-1.71-3.62-5.24-4.38-7.83-0.76-2.6-1.39-12.3-1.41-21.57-0.01-9.27-0.53-20.5-1.16-24.94-0.63-4.45-2.28-10.48-3.68-13.39-1.42-2.97-4.88-6.82-7.85-8.76-4.35-2.84-7.3-3.56-16.34-3.98l-11.03-0.5z"/>
		<path id="Path 1" class="s1" d="m423.96 146.5c-0.48 1.02-0.57 5.11-0.22 9.1l0.65 7.26 0.5-16.85 8.76-0.92c-7.01-0.34-9.18 0.33-9.69 1.41zm20.23 52.09c0 4.81 0.25 6.63 0.55 4.04 0.3-2.6 0.3-6.54 0-8.76-0.3-2.23-0.55-0.1-0.55 4.72zm0.06 84.93c0 7.04 0.23 9.77 0.5 6.07 0.28-3.71 0.28-9.47 0-12.81-0.27-3.34-0.5-0.3-0.5 6.74zm-20.28 40.44c0 4.82 0.25 6.64 0.54 4.05 0.3-2.6 0.3-6.54 0-8.76-0.29-2.23-0.54-0.1-0.54 4.71z"/>
		<path id="Path 2" class="s2" d="m465.84 191.84c0 8.53 0.22 11.87 0.49 7.42 0.27-4.45 0.27-11.43 0-15.5-0.27-4.08-0.49-0.44-0.49 8.08zm-0.05 96.4c0.01 5.93 0.25 8.05 0.53 4.72 0.28-3.34 0.28-8.19-0.01-10.79-0.29-2.59-0.52 0.14-0.52 6.07z"/>
		<path id="Path 3" fill-rule="evenodd" class="s0" d="m71.67 146.01v16.17l-5.06-0.04c-3.03-0.03-6.54 1.05-8.76 2.69-2.04 1.51-4.27 4.72-4.95 7.13-0.68 2.41-1.49 14.09-1.79 25.95-0.5 19.46-0.87 22.22-3.82 28.21-1.79 3.65-4.93 8.05-10.67 12.91l4.28 3.71c2.35 2.04 5.46 6.44 6.9 9.77 2.11 4.89 2.81 10.78 3.58 30.34 0.69 17.23 1.52 25.13 2.87 27.25 1.05 1.65 3.28 3.62 4.95 4.39 1.67 0.76 5.15 1.39 12.47 1.39v16.17h-9.44c-5.47 0-11.56-0.88-14.49-2.09-2.78-1.16-6.48-3.43-8.21-5.06-1.73-1.63-4.08-5.08-5.22-7.68-1.46-3.35-2.35-12.13-3.06-30.33-0.55-14.09-1.63-27.13-2.39-28.99-0.77-1.85-2.83-4.68-4.57-6.29-1.75-1.61-5.45-3.28-13.29-4.49v-14.83l5.06-0.69c2.78-0.37 6.42-1.89 8.08-3.37 1.67-1.47 3.73-4.35 4.58-6.39 0.85-2.04 1.96-15.54 2.47-30 0.81-22.75 1.3-27.01 3.71-31.68 1.53-2.96 3.9-6.41 5.28-7.67 1.38-1.25 4.63-3.19 7.22-4.32 2.74-1.2 8.82-2.08 24.27-2.16zm83.58 16.17h21.57v138.87h-20.22l0.04-5.73c0.02-3.16-0.28-6.19-0.67-6.74-0.4-0.56-2.99 1.49-5.77 4.54-2.78 3.06-7.48 6.77-10.45 8.25-4.44 2.21-7.42 2.59-16.85 2.18-8.86-0.4-12.96-1.28-18.03-3.87-3.62-1.84-8.32-5.32-10.45-7.73-2.13-2.41-5.33-7.27-7.11-10.79-1.77-3.52-3.99-10.35-4.92-15.17-1-5.15-1.38-12.92-0.92-18.87 0.42-5.56 1.74-12.84 2.93-16.18 1.2-3.34 4.26-9.1 6.82-12.81 2.56-3.7 6.63-8.08 9.06-9.71 2.43-1.64 8.36-3.98 13.18-5.21 5.8-1.48 11.16-1.96 15.84-1.41 3.89 0.46 9.51 2.04 12.47 3.53 2.97 1.48 6.76 4.53 8.43 6.77 1.67 2.24 3.49 4.06 4.04 4.04 0.56-0.02 1.01-12.16 1.01-26.99zm-44.76 68.62c-1.83 2.67-4.03 7.73-4.89 11.26-0.87 3.52-1.58 8.22-1.58 10.45 0 2.22 0.92 7.53 2.03 11.79 1.11 4.27 3.09 9.2 4.38 10.96 1.3 1.77 4.08 4.5 6.18 6.07 2.61 1.95 6.24 2.98 11.46 3.25 6 0.31 8.77-0.27 12.95-2.7 3.58-2.08 6.42-5.28 8.72-9.83 2.46-4.86 3.56-9.55 3.97-16.85 0.39-6.99-0.11-12.19-1.61-16.85-1.24-3.83-4.09-8.56-6.59-10.94-2.43-2.31-6.54-4.9-9.13-5.75-2.6-0.86-6.24-1.52-8.09-1.47-1.85 0.05-5.87 1.37-8.92 2.92-3.05 1.56-7.05 5.02-8.88 7.69zm141.16-28.87c8.22 0.5 12.7 1.59 18.87 4.57 4.69 2.27 9.87 6.11 12.31 9.12 2.32 2.86 5.46 7.93 6.98 11.27 1.51 3.34 3.4 9.25 4.2 13.14 0.8 3.9 1.45 9.51 1.45 17.87l-76.17-0.04 0.94 5.75c0.52 3.16 1.85 7.57 2.96 9.79 1.11 2.23 3.72 5.71 5.8 7.75 2.18 2.13 6.93 4.54 11.2 5.67 5.79 1.54 8.89 1.65 14.15 0.53 5.35-1.14 8.07-2.8 19.55-14.62h9.44c5.19 0 9.44 0.3 9.44 0.67 0 0.37-1.37 3.52-3.04 6.99-1.66 3.47-5.3 8.62-8.09 11.46-2.78 2.83-7.93 6.49-11.45 8.14-4.94 2.31-9.5 3.1-19.89 3.47-11.44 0.4-14.71 0.02-21.57-2.56-4.45-1.67-9.54-4.29-11.31-5.83-1.78-1.54-4.7-4.31-6.5-6.16-1.8-1.86-4.75-6.26-6.55-9.78-1.8-3.52-3.98-10.8-4.85-16.18-1.19-7.43-1.19-12.11 0-19.54 0.87-5.38 2.94-12.64 4.61-16.15 1.66-3.5 5.61-8.96 8.76-12.13 3.15-3.17 7.55-6.68 9.77-7.79 2.23-1.11 7.23-2.93 11.12-4.04 4.82-1.38 10.53-1.82 17.87-1.37zm-25.51 27.99c-1.79 3.15-3.46 7.25-3.7 9.1l-0.45 3.37 49.21 0.68c0-5.23-1.07-8.97-2.36-11.69-1.3-2.73-4.18-6.39-6.41-8.13-2.97-2.34-6.36-3.36-12.8-3.87-7.04-0.56-9.89-0.15-14.5 2.06-3.87 1.86-6.79 4.62-8.99 8.48zm139.09-28.52c2.41-0.07 5.29 0.18 6.4 0.55 1.55 0.51 2.03 2.92 2.03 19.55h-8.09q-8.09 0-13.48 2.69c-2.97 1.49-6.85 4.67-8.62 7.08-1.77 2.41-3.89 7.57-4.72 11.46-0.82 3.89-1.49 18.61-1.49 58.31h-20.23v-97.07h18.88l-0.04 6.41c-0.02 3.52 0.28 6.85 0.68 7.41 0.39 0.56 3.89-2.25 7.78-6.24 4.09-4.18 9.07-7.83 11.8-8.64 2.6-0.76 6.69-1.45 9.1-1.51zm33.91 9.31c4.1 0 6.4 0.87 8.9 3.37 1.85 1.86 3.72 4.74 4.15 6.41 0.43 1.66-0.18 5.3-1.35 8.09-1.33 3.15-3.53 5.6-5.84 6.51-2.04 0.8-5.83 1.12-8.42 0.71-2.94-0.46-5.87-2.15-7.75-4.49-1.82-2.25-2.97-5.43-2.89-7.98 0.09-2.6 1.61-5.87 3.91-8.43 3.05-3.39 4.82-4.19 9.29-4.19zm-13.35 57.97h25.11l-0.13 15.17c-0.11 11.36-0.72 16.35-2.45 19.89-1.27 2.59-3.67 6.3-5.34 8.24-1.67 1.93-5.46 5.14-8.43 7.11-2.96 1.98-5.84 3.58-6.4 3.56-0.56-0.02-2.19-2.01-6.26-8.8l4.84-4.05c2.66-2.22 5.57-5.56 6.48-7.41 0.9-1.86 2.03-5.04 2.5-7.08 0.83-3.57 0.67-3.71-9.92-3.71z"/>
		<path id="Path 4" class="s3" d="m221.42 328.3c-4.03 6.89-7.56 12.82-7.87 13.19-0.3 0.37-41.3 0.98-91.1 1.35l-90.55 0.67c-0.65 5.23-0.04 7.19 0.93 7.73 0.97 0.55 43.17 1 93.78 1.02l92.01 0.02c9.98-17.98 12.81-21.73 13.54-20.9 0.65 0.74 6.21 10.14 12.35 20.9 9.56 16.7 11.66 19.54 14.45 19.54 2.74 0 4.92-2.76 13.74-17.52 5.76-9.64 11.2-17.53 12.08-17.53 0.88 0 3.82 3.34 6.52 7.42l4.92 7.41c126.36 0.58 164.41 0.43 166.08 0.04 2.36-0.55 2.96-1.54 2.7-4.42l-0.34-3.71-162.9-1.34c-6.83-9.41-8.85-12.59-8.9-13.15-0.05-0.56-1.31-2.83-2.79-5.06-1.5-2.24-3.89-4.04-5.39-4.04-2.03 0-5.33 4.44-13.31 17.86-5.83 9.83-11.34 17.87-12.24 17.87-0.9 0-6.61-8.8-12.68-19.55-9.15-16.19-11.62-19.62-14.38-19.93-2.92-0.33-4.26 1.2-10.65 12.13z"/>
		<path id="Path 5" class="s4" d="m154.43 179.71c0 10.01 0.22 13.95 0.48 8.76 0.25-5.19 0.25-13.38 0-18.2-0.26-4.82-0.48-0.57-0.48 9.44zm-124.19 28.31c0 3.34 0.26 4.55 0.59 2.7 0.32-1.85 0.32-4.58 0-6.07-0.33-1.48-0.59 0.04-0.59 3.37zm286.06 44.49c0 27.07 0.18 37.99 0.4 24.27 0.22-13.72 0.22-35.86 0-49.21-0.22-13.35-0.4-2.12-0.4 24.94zm19.99-41.12c0.01 3.82 0.26 4.99 0.58 2.7 0.31-2.23 0.3-5.26-0.02-6.74-0.31-1.48-0.57 0.34-0.56 4.04zm1.46 48.54c0 7.41 0.23 10.14 0.5 6.06 0.27-4.07 0.27-10.14-0.01-13.48-0.27-3.33-0.49 0-0.49 7.42zm-307.54 10.78c0.02 3.22 0.26 4.03 0.61 2.02 0.32-1.85 0.3-4.28-0.03-5.39-0.33-1.11-0.59 0.41-0.58 3.37zm92.44 33.99c1.71 0.32 4.14 0.31 5.39-0.03 1.25-0.34-0.15-0.6-3.12-0.59-2.97 0.02-3.99 0.29-2.27 0.62zm122.26-0.01c1.48 0.33 4.21 0.33 6.06 0 1.86-0.32 0.64-0.58-2.69-0.58-3.34 0-4.86 0.26-3.37 0.58z"/>
		<path id="Path 6" class="s1" d="m30.35 187.8c0 6.3 0.23 8.73 0.51 5.39 0.29-3.33 0.29-8.49 0-11.46-0.28-2.96-0.51-0.23-0.51 6.07zm124.01 18.87c0 5.57 0.24 7.99 0.53 5.4 0.29-2.6 0.29-7.15 0-10.11-0.29-2.97-0.53-0.85-0.53 4.71zm85.83 52.24c10.75 0.23 27.74 0.23 37.75 0 10.01-0.23 1.21-0.41-19.55-0.41-20.76 0-28.95 0.19-18.2 0.41zm97.06 28.26c-0.37 8.3-0.21 14.67 0.36 14.15 0.56-0.52 0.86-7.32 0.66-15.1l-0.35-14.16zm-307.01-6.34c0 3.34 0.26 4.55 0.58 2.69 0.32-1.85 0.32-4.58 0-6.06-0.32-1.48-0.58 0.03-0.58 3.37zm135.8 21.19c1.85 0.31 5.19 0.31 7.41 0 2.23-0.31 0.71-0.56-3.37-0.56-4.08 0-5.9 0.25-4.04 0.56zm151.66-0.02c1.49 0.32 4.22 0.32 6.07 0 1.86-0.32 0.64-0.58-2.69-0.58-3.34 0-4.86 0.26-3.38 0.58zm-256.82 31.03c2.59 0.3 6.23 0.29 8.09-0.01 1.85-0.31-0.27-0.55-4.72-0.54-4.45 0-5.97 0.25-3.37 0.55z"/>
		<path id="Path 7" class="s5" d="m79.76 342.5c24.84 0.21 64.88 0.21 88.98 0 24.09-0.2 3.77-0.37-45.17-0.37-48.94 0-68.65 0.17-43.81 0.37zm262.89 0c22.61 0.21 59.02 0.21 80.89 0 21.87-0.21 3.37-0.38-41.12-0.38-44.49 0-62.39 0.17-39.77 0.38z"/>
		<path id="Path 8" class="s6" d="m362.2 200.88c1.48 0.33 4.21 0.33 6.06 0 1.86-0.32 0.64-0.58-2.69-0.58-3.34 0-4.86 0.26-3.37 0.58zm-47.27 52.98c0 21.87 0.19 30.67 0.42 19.55 0.22-11.12 0.22-29.02 0-39.77-0.23-10.75-0.42-1.65-0.42 20.22zm-117.47-0.67c0.01 4.45 0.26 5.96 0.56 3.37 0.3-2.6 0.29-6.24-0.01-8.09-0.31-1.86-0.55 0.27-0.55 4.72zm80.48 19.18c3.33 0.29 8.19 0.28 10.78-0.01 2.6-0.28-0.13-0.52-6.06-0.51-5.94 0-8.06 0.24-4.72 0.52z"/>
		<path id="Path 9" class="s7" d="m79.08 353.29c25.21 0.2 66.77 0.2 92.35 0 25.58-0.21 4.96-0.38-45.84-0.38-50.79 0-71.72 0.17-46.51 0.38zm259.52 0c23.36 0.2 60.98 0.2 83.59 0 22.62-0.21 3.51-0.38-42.47-0.38-45.97 0-64.47 0.17-41.12 0.38z"/>
		<path id="Path 10" class="s8" d="m321.08 203.62c3.34 0.28 8.19 0.28 10.78-0.01 2.6-0.29-0.13-0.52-6.06-0.52-5.93 0.01-8.06 0.24-4.72 0.53zm72.8 64.69c1.85 0.31 5.19 0.31 7.41 0 2.23-0.31 0.71-0.56-3.37-0.56-4.07 0-5.89 0.25-4.04 0.56zm14.48-0.09c1.67 0.35 3.24 1.36 3.5 2.24 0.27 0.88 0.41 0.69 0.34-0.42-0.09-1.15-1.59-2.12-3.5-2.24-2.95-0.2-2.99-0.15-0.34 0.42z"/>
		<path id="Path 11" class="s9" d="m384.87 282.17c0 4.82 0.25 6.64 0.55 4.05 0.3-2.6 0.3-6.54 0-8.77-0.3-2.22-0.55-0.1-0.55 4.72z"/>
		<path id="Path 12" class="s10" d="m72.07 154.1c0 4.07 0.25 5.59 0.56 3.37 0.31-2.23 0.31-5.57 0-7.42-0.31-1.85-0.56-0.03-0.56 4.05zm-20.15 36.4c0 6.3 0.23 8.73 0.51 5.39 0.29-3.34 0.29-8.49 0-11.46-0.28-2.97-0.51-0.24-0.51 6.07zm192.31 10.41c2.6 0.3 6.24 0.29 8.09-0.02 1.86-0.3-0.27-0.55-4.72-0.54-4.45 0.01-5.96 0.26-3.37 0.56z"/>
		<path id="Path 13" class="s11" d="m58.86 145.61c1.48 0.32 4.21 0.32 6.07 0 1.85-0.32 0.64-0.58-2.7-0.58-3.34 0-4.85 0.26-3.37 0.58zm101.11 16.22c3.71 0.28 9.17 0.27 12.14-0.01 2.96-0.28-0.07-0.51-6.74-0.5-6.68 0-9.1 0.23-5.4 0.51zm201.55 60.64c1.86 0.31 5.19 0.31 7.42 0 2.22-0.31 0.71-0.56-3.37-0.56-4.08 0-5.9 0.25-4.05 0.56zm-281.36 30.04c0 4.08 0.25 5.6 0.56 3.37 0.31-2.22 0.31-5.56 0-7.41-0.31-1.86-0.56-0.04-0.56 4.04z"/>
		<path id="Path 14" class="s12" d="m177.35 179.71c0 10.01 0.21 13.95 0.47 8.76 0.26-5.19 0.26-13.38 0-18.2-0.26-4.82-0.47-0.57-0.47 9.44zm0.04 72.8c0 15.2 0.2 21.27 0.44 13.48 0.24-7.78 0.24-20.22 0-27.63-0.24-7.42-0.44-1.05-0.44 14.15z"/>
		<path id="Path 15" class="s1" d="m220.31 241.73c0.47 1.7 4.63 2.03 26.73 2.07l26.18 0.04c-43.73-0.74-51.56-1.35-52.35-2.5-0.78-1.15-0.94-1.03-0.56 0.39zm-66 10.78c0 4.08 0.25 5.6 0.56 3.37 0.31-2.22 0.31-5.56 0-7.41-0.31-1.86-0.56-0.04-0.56 4.04z"/>
	</g>
</svg>