<?xml version="1.0" encoding="UTF-8"?>
<!DOCTYPE svg PUBLIC "-//W3C//DTD SVG 1.1//EN" "http://www.w3.org/Graphics/SVG/1.1/DTD/svg11.dtd">
<svg xmlns="http://www.w3.org/2000/svg" version="1.1" width="500px" height="500px" style="shape-rendering:geometricPrecision; text-rendering:geometricPrecision; image-rendering:optimizeQuality; fill-rule:evenodd; clip-rule:evenodd" xmlns:xlink="http://www.w3.org/1999/xlink">
<g><path style="opacity:1" fill="#1c7a97" d="M 112.5,164.5 C 114.591,164.318 116.591,164.652 118.5,165.5C 119.487,168.768 119.82,172.102 119.5,175.5C 118.883,175.611 118.383,175.944 118,176.5C 117.667,173.5 117.333,170.5 117,167.5C 114.974,167.085 113.474,166.085 112.5,164.5 Z"/></g>
<g><path style="opacity:1" fill="#177aac" d="M 404.5,171.5 C 396.874,167.056 388.541,165.39 379.5,166.5C 378.255,175.255 381.922,178.922 390.5,177.5C 390.323,179.981 391.323,181.814 393.5,183C 392.724,184.77 392.89,186.603 394,188.5C 394.5,199.828 394.667,211.162 394.5,222.5C 393.698,221.048 393.198,219.382 393,217.5C 392.907,206.442 392.24,195.442 391,184.5C 390.167,183 389,181.833 387.5,181C 384.242,180.788 381.076,180.288 378,179.5C 377.333,174.833 377.333,170.167 378,165.5C 379.062,164.903 380.228,164.57 381.5,164.5C 386.481,165.165 391.481,165.665 396.5,166C 399.756,167.116 402.422,168.949 404.5,171.5 Z"/></g>
<g><path style="opacity:1" fill="#1a5670" d="M 119.5,177.5 C 119.586,178.496 119.252,179.329 118.5,180C 115.167,180.333 111.833,180.667 108.5,181C 106.959,182.579 105.792,184.413 105,186.5C 104.829,194.344 104.329,202.011 103.5,209.5C 103.5,201.5 103.5,193.5 103.5,185.5C 104.473,183.7 105.473,181.866 106.5,180C 111.053,179.951 115.386,179.117 119.5,177.5 Z"/></g>
<g><path style="opacity:1" fill="#028ed9" d="M 111.5,164.5 C 111.833,164.5 112.167,164.5 112.5,164.5C 113.474,166.085 114.974,167.085 117,167.5C 117.333,170.5 117.667,173.5 118,176.5C 118.383,175.944 118.883,175.611 119.5,175.5C 119.5,176.167 119.5,176.833 119.5,177.5C 115.386,179.117 111.053,179.951 106.5,180C 105.473,181.866 104.473,183.7 103.5,185.5C 102.18,186.942 100.514,187.608 98.5,187.5C 98.719,186.325 98.3857,185.325 97.5,184.5C 96.2638,185.246 94.9305,185.579 93.5,185.5C 93.372,187.655 93.872,189.655 95,191.5C 95.3076,190.692 95.8076,190.025 96.5,189.5C 98.2555,189.36 99.9222,189.86 101.5,191C 100.69,196.751 100.19,202.584 100,208.5C 99.6258,209.416 99.1258,210.25 98.5,211C 99.3945,214.414 100.061,217.914 100.5,221.5C 100.14,223.421 99.3064,225.088 98,226.5C 97.3333,225.167 96.6667,225.167 96,226.5C 96.1699,232.397 93.6699,233.73 88.5,230.5C 86.0266,228.902 86.0266,227.402 88.5,226C 86.2908,225.043 86.4575,223.876 89,222.5C 89.2779,218.806 89.2779,215.139 89,211.5C 89.6667,210.833 90.3333,210.167 91,209.5C 91.3333,211.167 91.6667,212.833 92,214.5C 93.023,213.4 93.523,212.067 93.5,210.5C 92.1489,203.25 90.8155,196.084 89.5,189C 89.6667,188.167 89.8333,187.333 90,186.5C 90.6667,185.167 91.3333,185.167 92,186.5C 92.4955,184.527 92.6621,182.527 92.5,180.5C 94.677,180.586 96.677,181.253 98.5,182.5C 100.23,181.974 101.564,180.974 102.5,179.5C 102.167,178.5 101.5,177.833 100.5,177.5C 98.5675,178.52 96.5675,178.687 94.5,178C 93.7607,176.235 93.7607,174.235 94.5,172C 96.6565,171.922 98.6565,171.755 100.5,171.5C 101.874,172.711 103.374,173.711 105,174.5C 107.77,173.652 110.603,173.319 113.5,173.5C 113.5,172.5 113.5,171.5 113.5,170.5C 111.876,170.36 110.71,171.027 110,172.5C 107.763,171.944 105.763,170.944 104,169.5C 103.667,170.167 103.333,170.833 103,171.5C 102.5,170.333 101.667,169.5 100.5,169C 100.957,168.586 101.291,168.086 101.5,167.5C 105.263,167.104 108.597,166.104 111.5,164.5 Z"/></g>
<g><path style="opacity:1" fill="#028ed6" d="M 404.5,171.5 C 405.323,174.871 406.489,178.204 408,181.5C 408.333,192.167 408.667,202.833 409,213.5C 409.965,218.536 411.465,223.37 413.5,228C 416.859,228.771 420.192,229.605 423.5,230.5C 424.657,233.784 424.824,237.118 424,240.5C 421.208,241.098 418.542,242.098 416,243.5C 415.228,243.355 414.561,243.022 414,242.5C 413.51,243.793 413.343,245.127 413.5,246.5C 412.25,246.577 411.417,247.244 411,248.5C 410.931,253.052 409.764,257.218 407.5,261C 408.54,271.89 408.54,282.723 407.5,293.5C 406.5,293.5 405.5,293.5 404.5,293.5C 404.216,295.415 404.549,297.081 405.5,298.5C 405.5,299.167 405.167,299.5 404.5,299.5C 401.784,299.678 399.117,300.178 396.5,301C 396.167,302 395.833,303 395.5,304C 390.845,304.499 386.179,304.666 381.5,304.5C 380.047,301.014 379.381,297.347 379.5,293.5C 382.518,293.665 385.518,293.498 388.5,293C 390.223,292.477 391.556,291.477 392.5,290C 392.981,275.124 393.981,260.29 395.5,245.5C 396.349,241.138 398.682,237.805 402.5,235.5C 398.032,232.222 395.365,227.889 394.5,222.5C 394.667,211.162 394.5,199.828 394,188.5C 392.89,186.603 392.724,184.77 393.5,183C 391.323,181.814 390.323,179.981 390.5,177.5C 381.922,178.922 378.255,175.255 379.5,166.5C 388.541,165.39 396.874,167.056 404.5,171.5 Z"/></g>
<g><path style="opacity:1" fill="#028ed8" d="M 195.5,179.5 C 195.5,213.5 195.5,247.5 195.5,281.5C 192.167,281.5 188.833,281.5 185.5,281.5C 182.99,279.447 181.656,277.114 181.5,274.5C 181.846,273.304 182.346,273.304 183,274.5C 183.563,273.275 183.23,272.275 182,271.5C 179.985,272.842 177.818,273.342 175.5,273C 177.831,271.2 177.831,269.2 175.5,267C 174.231,267.109 173.231,266.942 172.5,266.5C 174.029,264.038 175.696,261.705 177.5,259.5C 178.7,249.495 178.7,239.495 177.5,229.5C 178.164,228.352 178.331,227.019 178,225.5C 179.067,224.809 180.234,224.309 181.5,224C 180.308,222.088 179.308,220.088 178.5,218C 180.32,217.021 181.487,215.521 182,213.5C 183.724,216.17 184.891,215.837 185.5,212.5C 185.162,208.838 183.995,208.171 182,210.5C 181.329,209.748 180.496,209.414 179.5,209.5C 179.17,202.8 179.503,196.134 180.5,189.5C 181.308,189.192 181.975,188.692 182.5,188C 178.778,187.582 177.778,185.749 179.5,182.5C 180.724,181.234 182.057,180.067 183.5,179C 187.587,178.238 191.587,178.404 195.5,179.5 Z"/></g>
<g><path style="opacity:1" fill="#145276" d="M 87.5,180.5 C 87.0523,192.666 86.3856,204.666 85.5,216.5C 85.3335,206.828 85.5002,197.161 86,187.5C 86.1862,184.964 86.6862,182.631 87.5,180.5 Z"/></g>
<g><path style="opacity:1" fill="#1376a7" d="M 195.5,177.5 C 195.5,178.167 195.5,178.833 195.5,179.5C 191.587,178.404 187.587,178.238 183.5,179C 182.057,180.067 180.724,181.234 179.5,182.5C 177.778,185.749 178.778,187.582 182.5,188C 181.975,188.692 181.308,189.192 180.5,189.5C 179.503,196.134 179.17,202.8 179.5,209.5C 179.5,211.5 179.5,213.5 179.5,215.5C 177.517,215.843 176.183,215.176 175.5,213.5C 176.117,213.611 176.617,213.944 177,214.5C 177.333,202.167 177.667,189.833 178,177.5C 183.932,176.175 189.766,176.175 195.5,177.5 Z"/></g>
<g><path style="opacity:1" fill="#0f8aca" d="M 283.5,236.5 C 283.5,241.167 283.5,245.833 283.5,250.5C 265.167,250.5 246.833,250.5 228.5,250.5C 228.232,252.099 228.566,253.432 229.5,254.5C 230.302,257.574 231.302,260.574 232.5,263.5C 231.5,263.5 230.5,263.5 229.5,263.5C 229.011,258.686 227.011,254.52 223.5,251C 225.487,248.901 227.987,247.734 231,247.5C 232.059,247.63 232.892,248.13 233.5,249C 249.83,249.5 266.163,249.667 282.5,249.5C 282.657,248.127 282.49,246.793 282,245.5C 280.053,244.89 278.219,244.057 276.5,243C 277.081,242.107 277.415,241.107 277.5,240C 276.833,238 276.167,236 275.5,234C 277.96,231.251 278.793,228.084 278,224.5C 275.562,225.866 275.062,225.366 276.5,223C 275.022,221.522 273.522,220.022 272,218.5C 269.935,219.628 269.268,221.294 270,223.5C 270.333,222.833 270.667,222.167 271,221.5C 271.318,223.061 272.151,224.228 273.5,225C 272.216,225.684 271.049,225.517 270,224.5C 269.667,225.5 269.333,226.5 269,227.5C 267.736,225.393 265.903,224.393 263.5,224.5C 264.721,227.679 265.721,231.012 266.5,234.5C 266.387,236.641 265.72,238.475 264.5,240C 252.807,240.693 241.14,240.36 229.5,239C 228.577,236.959 228.244,234.792 228.5,232.5C 227.5,232.5 226.5,232.5 225.5,232.5C 225.5,231.5 225.5,230.5 225.5,229.5C 227.167,229.5 228.833,229.5 230.5,229.5C 230.627,226.755 229.46,224.755 227,223.5C 223.802,227.484 222.635,226.984 223.5,222C 225.597,220.39 227.93,219.223 230.5,218.5C 229.5,217.5 228.5,216.5 227.5,215.5C 226.363,218.05 224.029,220.05 220.5,221.5C 219.253,223.006 219.253,224.506 220.5,226C 219.167,226.667 217.833,227.333 216.5,228C 217.147,229.609 217.98,231.109 219,232.5C 219.219,231.062 219.719,229.729 220.5,228.5C 221.92,238.224 221.754,247.891 220,257.5C 219.5,257 219,256.5 218.5,256C 219.641,250.25 219.807,244.416 219,238.5C 216.171,232.841 215.004,233.175 215.5,239.5C 214.5,239.5 213.5,239.5 212.5,239.5C 212.5,246.5 212.5,253.5 212.5,260.5C 210.967,256.104 210.3,251.437 210.5,246.5C 212.099,216.081 228.099,202.914 258.5,207C 273.522,211.235 281.856,221.068 283.5,236.5 Z M 240.5,221.5 C 251.118,218.77 258.952,222.104 264,231.5C 264.667,233.5 264.667,235.5 264,237.5C 252.91,238.653 241.743,238.82 230.5,238C 229.978,237.439 229.645,236.772 229.5,236C 231.145,229.506 234.811,224.672 240.5,221.5 Z"/></g>
<g><path style="opacity:1" fill="#078cd0" d="M 175.5,213.5 C 176.183,215.176 177.517,215.843 179.5,215.5C 179.5,213.5 179.5,211.5 179.5,209.5C 180.496,209.414 181.329,209.748 182,210.5C 183.995,208.171 185.162,208.838 185.5,212.5C 184.891,215.837 183.724,216.17 182,213.5C 181.487,215.521 180.32,217.021 178.5,218C 179.308,220.088 180.308,222.088 181.5,224C 180.234,224.309 179.067,224.809 178,225.5C 178.331,227.019 178.164,228.352 177.5,229.5C 176.5,229.5 175.5,229.5 174.5,229.5C 169.582,223.513 163.249,221.346 155.5,223C 148.327,226.332 143.994,231.832 142.5,239.5C 141.238,245.037 141.238,250.703 142.5,256.5C 140.933,255.319 140.099,253.653 140,251.5C 139.216,248.24 139.383,245.073 140.5,242C 139.743,240.488 138.743,239.154 137.5,238C 140.335,235.158 139.835,232.992 136,231.5C 134.539,235.947 131.706,237.947 127.5,237.5C 126.403,233.223 126.403,228.89 127.5,224.5C 131.156,215.351 137.822,209.518 147.5,207C 156.186,205.608 164.519,206.608 172.5,210C 173.71,211.039 174.71,212.206 175.5,213.5 Z"/></g>
<g><path style="opacity:1" fill="#217caa" d="M 318.5,232.5 C 318.714,230.856 318.38,229.356 317.5,228C 318.448,227.517 319.448,227.351 320.5,227.5C 320.324,223.842 321.824,222.842 325,224.5C 326.722,224.389 326.888,223.889 325.5,223C 330.489,222.501 335.489,222.334 340.5,222.5C 341.229,217.87 341.563,213.203 341.5,208.5C 337.486,208.334 333.486,208.501 329.5,209C 326.721,210.722 323.721,211.889 320.5,212.5C 322.095,209.74 324.428,207.907 327.5,207C 332.533,206.171 337.533,206.338 342.5,207.5C 342.292,212.263 342.625,217.097 343.5,222C 343.333,223.5 342.5,224.333 341,224.5C 331.609,222.128 324.109,224.795 318.5,232.5 Z"/></g>
<g><path style="opacity:1" fill="#028dd6" d="M 232.5,263.5 C 234.984,266.244 237.984,268.244 241.5,269.5C 251.941,273.687 260.274,271.021 266.5,261.5C 270.698,260.191 274.864,260.191 279,261.5C 280.268,265.227 279.102,267.727 275.5,269C 276.337,270.011 276.67,271.178 276.5,272.5C 275.167,272.5 273.833,272.5 272.5,272.5C 272.5,274.167 272.5,275.833 272.5,277.5C 272.167,277.5 271.833,277.5 271.5,277.5C 267.662,277.828 264.329,279.328 261.5,282C 258.424,282.346 255.424,283.012 252.5,284C 246.107,284.38 239.774,283.88 233.5,282.5C 222.451,279.093 215.451,271.759 212.5,260.5C 212.5,253.5 212.5,246.5 212.5,239.5C 213.5,239.5 214.5,239.5 215.5,239.5C 215.004,233.175 216.171,232.841 219,238.5C 219.807,244.416 219.641,250.25 218.5,256C 219,256.5 219.5,257 220,257.5C 221.754,247.891 221.92,238.224 220.5,228.5C 219.719,229.729 219.219,231.062 219,232.5C 217.98,231.109 217.147,229.609 216.5,228C 217.833,227.333 219.167,226.667 220.5,226C 219.253,224.506 219.253,223.006 220.5,221.5C 224.029,220.05 226.363,218.05 227.5,215.5C 228.5,216.5 229.5,217.5 230.5,218.5C 227.93,219.223 225.597,220.39 223.5,222C 222.635,226.984 223.802,227.484 227,223.5C 229.46,224.755 230.627,226.755 230.5,229.5C 228.833,229.5 227.167,229.5 225.5,229.5C 225.5,230.5 225.5,231.5 225.5,232.5C 226.5,232.5 227.5,232.5 228.5,232.5C 228.244,234.792 228.577,236.959 229.5,239C 241.14,240.36 252.807,240.693 264.5,240C 265.72,238.475 266.387,236.641 266.5,234.5C 265.721,231.012 264.721,227.679 263.5,224.5C 265.903,224.393 267.736,225.393 269,227.5C 269.333,226.5 269.667,225.5 270,224.5C 271.049,225.517 272.216,225.684 273.5,225C 272.151,224.228 271.318,223.061 271,221.5C 270.667,222.167 270.333,222.833 270,223.5C 269.268,221.294 269.935,219.628 272,218.5C 273.522,220.022 275.022,221.522 276.5,223C 275.062,225.366 275.562,225.866 278,224.5C 278.793,228.084 277.96,231.251 275.5,234C 276.167,236 276.833,238 277.5,240C 277.415,241.107 277.081,242.107 276.5,243C 278.219,244.057 280.053,244.89 282,245.5C 282.49,246.793 282.657,248.127 282.5,249.5C 266.163,249.667 249.83,249.5 233.5,249C 232.892,248.13 232.059,247.63 231,247.5C 227.987,247.734 225.487,248.901 223.5,251C 227.011,254.52 229.011,258.686 229.5,263.5C 230.5,263.5 231.5,263.5 232.5,263.5 Z M 240.5,221.5 C 234.811,224.672 231.145,229.506 229.5,236C 229.645,236.772 229.978,237.439 230.5,238C 241.743,238.82 252.91,238.653 264,237.5C 264.667,235.5 264.667,233.5 264,231.5C 258.952,222.104 251.118,218.77 240.5,221.5 Z"/></g>
<g><path style="opacity:1" fill="#048dd4" d="M 318.5,232.5 C 317.96,235.865 317.294,239.198 316.5,242.5C 315.669,254.66 315.169,266.993 315,279.5C 309.803,281.42 304.303,282.087 298.5,281.5C 298.5,257.5 298.5,233.5 298.5,209.5C 303.179,209.334 307.845,209.501 312.5,210C 313.869,211.719 314.869,213.552 315.5,215.5C 315.435,215.938 315.601,216.272 316,216.5C 317.307,214.808 318.807,213.475 320.5,212.5C 323.721,211.889 326.721,210.722 329.5,209C 333.486,208.501 337.486,208.334 341.5,208.5C 341.563,213.203 341.229,217.87 340.5,222.5C 335.489,222.334 330.489,222.501 325.5,223C 326.888,223.889 326.722,224.389 325,224.5C 321.824,222.842 320.324,223.842 320.5,227.5C 319.448,227.351 318.448,227.517 317.5,228C 318.38,229.356 318.714,230.856 318.5,232.5 Z"/></g>
<g><path style="opacity:1" fill="#0a8bcc" d="M 111.5,164.5 C 108.597,166.104 105.263,167.104 101.5,167.5C 101.291,168.086 100.957,168.586 100.5,169C 101.667,169.5 102.5,170.333 103,171.5C 103.333,170.833 103.667,170.167 104,169.5C 105.763,170.944 107.763,171.944 110,172.5C 110.71,171.027 111.876,170.36 113.5,170.5C 113.5,171.5 113.5,172.5 113.5,173.5C 110.603,173.319 107.77,173.652 105,174.5C 103.374,173.711 101.874,172.711 100.5,171.5C 98.6565,171.755 96.6565,171.922 94.5,172C 93.7607,174.235 93.7607,176.235 94.5,178C 96.5675,178.687 98.5675,178.52 100.5,177.5C 101.5,177.833 102.167,178.5 102.5,179.5C 101.564,180.974 100.23,181.974 98.5,182.5C 96.677,181.253 94.677,180.586 92.5,180.5C 92.6621,182.527 92.4955,184.527 92,186.5C 91.3333,185.167 90.6667,185.167 90,186.5C 89.8333,187.333 89.6667,188.167 89.5,189C 90.8155,196.084 92.1489,203.25 93.5,210.5C 93.523,212.067 93.023,213.4 92,214.5C 91.6667,212.833 91.3333,211.167 91,209.5C 90.3333,210.167 89.6667,210.833 89,211.5C 89.2779,215.139 89.2779,218.806 89,222.5C 86.4575,223.876 86.2908,225.043 88.5,226C 86.0266,227.402 86.0266,228.902 88.5,230.5C 93.6699,233.73 96.1699,232.397 96,226.5C 96.6667,225.167 97.3333,225.167 98,226.5C 99.3064,225.088 100.14,223.421 100.5,221.5C 100.061,217.914 99.3945,214.414 98.5,211C 99.1258,210.25 99.6258,209.416 100,208.5C 100.19,202.584 100.69,196.751 101.5,191C 99.9222,189.86 98.2555,189.36 96.5,189.5C 95.8076,190.025 95.3076,190.692 95,191.5C 93.872,189.655 93.372,187.655 93.5,185.5C 94.9305,185.579 96.2638,185.246 97.5,184.5C 98.3857,185.325 98.719,186.325 98.5,187.5C 100.514,187.608 102.18,186.942 103.5,185.5C 103.5,193.5 103.5,201.5 103.5,209.5C 104.734,219.704 101.734,228.37 94.5,235.5C 95.8569,237.186 97.1902,238.852 98.5,240.5C 98.5,241.167 98.5,241.833 98.5,242.5C 97.5,242.5 96.5,242.5 95.5,242.5C 95.719,241.325 95.3857,240.325 94.5,239.5C 93.8681,242.03 92.8681,244.363 91.5,246.5C 92.8368,246.74 94.5035,247.24 96.5,248C 97.3366,249.011 97.67,250.178 97.5,251.5C 95.5082,251.328 93.8415,251.995 92.5,253.5C 91.6509,251.106 90.6509,248.773 89.5,246.5C 89.1109,242.767 89.7776,239.1 91.5,235.5C 90.448,235.649 89.448,235.483 88.5,235C 87.2356,232.191 85.2356,230.024 82.5,228.5C 80.3796,229.403 80.0462,230.737 81.5,232.5C 81.1924,233.308 80.6924,233.975 80,234.5C 79.7645,232.881 78.9311,231.881 77.5,231.5C 79.0627,230.055 80.396,228.389 81.5,226.5C 83.6969,223.534 85.0302,220.201 85.5,216.5C 86.3856,204.666 87.0523,192.666 87.5,180.5C 91.0056,168.729 99.0056,163.396 111.5,164.5 Z"/></g>
<g><path style="opacity:1" fill="#1a78a8" d="M 367.5,232.5 C 360.98,236.74 355.146,235.74 350,229.5C 347.614,218.228 352.114,212.728 363.5,213C 370.648,215.798 373.148,220.964 371,228.5C 370.34,230.324 369.173,231.657 367.5,232.5 Z"/></g>
<g><path style="opacity:1" fill="#028ed5" d="M 367.5,232.5 C 364.167,232.833 360.833,233.167 357.5,233.5C 358.035,230.762 357.035,228.928 354.5,228C 354.833,227.667 355.167,227.333 355.5,227C 354.095,225.731 352.429,225.231 350.5,225.5C 350.055,222.635 350.722,220.135 352.5,218C 355.193,217.657 357.193,216.324 358.5,214C 361.598,213.729 364.432,214.562 367,216.5C 368.579,219.159 369.746,221.992 370.5,225C 369.465,227.535 368.465,230.035 367.5,232.5 Z"/></g>
<g><path style="opacity:1" fill="#1e668a" d="M 195.5,177.5 C 196.177,188.235 196.844,199.069 197.5,210C 196.175,233.291 196.175,256.625 197.5,280C 197.265,280.873 196.931,281.707 196.5,282.5C 190.863,283.663 185.196,283.83 179.5,283C 178.726,280.595 178.226,278.095 178,275.5C 177.583,276.756 176.75,277.423 175.5,277.5C 175.5,276.5 175.5,275.5 175.5,274.5C 179.803,274.735 181.47,277.069 180.5,281.5C 182.167,281.5 183.833,281.5 185.5,281.5C 188.833,281.5 192.167,281.5 195.5,281.5C 195.5,247.5 195.5,213.5 195.5,179.5C 195.5,178.833 195.5,178.167 195.5,177.5 Z"/></g>
<g><path style="opacity:1" fill="#1b75a3" d="M 404.5,171.5 C 407.357,174.546 409.19,178.213 410,182.5C 410.333,192.167 410.667,201.833 411,211.5C 409.823,222.544 414.656,228.211 425.5,228.5C 425.827,233.214 425.493,237.88 424.5,242.5C 420.503,243.091 416.836,244.424 413.5,246.5C 413.343,245.127 413.51,243.793 414,242.5C 414.561,243.022 415.228,243.355 416,243.5C 418.542,242.098 421.208,241.098 424,240.5C 424.824,237.118 424.657,233.784 423.5,230.5C 420.192,229.605 416.859,228.771 413.5,228C 411.465,223.37 409.965,218.536 409,213.5C 408.667,202.833 408.333,192.167 408,181.5C 406.489,178.204 405.323,174.871 404.5,171.5 Z"/></g>
<g><path style="opacity:1" fill="#1971a0" d="M 81.5,226.5 C 80.396,228.389 79.0627,230.055 77.5,231.5C 75.8333,231.5 74.1667,231.5 72.5,231.5C 72.3359,234.187 72.5026,236.854 73,239.5C 75.0749,241.648 77.4082,241.982 80,240.5C 83.0245,243.178 85.5245,246.345 87.5,250C 86.9032,251.062 86.5698,252.228 86.5,253.5C 87.2126,265.834 87.8793,278.168 88.5,290.5C 89.5,290.5 90.5,290.5 91.5,290.5C 91.5792,291.93 91.2458,293.264 90.5,294.5C 91.5214,298.023 93.8548,299.856 97.5,300C 100.046,303.823 103.713,305.49 108.5,305C 107.944,305.383 107.611,305.883 107.5,306.5C 96.5989,306.307 89.7656,300.974 87,290.5C 85.8182,277.869 85.1515,265.203 85,252.5C 83.168,245.702 78.668,242.369 71.5,242.5C 70.3401,238.541 70.1735,234.541 71,230.5C 71.5,230 72,229.5 72.5,229C 75.7528,228.799 78.7528,227.966 81.5,226.5 Z"/></g>
<g><path style="opacity:1" fill="#1c73a0" d="M 127.5,224.5 C 126.403,228.89 126.403,233.223 127.5,237.5C 127.631,238.376 127.298,239.043 126.5,239.5C 125.749,238.624 125.249,237.624 125,236.5C 124.5,242.825 124.334,249.158 124.5,255.5C 121.473,244.827 122.473,234.493 127.5,224.5 Z"/></g>
<g><path style="opacity:1" fill="#018ed8" d="M 98.5,242.5 C 100.614,245.724 100.948,249.224 99.5,253C 100.713,254.63 101.546,256.464 102,258.5C 102.333,266.167 102.667,273.833 103,281.5C 103.232,282.737 103.732,283.737 104.5,284.5C 105.017,291.955 109.017,294.622 116.5,292.5C 117.162,296.466 117.495,300.466 117.5,304.5C 114.572,304.565 111.905,305.232 109.5,306.5C 108.833,306.5 108.167,306.5 107.5,306.5C 107.611,305.883 107.944,305.383 108.5,305C 103.713,305.49 100.046,303.823 97.5,300C 93.8548,299.856 91.5214,298.023 90.5,294.5C 91.2458,293.264 91.5792,291.93 91.5,290.5C 90.5,290.5 89.5,290.5 88.5,290.5C 87.8793,278.168 87.2126,265.834 86.5,253.5C 86.5698,252.228 86.9032,251.062 87.5,250C 85.5245,246.345 83.0245,243.178 80,240.5C 77.4082,241.982 75.0749,241.648 73,239.5C 72.5026,236.854 72.3359,234.187 72.5,231.5C 74.1667,231.5 75.8333,231.5 77.5,231.5C 78.9311,231.881 79.7645,232.881 80,234.5C 80.6924,233.975 81.1924,233.308 81.5,232.5C 80.0462,230.737 80.3796,229.403 82.5,228.5C 85.2356,230.024 87.2356,232.191 88.5,235C 89.448,235.483 90.448,235.649 91.5,235.5C 89.7776,239.1 89.1109,242.767 89.5,246.5C 90.6509,248.773 91.6509,251.106 92.5,253.5C 93.8415,251.995 95.5082,251.328 97.5,251.5C 97.67,250.178 97.3366,249.011 96.5,248C 94.5035,247.24 92.8368,246.74 91.5,246.5C 92.8681,244.363 93.8681,242.03 94.5,239.5C 95.3857,240.325 95.719,241.325 95.5,242.5C 96.5,242.5 97.5,242.5 98.5,242.5 Z"/></g>
<g><path style="opacity:1" fill="#134f73" d="M 283.5,236.5 C 284.306,240.002 284.973,243.669 285.5,247.5C 285.32,248.554 284.987,249.554 284.5,250.5C 266.179,251.5 247.845,251.833 229.5,251.5C 229.5,252.5 229.5,253.5 229.5,254.5C 228.566,253.432 228.232,252.099 228.5,250.5C 246.833,250.5 265.167,250.5 283.5,250.5C 283.5,245.833 283.5,241.167 283.5,236.5 Z"/></g>
<g><path style="opacity:1" fill="#17719f" d="M 98.5,240.5 C 101.339,243.871 102.839,247.871 103,252.5C 104.276,263.127 104.776,273.793 104.5,284.5C 103.732,283.737 103.232,282.737 103,281.5C 102.667,273.833 102.333,266.167 102,258.5C 101.546,256.464 100.713,254.63 99.5,253C 100.948,249.224 100.614,245.724 98.5,242.5C 98.5,241.833 98.5,241.167 98.5,240.5 Z"/></g>
<g><path style="opacity:1" fill="#1c6f96" d="M 174.5,229.5 C 175.5,229.5 176.5,229.5 177.5,229.5C 178.7,239.495 178.7,249.495 177.5,259.5C 175.696,261.705 174.029,264.038 172.5,266.5C 171.167,266.833 169.833,267.167 168.5,267.5C 173.101,263.976 175.934,259.309 177,253.5C 178.211,245.177 177.378,237.177 174.5,229.5 Z"/></g>
<g><path style="opacity:1" fill="#18719e" d="M 142.5,239.5 C 141.853,247.626 143.353,255.293 147,262.5C 149.114,265.121 151.614,267.121 154.5,268.5C 153.883,268.611 153.383,268.944 153,269.5C 150.63,267.629 148.13,265.962 145.5,264.5C 143.713,262.142 142.713,259.475 142.5,256.5C 141.238,250.703 141.238,245.037 142.5,239.5 Z"/></g>
<g><path style="opacity:1" fill="#028dd5" d="M 142.5,256.5 C 142.713,259.475 143.713,262.142 145.5,264.5C 148.13,265.962 150.63,267.629 153,269.5C 153.383,268.944 153.883,268.611 154.5,268.5C 159.207,269.5 163.874,269.167 168.5,267.5C 169.833,267.167 171.167,266.833 172.5,266.5C 173.231,266.942 174.231,267.109 175.5,267C 177.831,269.2 177.831,271.2 175.5,273C 177.818,273.342 179.985,272.842 182,271.5C 183.23,272.275 183.563,273.275 183,274.5C 182.346,273.304 181.846,273.304 181.5,274.5C 181.656,277.114 182.99,279.447 185.5,281.5C 183.833,281.5 182.167,281.5 180.5,281.5C 181.47,277.069 179.803,274.735 175.5,274.5C 175.5,275.5 175.5,276.5 175.5,277.5C 174.178,277.67 173.011,277.337 172,276.5C 171.51,277.793 171.343,279.127 171.5,280.5C 167.609,282.519 163.442,283.852 159,284.5C 148.246,284.367 139.413,280.367 132.5,272.5C 129.792,267.739 127.126,263.072 124.5,258.5C 124.5,257.5 124.5,256.5 124.5,255.5C 124.334,249.158 124.5,242.825 125,236.5C 125.249,237.624 125.749,238.624 126.5,239.5C 127.298,239.043 127.631,238.376 127.5,237.5C 131.706,237.947 134.539,235.947 136,231.5C 139.835,232.992 140.335,235.158 137.5,238C 138.743,239.154 139.743,240.488 140.5,242C 139.383,245.073 139.216,248.24 140,251.5C 140.099,253.653 140.933,255.319 142.5,256.5 Z"/></g>
<g><path style="opacity:1" fill="#1b6e98" d="M 272.5,277.5 C 272.5,275.833 272.5,274.167 272.5,272.5C 273.833,272.5 275.167,272.5 276.5,272.5C 276.67,271.178 276.337,270.011 275.5,269C 279.102,267.727 280.268,265.227 279,261.5C 274.864,260.191 270.698,260.191 266.5,261.5C 260.274,271.021 251.941,273.687 241.5,269.5C 252.42,272.037 260.753,268.537 266.5,259C 271.5,259.667 276.5,259.667 281.5,259C 282.357,259.689 283.023,260.522 283.5,261.5C 281.291,267.944 277.625,273.277 272.5,277.5 Z"/></g>
<g><path style="opacity:1" fill="#1b749d" d="M 124.5,258.5 C 127.126,263.072 129.792,267.739 132.5,272.5C 139.413,280.367 148.246,284.367 159,284.5C 163.442,283.852 167.609,282.519 171.5,280.5C 171.343,279.127 171.51,277.793 172,276.5C 173.011,277.337 174.178,277.67 175.5,277.5C 172.746,281.725 168.746,284.225 163.5,285C 142.978,287.082 129.978,278.249 124.5,258.5 Z"/></g>
<g><path style="opacity:1" fill="#1c6c95" d="M 315.5,215.5 C 314.869,213.552 313.869,211.719 312.5,210C 307.845,209.501 303.179,209.334 298.5,209.5C 298.5,233.5 298.5,257.5 298.5,281.5C 304.303,282.087 309.803,281.42 315,279.5C 315.169,266.993 315.669,254.66 316.5,242.5C 316.667,255.837 316.5,269.171 316,282.5C 309.924,283.476 303.758,283.81 297.5,283.5C 297.5,258.5 297.5,233.5 297.5,208.5C 303.5,208.5 309.5,208.5 315.5,208.5C 315.5,210.833 315.5,213.167 315.5,215.5 Z"/></g>
<g><path style="opacity:1" fill="#2178a6" d="M 271.5,277.5 C 267.389,281.556 262.389,284.056 256.5,285C 251.5,285.667 246.5,285.667 241.5,285C 238.543,284.721 235.877,283.887 233.5,282.5C 239.774,283.88 246.107,284.38 252.5,284C 255.424,283.012 258.424,282.346 261.5,282C 264.329,279.328 267.662,277.828 271.5,277.5 Z"/></g>
<g><path style="opacity:1" fill="#1384bf" d="M 351.5,255.5 C 358.078,256.46 364.745,256.793 371.5,256.5C 371.792,265.621 370.959,274.621 369,283.5C 365.154,290.512 359.654,295.846 352.5,299.5C 349.892,297.126 347.892,294.293 346.5,291C 348.294,288.54 350.46,286.373 353,284.5C 354.689,282.24 355.856,279.74 356.5,277C 354.236,276.764 352.069,276.264 350,275.5C 348.937,268.556 349.437,261.889 351.5,255.5 Z"/></g>
<g><path style="opacity:1" fill="#008ed9" d="M 356.5,257.5 C 360.466,258.162 364.466,258.495 368.5,258.5C 367.921,265.243 367.754,271.91 368,278.5C 365.527,277.88 363.027,277.214 360.5,276.5C 360.013,275.554 359.68,274.554 359.5,273.5C 361.53,271.122 362.53,271.789 362.5,275.5C 363.5,275.5 364.5,275.5 365.5,275.5C 365.5,273.833 365.5,272.167 365.5,270.5C 363.143,270.337 360.81,270.503 358.5,271C 357.663,272.011 357.33,273.178 357.5,274.5C 355.473,274.662 353.473,274.495 351.5,274C 352.167,273.667 352.833,273.333 353.5,273C 351.835,268.666 351.169,263.832 351.5,258.5C 353.415,258.784 355.081,258.451 356.5,257.5 Z"/></g>
<g><path style="opacity:1" fill="#1a7cae" d="M 413.5,246.5 C 412.16,250.371 411.327,254.371 411,258.5C 410.667,268.5 410.333,278.5 410,288.5C 409.156,292.229 407.656,295.563 405.5,298.5C 404.549,297.081 404.216,295.415 404.5,293.5C 405.5,293.5 406.5,293.5 407.5,293.5C 408.54,282.723 408.54,271.89 407.5,261C 409.764,257.218 410.931,253.052 411,248.5C 411.417,247.244 412.25,246.577 413.5,246.5 Z"/></g>
<g><path style="opacity:1" fill="#226a94" d="M 104.5,284.5 C 105.198,286.667 106.531,288.5 108.5,290C 111.758,290.212 114.924,290.712 118,291.5C 118.462,295.904 118.795,300.238 119,304.5C 116.096,306.227 112.93,306.893 109.5,306.5C 111.905,305.232 114.572,304.565 117.5,304.5C 117.495,300.466 117.162,296.466 116.5,292.5C 109.017,294.622 105.017,291.955 104.5,284.5 Z"/></g>
<g><path style="opacity:1" fill="#1b73a1" d="M 395.5,245.5 C 393.981,260.29 392.981,275.124 392.5,290C 391.556,291.477 390.223,292.477 388.5,293C 385.518,293.498 382.518,293.665 379.5,293.5C 379.381,297.347 380.047,301.014 381.5,304.5C 386.179,304.666 390.845,304.499 395.5,304C 395.833,303 396.167,302 396.5,301C 399.117,300.178 401.784,299.678 404.5,299.5C 399.717,304.546 393.717,306.88 386.5,306.5C 383.483,306.232 380.483,305.898 377.5,305.5C 377.5,300.833 377.5,296.167 377.5,291.5C 381.22,291.436 384.886,290.936 388.5,290C 389.701,289.097 390.535,287.931 391,286.5C 392.265,275.572 392.932,264.572 393,253.5C 393.279,250.543 394.113,247.877 395.5,245.5 Z"/></g>
<g><path style="opacity:1" fill="#cf1278" d="M 285.5,306.5 C 283.713,305.553 282.047,304.387 280.5,303C 278.209,302.985 276.042,302.818 274,302.5C 274.148,303.825 273.982,304.992 273.5,306C 274.905,307.269 276.571,307.769 278.5,307.5C 280.218,310.983 281.551,314.649 282.5,318.5C 279.934,315.711 277.6,312.711 275.5,309.5C 273.637,313.25 271.303,316.583 268.5,319.5C 266.167,319.5 263.833,319.5 261.5,319.5C 261.448,317.097 261.781,314.764 262.5,312.5C 265.136,306.565 268.302,300.898 272,295.5C 275.051,292.626 277.718,292.959 280,296.5C 282.112,299.727 283.945,303.06 285.5,306.5 Z"/></g>
<g><path style="opacity:1" fill="#912862" d="M 223.5,308.5 C 223.586,309.496 223.252,310.329 222.5,311C 178.167,311.333 133.833,311.667 89.5,312C 87.0807,313.509 86.0807,315.675 86.5,318.5C 84.9257,315.57 85.5924,313.07 88.5,311C 132.833,310.667 177.167,310.333 221.5,310C 222.044,309.283 222.711,308.783 223.5,308.5 Z"/></g>
<g><path style="opacity:1" fill="#902762" d="M 285.5,306.5 C 286.837,307.315 287.837,308.482 288.5,310C 328.669,310.167 368.669,310.667 408.5,311.5C 368.167,311.5 327.833,311.5 287.5,311.5C 286.559,309.95 285.893,308.284 285.5,306.5 Z"/></g>
<g><path style="opacity:1" fill="#c81777" d="M 287.5,311.5 C 327.833,311.5 368.167,311.5 408.5,311.5C 408.5,312.167 408.5,312.833 408.5,313.5C 368.069,312.839 327.736,312.172 287.5,311.5 Z"/></g>
<g><path style="opacity:1" fill="#df067f" d="M 236.5,305.5 C 234.659,309.183 232.326,312.516 229.5,315.5C 228.5,315.5 227.5,315.5 226.5,315.5C 226.5,316.5 226.5,317.5 226.5,318.5C 179.81,319.819 133.144,319.819 86.5,318.5C 86.0807,315.675 87.0807,313.509 89.5,312C 133.833,311.667 178.167,311.333 222.5,311C 223.252,310.329 223.586,309.496 223.5,308.5C 225.912,305.471 228.412,302.471 231,299.5C 231.414,299.957 231.914,300.291 232.5,300.5C 232.711,292.733 235.545,291.733 241,297.5C 242.664,300.289 242.83,303.123 241.5,306C 239.735,306.64 238.068,306.473 236.5,305.5 Z"/></g>
<g><path style="opacity:1" fill="#e1037f" d="M 285.5,306.5 C 285.893,308.284 286.559,309.95 287.5,311.5C 327.736,312.172 368.069,312.839 408.5,313.5C 411.124,315.198 411.124,317.031 408.5,319C 366.459,319.822 324.459,319.655 282.5,318.5C 281.551,314.649 280.218,310.983 278.5,307.5C 276.571,307.769 274.905,307.269 273.5,306C 273.982,304.992 274.148,303.825 274,302.5C 276.042,302.818 278.209,302.985 280.5,303C 282.047,304.387 283.713,305.553 285.5,306.5 Z"/></g>
<g><path style="opacity:1" fill="#e0077e" d="M 251.5,332.5 C 250.4,331.395 249.733,330.062 249.5,328.5C 249.117,323.824 247.117,320.157 243.5,317.5C 241.735,314.463 242.402,312.13 245.5,310.5C 244.675,309.614 243.675,309.281 242.5,309.5C 242.5,308.5 242.5,307.5 242.5,306.5C 247.182,306.929 249.348,309.595 249,314.5C 249.333,314.167 249.667,313.833 250,313.5C 250.856,317.281 252.356,320.615 254.5,323.5C 257.198,323.55 259.364,322.55 261,320.5C 261.704,322.278 262.204,324.112 262.5,326C 261.382,328.059 260.715,330.226 260.5,332.5C 258.723,332.786 257.056,333.453 255.5,334.5C 254.133,333.775 252.8,333.108 251.5,332.5 Z"/></g>
<g><path style="opacity:1" fill="#a02463" d="M 229.5,315.5 C 229.703,317.39 229.037,318.89 227.5,320C 180.833,320.667 134.167,320.667 87.5,320C 86.944,319.617 86.6107,319.117 86.5,318.5C 133.144,319.819 179.81,319.819 226.5,318.5C 226.5,317.5 226.5,316.5 226.5,315.5C 227.5,315.5 228.5,315.5 229.5,315.5 Z"/></g>
<g><path style="opacity:1" fill="#b8176d" d="M 262.5,312.5 C 261.781,314.764 261.448,317.097 261.5,319.5C 263.833,319.5 266.167,319.5 268.5,319.5C 266.05,325.059 263.05,330.393 259.5,335.5C 255.77,337.237 253.103,336.237 251.5,332.5C 252.8,333.108 254.133,333.775 255.5,334.5C 257.056,333.453 258.723,332.786 260.5,332.5C 260.715,330.226 261.382,328.059 262.5,326C 262.204,324.112 261.704,322.278 261,320.5C 259.364,322.55 257.198,323.55 254.5,323.5C 252.356,320.615 250.856,317.281 250,313.5C 249.667,313.833 249.333,314.167 249,314.5C 249.348,309.595 247.182,306.929 242.5,306.5C 242.5,307.5 242.5,308.5 242.5,309.5C 243.675,309.281 244.675,309.614 245.5,310.5C 242.402,312.13 241.735,314.463 243.5,317.5C 240.665,313.836 238.332,309.836 236.5,305.5C 238.068,306.473 239.735,306.64 241.5,306C 242.83,303.123 242.664,300.289 241,297.5C 235.545,291.733 232.711,292.733 232.5,300.5C 231.914,300.291 231.414,299.957 231,299.5C 228.412,302.471 225.912,305.471 223.5,308.5C 225.976,302.505 229.143,296.838 233,291.5C 236.206,289.876 238.872,290.542 241,293.5C 245.999,302.649 251.166,311.649 256.5,320.5C 258.171,317.508 260.171,314.841 262.5,312.5 Z"/></g>
<g><path style="opacity:1" fill="#9b2461" d="M 408.5,311.5 C 412.013,313.908 412.346,316.742 409.5,320C 388.333,320.167 367.167,320.333 346,320.5C 324.489,320.5 303.323,319.833 282.5,318.5C 324.459,319.655 366.459,319.822 408.5,319C 411.124,317.031 411.124,315.198 408.5,313.5C 408.5,312.833 408.5,312.167 408.5,311.5 Z"/></g>
<g><path style="opacity:1" fill="#92195d" d="M 243.5,317.5 C 247.117,320.157 249.117,323.824 249.5,328.5C 246.722,325.279 244.722,321.612 243.5,317.5 Z"/></g>
</svg>
