<svg xmlns="http://www.w3.org/2000/svg" viewBox="50 150 1100 550" version="1.2">
	<style>
		.s0 { fill: #4b88fa } 
		.s1 { fill: #4b88fa; stroke: #4b88fa; stroke-width: 7.7 } 
		.zigzag { fill: none; stroke: #ff00ff; stroke-width: 15; stroke-linecap: round; stroke-linejoin: round; }
	</style>
	
	<path id="{" class="s0" d="m1662.3-993v15.7q-14.5 0-24.2-1.1-9.6-1.2-15.4-4.6-5.7-3.5-8.1-10.5-2.3-6.9-2.3-18.5v-37.3q0-4.7-1.1-6.7-1-1.9-5-2.2-3.9-0.4-12.7-0.4v-15.6q8.8 0 12.7-0.4 4-0.4 5-2.3 1.1-1.9 1.1-6.6v-37.3q0-11.6 2.3-18.6 2.4-6.9 8.1-10.3 5.8-3.5 15.4-4.6 9.7-1.2 24.2-1.2v15.7q-11.2 0-17.6 0.3-6.4 0.4-9.4 2.3-2.9 1.8-3.7 6.2-0.8 4.3-0.8 12.2v35.6q0 6.9-2.1 11.9-2.2 4.9-10.2 4.9 8 0 10.2 5 2.1 4.9 2.1 11.8v35.6q0 7.8 0.8 12.2 0.8 4.3 3.7 6.2 3 1.8 9.4 2.2 6.4 0.4 17.6 0.4z"/>
	<path id="{der;}" class="s1" d="m221.7 582.2l-0.1 27.4q-25.2-0.1-42.1-2-16.9-2.1-27-8.1-9.9-6.2-14.1-18.4-4.1-12.1-4-32.4l0.2-65.2q0-8.2-1.9-11.7-1.7-3.4-8.7-3.9-6.8-0.7-22.2-0.8l0.1-27.3q15.4 0.1 22.2-0.6 7-0.7 8.7-3.9 1.9-3.4 2-11.6l0.2-65.2q0-20.4 4.2-32.5 4.3-12.1 14.2-18 10.1-6.2 27-8 16.9-2 42.2-1.9l-0.1 27.3q-19.5 0-30.7 0.6-11.1 0.7-16.5 3.9-5.1 3.2-6.5 10.9-1.4 7.5-1.4 21.2l-0.2 62.3q0 12.1-3.8 20.8-3.8 8.5-17.8 8.5 14 0 17.7 8.8 3.8 8.5 3.7 20.6l-0.2 62.4q0 13.6 1.3 21.3 1.4 7.5 6.5 10.8 5.3 3.3 16.4 4 11.2 0.7 30.7 0.7zm158.7-8q-33-0.1-56-3.4-23.1-3.5-37.2-13.8-14.2-10.5-20.6-31.1-6.4-20.7-6.3-55.2 0.1-33.5 6.7-53.6 6.5-20.1 20.7-30.3 14.2-10.3 37.3-13.6 23-3.3 56-3.2 31.6 0.1 53.3 4.9 21.8 4.9 34.2 21.5l0.3-88 32.8 0.1-0.8 262.3-32.8-0.1 0.1-22.5q-12.6 16.7-34.4 21.4-21.7 4.7-53.3 4.6zm87.9-102.9q0.1-24.4-3.3-39.1-3.4-14.7-12.6-22.1-9.2-7.5-26.4-10.1-17.3-2.6-45.1-2.7-30.4-0.1-48.1 2.4-17.8 2.5-26.2 10-8.4 7.3-11 22-2.4 14.7-2.5 39.1-0.1 25.3 2.3 40.5 2.5 15.2 10.8 22.9 8.4 7.5 26.1 10.1 17.8 2.5 48.2 2.6 27.8 0.1 45-2.3 17.3-2.5 26.5-10 9.3-7.6 12.8-22.8 3.4-15.2 3.5-40.5zm271.7 41.8l30.6 0.1q-0.1 22.1-6.8 34.7-6.5 12.6-20 18.3-13.5 5.8-34.5 7.5-20.9 1.4-49.7 1.3-33-0.1-56-3.4-22.9-3.5-37-13.7-14-10.5-20.4-31.2-6.3-20.7-6.2-55.2 0.1-33.4 6.3-53.6 6.4-20.1 20.4-30.3 14.1-10.2 36.8-13.5 22.9-3.4 55.8-3.3 37.8 0.1 62.5 5.5 24.8 5.4 36.8 20.3 12.3 14.8 12.2 43.5l-0.1 42.2-197.8-0.6q0.1 21.9 3 35 2.9 13.2 11.6 19.9 8.6 6.7 25.9 8.9 17.4 2.1 46.3 2.2 25.9 0.1 41.8-0.9 16.1-1 24.3-4.3 8.3-3.6 11.3-10.6 2.9-7 2.9-18.8zm-80.7-115q-27.9-0.1-45 1.9-16.9 2-25.8 8-8.9 5.8-12.1 17.4-3.2 11.6-3.4 30.5l166.3 0.5 0.1-16.4q0-12.3-2.8-20.3-2.8-8.2-10.9-12.8-8.2-4.8-24.3-6.8-15.8-1.9-42.1-2zm189.7 173.8l-32.8-0.1 0.6-196.8 32.8 0.1-0.1 27.2q5.5-8.7 11-14.5 5.6-5.8 14.5-9.2 9.1-3.4 24.4-4.7 15.4-1.5 40.5-1.4l-0.1 27.5q-33.8-0.1-52.4 2.2-18.5 2.4-26.5 8.2-8 5.6-9.8 15.6-1.7 10.1-1.8 25.6zm165.4-130.6l-32.8-0.1 0.1-32.8 32.8 0.1zm-22.2 109.2h-21.9l11.2-65.6 32.8 0.1zm65.3 61.7l0.1-27.3q19.5 0 30.6-0.6 11.3-0.7 16.4-3.9 5.3-3.2 6.7-10.7 1.4-7.7 1.4-21.4l0.2-62.3q0-12.1 3.8-20.6 3.8-8.7 17.8-8.7-14 0-17.7-8.6-3.7-8.7-3.7-20.8l0.2-62.4q0-13.6-1.3-21.1-1.4-7.7-6.6-11-5.2-3.3-16.4-4-11.1-0.7-30.6-0.7l0.1-27.4q25.4 0.1 42.2 2.2 16.9 1.9 26.7 8.1 10.1 6 14.2 18.2 4.2 12.1 4.1 32.4l-0.2 65.2q0 8.2 1.7 11.7 1.9 3.2 8.7 3.9 7 0.7 22.4 0.8l-0.1 27.3q-15.4-0.1-22.4 0.6-6.8 0.5-8.7 3.9-1.7 3.4-1.7 11.6l-0.2 65.2q-0.1 20.4-4.4 32.5-4.1 12.1-14.2 18.2-10 6-26.9 8-16.7 1.8-42.2 1.7z"/>

	<path class="zigzag" d="M160,630 l40,-30 l40,30 l40,-30 l40,30 l40,-30 l40,30 l40,-30 l40,30 l40,-30 l40,30 l40,-30 l40,30 l40,-30 l40,30 l40,-30 l40,30 l40,-30 l40,30" />
</svg>