<svg version="1.2" xmlns="http://www.w3.org/2000/svg" viewBox="0 0 268 80" width="400" height="119">
	<style>
		.s0 { fill: #4b88fa;stroke: #4b88fa;stroke-width: 1.9 } 
	</style>
	<path id="{der;}" class="s0" d="m31.42 70.86l-0.03 6.75q-6.2-0.03-10.36-0.49-4.16-0.52-6.65-2-2.43-1.52-3.47-4.53-1.01-2.97-0.98-7.97l0.05-16.05q0-2.02-0.47-2.88-0.42-0.84-2.14-0.96-1.67-0.17-5.47-0.2l0.03-6.72q3.79 0.03 5.46-0.15 1.73-0.17 2.15-0.96 0.46-0.83 0.49-2.85l0.05-16.05q0-5.02 1.03-8 1.06-2.98 3.5-4.43 2.48-1.53 6.64-1.97 4.16-0.49 10.39-0.47l-0.02 6.72q-4.8 0-7.56 0.15-2.73 0.17-4.06 0.96-1.26 0.79-1.6 2.68-0.35 1.85-0.35 5.22l-0.05 15.34q0 2.98-0.93 5.12-0.94 2.09-4.38 2.09 3.44 0 4.35 2.17 0.94 2.09 0.91 5.07l-0.05 15.36q0 3.34 0.32 5.24 0.35 1.85 1.6 2.66 1.31 0.81 4.04 0.98 2.76 0.17 7.56 0.17zm39.06-1.96q-8.12-0.03-13.78-0.84-5.69-0.86-9.16-3.4-3.49-2.58-5.07-7.65-1.57-5.1-1.55-13.59 0.02-8.25 1.65-13.2 1.6-4.94 5.09-7.45 3.5-2.54 9.19-3.35 5.66-0.81 13.78-0.79 7.78 0.03 13.12 1.21 5.37 1.2 8.42 5.29l0.07-21.66 8.08 0.02-0.2 64.57-8.07-0.03 0.02-5.53q-3.1 4.11-8.47 5.26-5.34 1.16-13.12 1.14zm21.64-25.33q0.02-6.01-0.81-9.63-0.84-3.62-3.1-5.44-2.27-1.84-6.5-2.48-4.26-0.64-11.1-0.67-7.49-0.02-11.84 0.59-4.39 0.62-6.45 2.46-2.07 1.8-2.71 5.42-0.59 3.62-0.62 9.62-0.02 6.23 0.57 9.97 0.62 3.74 2.66 5.64 2.07 1.85 6.42 2.49 4.38 0.61 11.87 0.64 6.84 0.02 11.07-0.57 4.26-0.62 6.53-2.46 2.29-1.87 3.15-5.61 0.84-3.75 0.86-9.97zm66.88 10.29l7.53 0.02q-0.02 5.44-1.67 8.54-1.6 3.1-4.92 4.51-3.33 1.42-8.5 1.84-5.14 0.35-12.23 0.32-8.12-0.02-13.79-0.83-5.63-0.87-9.1-3.38-3.45-2.58-5.02-7.68-1.56-5.09-1.53-13.58 0.02-8.23 1.55-13.2 1.58-4.95 5.02-7.46 3.47-2.51 9.06-3.32 5.64-0.84 13.74-0.81 9.3 0.02 15.38 1.35 6.1 1.33 9.06 5 3.03 3.64 3 10.71l-0.02 10.38-48.69-0.14q0.02 5.39 0.74 8.61 0.71 3.25 2.85 4.9 2.12 1.65 6.38 2.19 4.28 0.52 11.39 0.54 6.38 0.03 10.29-0.22 3.97-0.25 5.98-1.06 2.05-0.88 2.79-2.61 0.71-1.72 0.71-4.62zm-19.86-28.31q-6.87-0.03-11.08 0.47-4.16 0.49-6.35 1.96-2.19 1.43-2.98 4.29-0.79 2.85-0.84 7.51l40.94 0.12 0.02-4.04q0-3.03-0.69-5-0.69-2.01-2.68-3.15-2.02-1.18-5.98-1.67-3.89-0.47-10.36-0.49zm46.69 42.78l-8.07-0.03 0.14-48.44 8.08 0.03-0.03 6.69q1.36-2.14 2.71-3.57 1.38-1.43 3.57-2.26 2.24-0.84 6.01-1.16 3.79-0.37 9.97-0.34l-0.03 6.77q-8.32-0.03-12.9 0.54-4.55 0.59-6.52 2.02-1.97 1.37-2.41 3.84-0.42 2.48-0.45 6.3zm40.72-32.15l-8.08-0.03 0.03-8.07 8.07 0.03zm-5.46 26.88h-5.39l2.75-16.15 8.08 0.02zm16.07 15.19l0.03-6.72q4.8 0 7.53-0.15 2.78-0.17 4.04-0.96 1.3-0.79 1.65-2.63 0.34-1.9 0.34-5.27l0.05-15.33q0-2.98 0.93-5.08 0.94-2.14 4.39-2.14-3.45 0-4.36-2.11-0.91-2.15-0.91-5.12l0.05-15.36q0-3.35-0.32-5.2-0.35-1.89-1.63-2.71-1.28-0.81-4.03-0.98-2.74-0.17-7.54-0.17l0.03-6.75q6.25 0.03 10.39 0.54 4.16 0.47 6.57 2 2.48 1.48 3.49 4.48 1.04 2.98 1.01 7.97l-0.05 16.05q0 2.02 0.42 2.88 0.47 0.79 2.14 0.96 1.73 0.18 5.52 0.2l-0.03 6.72q-3.79-0.02-5.51 0.15-1.67 0.12-2.14 0.96-0.42 0.83-0.42 2.85l-0.05 16.05q-0.02 5.02-1.08 8-1.01 2.98-3.5 4.48-2.46 1.48-6.62 1.97-4.11 0.44-10.39 0.42z"/>
</svg>